<svg width="136" height="91" viewBox="0 0 136 91" fill="none" xmlns="http://www.w3.org/2000/svg">
<path d="M105.72 57.4428H98.1313C96.6175 57.4428 95.3919 56.2137 95.3919 54.6981V49.1237C95.3919 48.2271 94.6669 47.502 93.772 47.502C92.8789 47.502 92.1538 48.2271 92.1538 49.1237V54.6998C92.1538 58.0069 94.8296 60.688 98.1313 60.688H105.686C106.595 60.688 107.354 59.9434 107.338 59.0344C107.32 58.152 106.602 57.4428 105.72 57.4428Z" fill="#FEC269"/>
<path d="M49.9345 40.6951L45.6848 38.2422V33.9252C45.6848 33.0286 44.9579 32.3018 44.0648 32.3018C43.1717 32.3018 42.4449 33.0286 42.4449 33.9252V38.419L38.4976 40.6933C38.1226 40.9108 37.8538 41.2592 37.7406 41.6784C37.6275 42.0975 37.684 42.5343 37.9016 42.911C38.1898 43.4115 38.7275 43.7245 39.3075 43.7245C39.5887 43.7245 39.8681 43.6502 40.114 43.507L42.4449 42.1647V46.1933C42.4449 47.09 43.1717 47.8168 44.0648 47.8168C44.9579 47.8168 45.6848 47.09 45.6848 46.1933V41.9878L48.3181 43.507C48.5639 43.6485 48.8433 43.7245 49.1245 43.7245C49.7046 43.7245 50.2422 43.4115 50.5304 42.911C50.9761 42.1364 50.7091 41.1407 49.9345 40.6951Z" fill="#FEC269"/>
<path d="M27.5664 20.3766L31.0804 22.4104L28.6222 23.8394C27.8476 24.2868 27.5841 25.2825 28.0315 26.0571C28.3215 26.5558 28.8574 26.867 29.4357 26.867C29.7187 26.867 29.9998 26.791 30.2457 26.6477L34.3185 24.2833L38.494 26.699C38.7416 26.8405 39.021 26.9166 39.3039 26.9166C39.8822 26.9166 40.4199 26.6053 40.7081 26.1048C41.1556 25.3284 40.8903 24.3345 40.1157 23.8871L35.9597 21.4837L35.965 16.7229C35.965 16.2896 35.797 15.8829 35.491 15.5752C35.1851 15.2692 34.7783 15.0994 34.3451 15.0977C33.452 15.0977 32.7251 15.8263 32.7251 16.7194L32.7216 19.6109L29.1863 17.5665C28.8132 17.349 28.3764 17.2924 27.9572 17.4038C27.5381 17.517 27.1897 17.784 26.9722 18.1589C26.5265 18.9353 26.7918 19.9292 27.5664 20.3766Z" fill="#FEC269"/>
<path d="M28.3764 38.7444C28.6594 38.7444 28.9406 38.6683 29.1864 38.5268L32.7994 36.4365L32.803 39.3704C32.803 40.2635 33.5316 40.9921 34.4247 40.9921C34.8562 40.9904 35.263 40.8206 35.5689 40.5146C35.8749 40.2069 36.0446 39.7984 36.0429 39.3651L36.0376 34.5636L39.9583 32.2946C40.7329 31.8472 40.9982 30.8533 40.5526 30.0769C40.1051 29.3023 39.113 29.0353 38.3384 29.4845L34.361 31.7853L30.3253 29.442C29.5507 28.9928 28.5586 29.2581 28.1094 30.0327C27.6619 30.8073 27.9272 31.8012 28.7 32.2504L31.1229 33.6564L27.5664 35.7149C27.1915 35.9325 26.9227 36.2808 26.8113 36.7C26.6981 37.1191 26.7565 37.5559 26.9722 37.9326C27.2623 38.4331 27.7999 38.7444 28.3764 38.7444Z" fill="#FEC269"/>
<path d="M48.2632 23.744C47.4886 24.1914 47.2233 25.1853 47.6689 25.9599C47.959 26.4621 48.4966 26.7734 49.0749 26.7734C49.3579 26.7734 49.6373 26.6974 49.8831 26.5559L53.9595 24.1967L57.9528 26.5134C58.1986 26.6549 58.4798 26.731 58.7628 26.731C59.3393 26.731 59.8769 26.4215 60.167 25.921C60.6144 25.1464 60.3491 24.1507 59.5763 23.7033L57.1994 22.3239L60.5631 20.3767C61.3377 19.9293 61.603 18.9354 61.1573 18.159C60.7099 17.3844 59.7178 17.1174 58.9432 17.5666L55.4787 19.5703L55.4733 16.5833C55.4733 15.6902 54.7447 14.9633 53.8516 14.9633C53.4201 14.9633 53.0134 15.1331 52.7074 15.4408C52.4015 15.7486 52.2335 16.1553 52.2335 16.5886L52.2405 21.4431L48.2632 23.744Z" fill="#FEC269"/>
<path d="M38.3402 15.2587L42.4448 17.6249V22.3964C42.4448 23.2912 43.1717 24.0198 44.0648 24.0198C44.9579 24.0198 45.6847 23.2912 45.6847 22.3964V17.6214L49.7788 15.2587C50.5534 14.813 50.8205 13.8174 50.3748 13.0428C50.1591 12.6661 49.8107 12.3972 49.3915 12.2858C48.9742 12.1726 48.5373 12.2292 48.1624 12.445L45.6847 13.8739V9.89659C45.6847 9.00172 44.9579 8.2731 44.0648 8.2731C43.1717 8.2731 42.4448 9.00172 42.4448 9.89659V13.8793L39.9566 12.445C39.1837 11.9993 38.1898 12.2681 37.7442 13.0428C37.2985 13.8191 37.5673 14.813 38.3402 15.2587Z" fill="#FEC269"/>
<path d="M60.5632 35.7149L56.9997 33.6529L59.6542 32.1143C60.427 31.6668 60.6923 30.6712 60.2431 29.8966C60.0273 29.5216 59.6772 29.2528 59.2598 29.1414C58.8407 29.03 58.4039 29.0883 58.0307 29.3041L53.7615 31.78L49.9363 29.5676C49.6869 29.4226 49.4093 29.3501 49.1298 29.3501C48.9884 29.3501 48.8469 29.3678 48.7072 29.4049C48.2898 29.5181 47.9396 29.7869 47.7239 30.1618C47.2764 30.9364 47.5435 31.9321 48.3163 32.3795L52.3167 34.6945L52.3096 39.2289C52.3096 39.6622 52.4776 40.0707 52.7836 40.3767C53.0895 40.6844 53.4963 40.8542 53.9313 40.8542C54.8226 40.8542 55.5495 40.1273 55.5513 39.2342L55.5548 36.5656L58.9415 38.5251C59.1891 38.6683 59.4685 38.7426 59.7515 38.7426C60.3298 38.7426 60.8674 38.4313 61.1557 37.9309C61.3714 37.5559 61.4298 37.1173 61.3166 36.6982C61.2052 36.2808 60.9381 35.9307 60.5632 35.7149Z" fill="#FEC269"/>
<mask id="mask0_1_507" style="mask-type:luminance" maskUnits="userSpaceOnUse" x="15" y="0" width="58" height="57">
<path d="M15.8995 0H72.4916V56.2808H15.8995V0Z" fill="white"/>
</mask>
<g mask="url(#mask0_1_507)">
<path d="M24.27 47.8769C26.8396 50.4536 29.8337 52.475 33.1673 53.888C36.6195 55.3506 40.2856 56.0916 44.0648 56.0916C47.8424 56.0916 51.5085 55.3506 54.9606 53.888C58.2942 52.475 61.2883 50.4536 63.8579 47.8769C66.4293 45.302 68.4472 42.3026 69.8567 38.9636C71.3175 35.5045 72.0585 31.8313 72.0585 28.0467C72.0585 24.2603 71.3175 20.5871 69.8567 17.1279C68.4472 13.789 66.4293 10.7896 63.8579 8.21469C61.2883 5.63975 58.2942 3.61659 54.9606 2.20355C51.5085 0.741002 47.8424 0 44.0648 0C40.2856 0 36.6195 0.741002 33.1673 2.20355C29.8337 3.61659 26.8396 5.63975 24.27 8.21469C21.6986 10.7896 19.6807 13.789 18.2712 17.1279C16.8105 20.5871 16.0695 24.2603 16.0695 28.0467C16.0695 31.8313 16.8105 35.5045 18.2712 38.9636C19.6807 42.3026 21.6986 45.302 24.27 47.8769ZM44.0648 3.26996C57.7 3.26996 68.7938 14.385 68.7938 28.0467C68.7938 41.7066 57.7 52.8216 44.0648 52.8216C30.4297 52.8216 19.3359 41.7066 19.3359 28.0467C19.3359 14.385 30.4297 3.26996 44.0648 3.26996Z" fill="#FEC269"/>
</g>
<mask id="mask1_1_507" style="mask-type:luminance" maskUnits="userSpaceOnUse" x="0" y="20" width="136" height="71">
<path d="M0.0537109 20.5146H135.875V91H0.0537109V20.5146Z" fill="white"/>
</mask>
<g mask="url(#mask1_1_507)">
<path d="M135.636 66.0711C135.006 62.734 132.355 60.1502 129.016 59.5666L116.8 57.2091C115.984 57.0518 115.286 56.5265 114.907 55.7837L110.315 46.7432C110.159 46.4177 107.579 41.2237 100.906 40.5463C100.851 40.541 100.796 40.5392 100.742 40.5392H88.2135V38.7195H94.9657C98.2622 38.7195 100.943 36.0331 100.943 32.7313L100.94 30.6144C100.94 27.3126 98.2586 24.6263 94.9621 24.6263H87.7696C86.8783 22.4422 84.7367 20.9018 82.236 20.9018H77.3673C76.4725 20.9018 75.7474 21.6286 75.7474 22.5235C75.7474 23.4201 76.4725 24.147 77.3673 24.147H82.236C83.7481 24.147 84.9754 25.3743 84.9754 26.8917V61.4854H3.41915L3.34311 26.8917C3.34311 25.3779 4.57222 24.147 6.08252 24.147H10.861C11.7559 24.147 12.481 23.4201 12.481 22.5235C12.481 21.6286 11.7559 20.9018 10.861 20.9018H6.08252C2.78249 20.9018 0.10498 23.5828 0.10498 26.8917V76.4045C0.10498 79.7045 2.78249 82.3891 6.07544 82.3944C6.07721 82.3944 6.08075 82.3944 6.08429 82.3944H29.2411C30.0192 87.2648 34.2441 90.9999 39.3215 90.9999C44.4007 90.9999 48.6238 87.2648 49.402 82.3944H106.609C107.389 87.2648 111.613 90.9999 116.69 90.9999C121.769 90.9999 125.992 87.2648 126.77 82.3944L129.851 82.3608C129.853 82.3608 129.856 82.3608 129.86 82.3608C133.151 82.3555 135.829 79.6709 135.829 76.3709V68.1703C135.829 67.4134 135.758 66.7148 135.636 66.0711ZM88.2135 27.8697H94.9621C96.4724 27.8697 97.7015 29.1006 97.7015 30.6144L97.7051 32.7313C97.7051 34.2451 96.476 35.476 94.9657 35.476H88.2135V27.8697ZM39.3215 87.7547C35.4768 87.7547 32.3501 84.6227 32.3501 80.7727C32.3501 80.7727 32.3501 80.7727 32.3501 80.7709C32.3501 80.7709 32.3501 80.7709 32.3501 80.7691C32.3501 76.9191 35.4768 73.7871 39.3215 73.7871C43.1645 73.7871 46.2912 76.9209 46.2912 80.7709C46.2912 84.6227 43.1645 87.7547 39.3215 87.7547ZM116.69 87.7547C112.847 87.7547 109.719 84.6227 109.719 80.7709C109.719 76.9209 112.847 73.7889 116.69 73.7889C120.533 73.7889 123.661 76.9209 123.661 80.7709C123.661 84.6227 120.533 87.7547 116.69 87.7547ZM132.591 76.3019C132.591 77.814 131.358 79.0979 129.851 79.1156C129.849 79.1156 129.848 79.1156 129.846 79.1156L126.77 79.1492C125.992 74.2787 121.767 70.5437 116.69 70.5437C111.611 70.5437 107.388 74.2787 106.609 79.1492H49.4002C48.6221 74.2787 44.3989 70.5437 39.3215 70.5437C34.2424 70.5437 30.0192 74.2787 29.2411 79.1492H6.08782C6.08606 79.1492 6.08429 79.1492 6.08429 79.1492C4.57222 79.1492 3.34311 77.9183 3.34311 76.4045L3.40324 64.7288H84.9754V70.0096C84.9754 70.9203 85.7182 71.6808 86.6272 71.6631C87.5061 71.6472 88.2135 70.9274 88.2135 70.0414V43.7827H100.658C102.66 44.0002 104.39 44.7837 105.8 46.1083C106.885 47.1269 107.379 48.112 107.393 48.142C107.393 48.142 107.393 48.1438 107.395 48.1438L112.405 58.104C112.941 59.1686 113.949 59.9167 115.12 60.1219L128.238 62.4174C130.251 62.7905 131.883 64.2973 132.371 66.2904C132.382 66.3329 132.392 66.3753 132.401 66.4195H130.192C129.285 66.4195 128.525 67.164 128.542 68.0731C128.558 68.9538 129.276 69.6629 130.161 69.6629H132.592V76.3019H132.591Z" fill="#FEC269"/>
</g>
</svg>
