<svg width="128" height="91" viewBox="0 0 128 91" fill="none" xmlns="http://www.w3.org/2000/svg">
<path d="M38.7843 40.6514C38.7843 40.2702 38.766 39.8908 38.7277 39.513C38.6911 39.1336 38.6346 38.7575 38.5613 38.3847C38.4864 38.0119 38.3932 37.6425 38.2834 37.278C38.1736 36.9136 38.0454 36.5558 37.899 36.2046C37.7542 35.8535 37.5911 35.509 37.4114 35.1745C37.2333 34.8383 37.0369 34.5121 36.8256 34.1959C36.6142 33.8797 36.3879 33.5735 36.1466 33.2806C35.9053 32.9861 35.649 32.7048 35.381 32.4352C35.1114 32.1656 34.8302 31.911 34.5356 31.6697C34.2411 31.4284 33.9365 31.202 33.6203 30.9907C33.3041 30.7793 32.9779 30.583 32.6418 30.4032C32.3056 30.2252 31.9628 30.0621 31.6116 29.9173C31.2588 29.7708 30.901 29.6427 30.5382 29.5328C30.1738 29.4213 29.8043 29.3298 29.4315 29.2549C29.0588 29.1817 28.6826 29.1251 28.3032 29.0885C27.9254 29.0502 27.546 29.0319 27.1649 29.0319C26.7838 29.0319 26.4044 29.0502 26.0266 29.0885C25.6472 29.1251 25.271 29.1817 24.8983 29.2549C24.5255 29.3298 24.156 29.4213 23.7916 29.5328C23.4271 29.6427 23.0693 29.7708 22.7182 29.9173C22.367 30.0621 22.0225 30.2252 21.688 30.4032C21.3519 30.583 21.0257 30.7793 20.7095 30.9907C20.3933 31.202 20.0871 31.4284 19.7942 31.6697C19.4996 31.911 19.2184 32.1656 18.9488 32.4352C18.6792 32.7048 18.4245 32.9861 18.1832 33.2806C17.9419 33.5735 17.7156 33.8797 17.5042 34.1959C17.2929 34.5121 17.0965 34.8383 16.9168 35.1745C16.7387 35.509 16.5756 35.8535 16.4308 36.2046C16.2844 36.5558 16.1562 36.9136 16.0464 37.278C15.9349 37.6425 15.8434 38.0119 15.7685 38.3847C15.6952 38.7575 15.6387 39.1336 15.6021 39.513C15.5638 39.8908 15.5455 40.2702 15.5455 40.6514C15.5455 41.0325 15.5638 41.4119 15.6021 41.7897C15.6387 42.1691 15.6952 42.5452 15.7685 42.918C15.8434 43.2908 15.9349 43.6602 16.0464 44.0247C16.1562 44.3875 16.2844 44.7453 16.4308 45.0981C16.5756 45.4492 16.7387 45.7921 16.9168 46.1282C17.0965 46.4644 17.2929 46.7906 17.5042 47.1068C17.7156 47.423 17.9419 47.7275 18.1832 48.0221C18.4245 48.3166 18.6792 48.5979 18.9488 48.8675C19.2184 49.1354 19.4996 49.3917 19.7942 49.633C20.0871 49.8743 20.3933 50.1007 20.7095 50.312C21.0257 50.5234 21.3519 50.7181 21.688 50.8978C22.0225 51.0776 22.367 51.2406 22.7182 51.3854C23.0693 51.5319 23.4271 51.66 23.7916 51.7699C24.156 51.8797 24.5255 51.9729 24.8983 52.0478C25.271 52.121 25.6472 52.1776 26.0266 52.2142C26.4044 52.2508 26.7838 52.2708 27.1649 52.2708C27.546 52.2691 27.9254 52.2508 28.3032 52.2125C28.681 52.1759 29.0571 52.1193 29.4299 52.0444C29.8043 51.9696 30.1721 51.878 30.5366 51.7665C30.8994 51.6567 31.2572 51.5285 31.61 51.3821C31.9611 51.2373 32.3039 51.0742 32.6401 50.8945C32.9746 50.7148 33.3008 50.52 33.617 50.3087C33.9332 50.0973 34.2377 49.871 34.5323 49.6297C34.8269 49.3884 35.1081 49.1321 35.3777 48.8642C35.6457 48.5946 35.9019 48.3133 36.1432 48.0188C36.3846 47.7242 36.6109 47.4196 36.8222 47.1034C37.0336 46.7872 37.2283 46.4611 37.408 46.1266C37.5878 45.7904 37.7509 45.4476 37.8956 45.0964C38.0421 44.7436 38.1702 44.3858 38.2801 44.023C38.3916 43.6586 38.4848 43.2908 38.558 42.9163C38.6329 42.5435 38.6895 42.1674 38.7261 41.7897C38.7644 41.4102 38.7827 41.0308 38.7843 40.6514ZM19.4181 40.6514C19.4181 40.3967 19.4314 40.1438 19.4563 39.8925C19.4813 39.6395 19.5179 39.3882 19.5678 39.1403C19.6178 38.8906 19.6793 38.646 19.7526 38.403C19.8258 38.16 19.9107 37.9204 20.0089 37.6874C20.1054 37.4528 20.2135 37.2231 20.3334 37.0001C20.4532 36.7754 20.583 36.5591 20.7245 36.3477C20.8642 36.1364 21.0157 35.9333 21.1771 35.737C21.3385 35.5406 21.5083 35.3525 21.688 35.1745C21.8661 34.9947 22.0541 34.825 22.2505 34.6636C22.4469 34.5021 22.6499 34.3507 22.8613 34.2109C23.0726 34.0694 23.289 33.9396 23.5137 33.8198C23.7367 33.7 23.9663 33.5918 24.201 33.4953C24.4356 33.3971 24.6736 33.3122 24.9166 33.239C25.1595 33.1641 25.4042 33.1042 25.6538 33.0543C25.9018 33.0044 26.1531 32.9677 26.406 32.9428C26.6573 32.9178 26.9103 32.9045 27.1649 32.9045C27.4179 32.9045 27.6708 32.9178 27.9238 32.9428C28.1767 32.9677 28.4264 33.0044 28.676 33.0543C28.924 33.1042 29.1703 33.1641 29.4132 33.239C29.6562 33.3122 29.8942 33.3971 30.1288 33.4953C30.3635 33.5918 30.5931 33.7 30.8162 33.8198C31.0392 33.9396 31.2572 34.0694 31.4685 34.2109C31.6799 34.3507 31.8829 34.5021 32.0793 34.6636C32.2757 34.825 32.462 34.9947 32.6418 35.1745C32.8215 35.3525 32.9913 35.5406 33.1527 35.737C33.3141 35.9333 33.4639 36.1364 33.6053 36.3477C33.7468 36.5591 33.8766 36.7754 33.9964 37.0001C34.1163 37.2231 34.2244 37.4528 34.321 37.6874C34.4175 37.9204 34.504 38.16 34.5772 38.403C34.6505 38.646 34.712 38.8906 34.762 39.1403C34.8119 39.3882 34.8485 39.6395 34.8735 39.8925C34.8984 40.1438 34.9101 40.3967 34.9101 40.6514C34.9101 40.9043 34.8984 41.1573 34.8735 41.4102C34.8485 41.6632 34.8119 41.9128 34.762 42.1624C34.712 42.4104 34.6505 42.6567 34.5772 42.8997C34.504 43.1427 34.4175 43.3806 34.321 43.6153C34.2244 43.8499 34.1163 44.0796 33.9964 44.3026C33.8766 44.5256 33.7468 44.7436 33.6053 44.955C33.4639 45.1663 33.3141 45.3694 33.1527 45.5657C32.9913 45.7621 32.8215 45.9485 32.6418 46.1282C32.462 46.308 32.2757 46.4777 32.0793 46.6391C31.8829 46.8006 31.6799 46.9503 31.4685 47.0918C31.2572 47.2333 31.0392 47.3631 30.8162 47.4829C30.5931 47.6027 30.3635 47.7109 30.1288 47.8074C29.8942 47.9039 29.6562 47.9905 29.4132 48.0637C29.1703 48.1369 28.924 48.1985 28.676 48.2484C28.4264 48.2983 28.1767 48.335 27.9238 48.3599C27.6708 48.3849 27.4179 48.3965 27.1649 48.3965C26.9119 48.3965 26.6573 48.3849 26.406 48.3599C26.1531 48.3333 25.9034 48.2967 25.6538 48.2467C25.4058 48.1968 25.1595 48.1352 24.9166 48.062C24.6753 47.9871 24.4356 47.9023 24.2026 47.8057C23.968 47.7076 23.7383 47.5994 23.5153 47.4796C23.2906 47.3597 23.0743 47.2299 22.8629 47.0885C22.6533 46.9487 22.4486 46.7972 22.2539 46.6358C22.0575 46.476 21.8694 46.3046 21.6897 46.1266C21.51 45.9468 21.3402 45.7588 21.1804 45.5624C21.019 45.366 20.8676 45.163 20.7261 44.9533C20.5863 44.7419 20.4549 44.5239 20.3367 44.3009C20.2169 44.0779 20.107 43.8483 20.0105 43.6136C19.914 43.379 19.8275 43.141 19.7542 42.898C19.681 42.6567 19.6194 42.4104 19.5695 42.1624C19.5196 41.9128 19.4813 41.6632 19.4563 41.4102C19.4314 41.1573 19.4197 40.9043 19.4181 40.6514Z" fill="#FEC269"/>
<path d="M118.182 17.4125C118.182 17.1596 118.168 16.9066 118.143 16.6537C118.118 16.4007 118.082 16.1511 118.032 15.9014C117.984 15.6535 117.922 15.4072 117.847 15.1642C117.774 14.9212 117.689 14.6833 117.592 14.4486C117.494 14.2139 117.386 13.986 117.266 13.7613C117.146 13.5383 117.017 13.3203 116.875 13.1089C116.735 12.8992 116.584 12.6945 116.423 12.4982C116.263 12.3034 116.091 12.1154 115.913 11.9357C115.734 11.7559 115.546 11.5862 115.349 11.4248C115.153 11.265 114.95 11.1135 114.738 10.9721C114.527 10.8306 114.311 10.7008 114.086 10.581C113.863 10.4612 113.633 10.353 113.399 10.2565C113.166 10.16 112.926 10.0734 112.683 10.0002C112.442 9.92697 112.195 9.8654 111.946 9.81547C111.698 9.76555 111.447 9.72893 111.195 9.70397C110.942 9.67901 110.689 9.66736 110.435 9.66736C110.182 9.66736 109.929 9.67901 109.676 9.70397C109.423 9.72893 109.173 9.76555 108.924 9.81547C108.676 9.8654 108.429 9.92697 108.186 10.0002C107.943 10.0734 107.705 10.16 107.471 10.2565C107.236 10.353 107.008 10.4612 106.784 10.581C106.56 10.7008 106.342 10.8306 106.131 10.9721C105.921 11.1135 105.717 11.265 105.52 11.4248C105.326 11.5862 105.138 11.7559 104.958 11.9357C104.778 12.1154 104.608 12.3034 104.447 12.4982C104.287 12.6945 104.136 12.8992 103.994 13.1089C103.853 13.3203 103.723 13.5383 103.603 13.7613C103.483 13.986 103.375 14.2139 103.279 14.4486C103.182 14.6833 103.096 14.9212 103.022 15.1642C102.949 15.4072 102.888 15.6535 102.838 15.9014C102.788 16.1511 102.751 16.4007 102.726 16.6537C102.701 16.9066 102.69 17.1596 102.69 17.4125C102.69 17.6672 102.701 17.9201 102.726 18.1714C102.751 18.4244 102.788 18.6757 102.838 18.9236C102.888 19.1733 102.949 19.4179 103.022 19.6609C103.096 19.9038 103.182 20.1435 103.279 20.3765C103.375 20.6111 103.483 20.8408 103.603 21.0638C103.723 21.2885 103.853 21.5048 103.994 21.7162C104.136 21.9275 104.287 22.1305 104.447 22.3269C104.608 22.5233 104.778 22.7113 104.958 22.8894C105.138 23.0691 105.326 23.2406 105.52 23.4003C105.717 23.5617 105.921 23.7132 106.131 23.853C106.342 23.9944 106.56 24.1242 106.784 24.2441C107.008 24.3639 107.236 24.4721 107.471 24.5686C107.705 24.6668 107.943 24.7516 108.186 24.8249C108.429 24.8998 108.676 24.9613 108.924 25.0096C109.173 25.0595 109.423 25.0961 109.676 25.1211C109.929 25.1461 110.182 25.1594 110.435 25.1594C110.689 25.1594 110.942 25.1461 111.194 25.1211C111.447 25.0961 111.698 25.0579 111.946 25.0079C112.194 24.9597 112.44 24.8964 112.683 24.8232C112.926 24.75 113.164 24.6634 113.399 24.5669C113.632 24.4704 113.861 24.3606 114.084 24.2424C114.309 24.1226 114.525 23.9911 114.737 23.8513C114.948 23.7099 115.151 23.5584 115.347 23.3987C115.542 23.2372 115.73 23.0675 115.91 22.8877C116.09 22.708 116.259 22.52 116.421 22.3252C116.581 22.1289 116.732 21.9258 116.874 21.7145C117.013 21.5031 117.145 21.2868 117.265 21.0621C117.384 20.8391 117.493 20.6095 117.589 20.3765C117.686 20.1418 117.772 19.9038 117.845 19.6609C117.92 19.4179 117.982 19.1716 118.032 18.9236C118.08 18.674 118.118 18.4244 118.143 18.1714C118.168 17.9201 118.182 17.6672 118.182 17.4125ZM106.562 17.4125C106.562 17.1579 106.587 16.9066 106.637 16.657C106.687 16.4074 106.76 16.1661 106.857 15.9314C106.955 15.6951 107.073 15.4721 107.215 15.2607C107.356 15.0494 107.517 14.8547 107.697 14.6749C107.877 14.4952 108.072 14.3338 108.283 14.1923C108.494 14.0509 108.717 13.9327 108.954 13.8345C109.188 13.738 109.43 13.6631 109.679 13.6148C109.929 13.5649 110.18 13.5399 110.435 13.5399C110.689 13.5399 110.941 13.5649 111.19 13.6148C111.44 13.6631 111.683 13.738 111.918 13.8345C112.152 13.9327 112.375 14.0509 112.587 14.1923C112.798 14.3338 112.994 14.4952 113.174 14.6749C113.354 14.8547 113.514 15.0494 113.655 15.2607C113.796 15.4721 113.916 15.6951 114.013 15.9314C114.111 16.1661 114.184 16.4074 114.234 16.657C114.284 16.9066 114.309 17.1579 114.309 17.4125C114.309 17.6672 114.284 17.9185 114.234 18.1681C114.184 18.4177 114.111 18.6607 114.013 18.8953C113.916 19.13 113.796 19.353 113.655 19.5643C113.514 19.7757 113.354 19.9721 113.174 20.1518C112.994 20.3315 112.798 20.4913 112.587 20.6328C112.375 20.7742 112.152 20.894 111.918 20.9906C111.683 21.0887 111.44 21.162 111.19 21.2119C110.941 21.2618 110.689 21.2868 110.435 21.2868C110.182 21.2851 109.929 21.2602 109.679 21.2102C109.431 21.1603 109.188 21.0871 108.954 20.9906C108.719 20.8924 108.496 20.7726 108.285 20.6328C108.073 20.4913 107.877 20.3299 107.697 20.1501C107.517 19.9704 107.358 19.7757 107.216 19.5643C107.075 19.353 106.955 19.13 106.858 18.8937C106.76 18.659 106.687 18.4177 106.637 18.1681C106.587 17.9185 106.562 17.6672 106.562 17.4125Z" fill="#FEC269"/>
<mask id="mask0_1_526" style="mask-type:luminance" maskUnits="userSpaceOnUse" x="92" y="0" width="36" height="51">
<path d="M92.929 0H127.864V50.5716H92.929V0Z" fill="white"/>
</mask>
<g mask="url(#mask0_1_526)">
<path d="M119.363 36.6855C123.552 31.8044 127.864 24.9629 127.864 17.4125C127.864 16.8416 127.836 16.2725 127.781 15.705C127.724 15.1358 127.641 14.5733 127.529 14.0125C127.418 13.4533 127.28 12.8992 127.113 12.3533C126.947 11.8074 126.756 11.2699 126.538 10.7424C126.32 10.2165 126.075 9.70057 125.805 9.19632C125.537 8.69373 125.245 8.20446 124.927 7.73016C124.609 7.25587 124.269 6.79821 123.908 6.35553C123.545 5.91452 123.163 5.49182 122.76 5.08908C122.355 4.68468 121.933 4.30191 121.492 3.94078C121.051 3.57799 120.593 3.23849 120.119 2.92063C119.643 2.60443 119.155 2.31153 118.651 2.04193C118.148 1.77233 117.632 1.52936 117.105 1.31135C116.577 1.09168 116.041 0.900294 115.494 0.733874C114.948 0.569119 114.396 0.43099 113.835 0.319489C113.276 0.207988 112.711 0.124778 112.144 0.0681952C111.575 0.0116127 111.006 -0.0150146 110.435 -0.0150146C109.864 -0.0150146 109.295 0.0116127 108.727 0.0681952C108.158 0.124778 107.596 0.207988 107.035 0.319489C106.476 0.43099 105.922 0.569119 105.376 0.733874C104.83 0.900294 104.292 1.09168 103.766 1.31135C103.239 1.52936 102.723 1.77233 102.219 2.04193C101.716 2.31153 101.227 2.60443 100.753 2.92063C100.278 3.23849 99.8205 3.57799 99.3779 3.94078C98.9369 4.30191 98.5142 4.68468 98.1114 5.08908C97.707 5.49182 97.3243 5.91452 96.9631 6.35553C96.6003 6.79821 96.2608 7.25587 95.9446 7.73016C95.6268 8.20446 95.3339 8.69373 95.0643 9.19632C94.7947 9.70057 94.5517 10.2165 94.3337 10.7424C94.114 11.2699 93.9226 11.8074 93.7562 12.3533C93.5915 12.8992 93.4533 13.4533 93.3418 14.0125C93.2303 14.5733 93.1471 15.1358 93.0905 15.705C93.034 16.2725 93.0073 16.8416 93.0073 17.4125C93.0073 24.9629 97.3193 31.8028 101.506 36.6855C99.4644 37.6741 98.0282 38.9871 97.3459 40.5032C97.2444 40.4949 97.1628 40.4866 97.0563 40.4782C96.9282 40.4683 96.8017 40.4699 96.6769 40.4849C96.5504 40.4982 96.4273 40.5248 96.3058 40.5648C96.1843 40.6031 96.0694 40.653 95.9579 40.7146C95.8464 40.7778 95.7433 40.8494 95.6451 40.9309C95.5486 41.0125 95.4604 41.104 95.3821 41.2038C95.3023 41.302 95.234 41.4085 95.1758 41.5217C95.1175 41.6349 95.0709 41.753 95.036 41.8745C95.001 41.996 94.9794 42.1208 94.9677 42.2473C94.9578 42.3738 94.9594 42.5002 94.9744 42.6267C94.9877 42.7532 95.0143 42.8764 95.0526 42.9978C95.0926 43.1177 95.1425 43.2342 95.2041 43.3457C95.2656 43.4572 95.3372 43.5603 95.4187 43.6585C95.5003 43.7551 95.5918 43.8433 95.69 43.9215C95.7899 44.0014 95.8964 44.0696 96.0095 44.1278C96.121 44.1861 96.2392 44.2343 96.3607 44.2693C96.4838 44.3042 96.607 44.3275 96.7335 44.3375C96.9182 44.3525 97.068 44.3675 97.2277 44.3808C98.5724 47.8723 103.796 50.3336 110.435 50.3336C118.163 50.3336 123.991 47.0036 123.991 42.5884C123.991 40.2003 122.297 38.1068 119.363 36.6855ZM110.435 3.85757C110.879 3.85757 111.322 3.87921 111.763 3.92414C112.206 3.96741 112.643 4.03398 113.079 4.12052C113.514 4.20706 113.945 4.31523 114.369 4.44504C114.793 4.57318 115.211 4.72296 115.62 4.8927C116.03 5.06245 116.431 5.25217 116.822 5.46186C117.213 5.67155 117.594 5.89954 117.962 6.14585C118.331 6.39381 118.688 6.65675 119.03 6.93967C119.373 7.22092 119.703 7.51881 120.016 7.83168C120.33 8.14621 120.628 8.47406 120.909 8.81688C121.191 9.15971 121.455 9.51585 121.701 9.8853C121.948 10.2548 122.176 10.6342 122.385 11.0253C122.595 11.4164 122.785 11.8174 122.955 12.2285C123.124 12.6379 123.274 13.0556 123.404 13.48C123.534 13.9043 123.64 14.3337 123.728 14.7697C123.815 15.2041 123.88 15.6434 123.925 16.0844C123.968 16.5271 123.99 16.9698 123.991 17.4125C123.991 27.7371 113.911 37.1548 110.435 40.0955C106.955 37.1598 96.8799 27.7604 96.8799 17.4125C96.8799 16.9698 96.9015 16.5271 96.9465 16.0844C96.9897 15.6434 97.0563 15.2041 97.1429 14.7697C97.2294 14.3337 97.3376 13.9043 97.4674 13.48C97.5955 13.0556 97.7453 12.6379 97.915 12.2285C98.0848 11.8174 98.2745 11.4164 98.4842 11.0253C98.6939 10.6342 98.9219 10.2548 99.1682 9.8853C99.4162 9.51585 99.6791 9.15971 99.962 8.81688C100.243 8.47406 100.541 8.14621 100.854 7.83168C101.169 7.51881 101.496 7.22092 101.839 6.93967C102.182 6.65675 102.538 6.39381 102.908 6.14585C103.277 5.89954 103.657 5.67155 104.048 5.46186C104.439 5.25217 104.84 5.06245 105.251 4.8927C105.66 4.72296 106.078 4.57318 106.502 4.44504C106.927 4.31523 107.356 4.20706 107.792 4.12052C108.226 4.03398 108.666 3.96741 109.107 3.92414C109.549 3.87921 109.992 3.85757 110.435 3.85757ZM110.435 46.461C104.525 46.461 100.753 44.1661 100.753 42.5884C100.753 41.7347 101.964 40.5415 104.289 39.6994C105.855 41.287 107.516 42.7649 109.273 44.1362C109.441 44.2626 109.624 44.3592 109.822 44.4241C110.022 44.4906 110.225 44.5239 110.435 44.5239C110.644 44.5239 110.849 44.4906 111.047 44.4241C111.247 44.3592 111.43 44.2626 111.598 44.1362C113.355 42.7649 115.016 41.287 116.581 39.6994C118.907 40.5415 120.117 41.7364 120.117 42.5884C120.117 44.1661 116.346 46.461 110.435 46.461Z" fill="#FEC269"/>
</g>
<path d="M48.5648 79.507C48.3984 79.4971 48.2653 79.4904 48.1188 79.4804C47.1087 76.7778 43.8568 74.5477 38.8875 73.1531C46.0769 65.3747 54.2764 53.6571 54.2764 40.6514C54.2764 40.207 54.2647 39.7643 54.2431 39.3217C54.2214 38.8773 54.1898 38.4347 54.1449 37.9936C54.1016 37.5526 54.0484 37.1116 53.9835 36.6723C53.9169 36.2346 53.842 35.7969 53.7555 35.3625C53.6689 34.9265 53.5707 34.4938 53.4642 34.0645C53.3561 33.6334 53.2379 33.2057 53.1081 32.7814C52.9799 32.357 52.8402 31.936 52.692 31.5182C52.5423 31.1005 52.3825 30.6861 52.2128 30.2768C52.043 29.8657 51.8633 29.4613 51.6736 29.0602C51.4838 28.6592 51.2841 28.2631 51.0744 27.8703C50.8664 27.4792 50.6467 27.0931 50.4187 26.7137C50.1908 26.3326 49.9528 25.9582 49.7065 25.5887C49.4602 25.2193 49.2055 24.8581 48.9409 24.5003C48.6763 24.1442 48.4034 23.7947 48.1222 23.4519C47.8409 23.1091 47.5513 22.7729 47.2534 22.445C46.9556 22.1155 46.6493 21.7943 46.3348 21.4798C46.0219 21.1669 45.7007 20.8607 45.3712 20.5628C45.0434 20.2649 44.7072 19.9754 44.3644 19.6941C44.0216 19.4129 43.6721 19.1399 43.3143 18.8753C42.9581 18.6107 42.5954 18.3561 42.2276 18.1081C41.8581 17.8618 41.4837 17.6255 41.1026 17.3975C40.7215 17.1695 40.337 16.9499 39.9443 16.7418C39.5532 16.5321 39.1571 16.3324 38.7561 16.1427C38.355 15.953 37.9489 15.7733 37.5395 15.6035C37.1301 15.4338 36.7157 15.274 36.298 15.1242C35.8803 14.9745 35.4593 14.8363 35.0349 14.7065C34.6105 14.5784 34.1828 14.4602 33.7518 14.352C33.3224 14.2439 32.8898 14.1473 32.4537 14.0608C32.0194 13.9743 31.5817 13.8977 31.1423 13.8328C30.7047 13.7679 30.2636 13.7147 29.8226 13.6697C29.38 13.6265 28.9389 13.5948 28.4946 13.5732C28.0519 13.5516 27.6093 13.5399 27.1649 13.5399C26.7206 13.5399 26.2779 13.5516 25.8352 13.5732C25.3909 13.5948 24.9482 13.6265 24.5072 13.6697C24.0662 13.7147 23.6252 13.7679 23.1875 13.8328C22.7481 13.8977 22.3104 13.9743 21.8761 14.0608C21.4401 14.1473 21.0074 14.2439 20.578 14.352C20.147 14.4602 19.7193 14.5784 19.2949 14.7065C18.8706 14.8363 18.4495 14.9745 18.0318 15.1242C17.6141 15.274 17.1997 15.4338 16.7903 15.6035C16.3792 15.7733 15.9748 15.953 15.5738 16.1427C15.1727 16.3324 14.7766 16.5321 14.3839 16.7418C13.9928 16.9499 13.6067 17.1695 13.2273 17.3975C12.8462 17.6255 12.4717 17.8618 12.1023 18.1081C11.7328 18.3561 11.3717 18.6107 11.0139 18.8753C10.6577 19.1399 10.3083 19.4129 9.96543 19.6941C9.6226 19.9754 9.28644 20.2649 8.95859 20.5628C8.62908 20.8607 8.30789 21.1669 7.99502 21.4798C7.68049 21.7943 7.37427 22.1155 7.07638 22.445C6.77849 22.7729 6.48892 23.1091 6.20767 23.4519C5.92642 23.7947 5.65349 24.1442 5.38889 24.5003C5.12428 24.8581 4.86966 25.2193 4.62335 25.5887C4.37539 25.9582 4.13907 26.3326 3.91108 26.7137C3.68308 27.0931 3.46341 27.4792 3.25538 27.8703C3.04569 28.2631 2.84599 28.6592 2.65627 29.0602C2.46655 29.4613 2.28682 29.8657 2.11707 30.2768C1.94732 30.6861 1.78756 31.1005 1.63778 31.5182C1.48801 31.936 1.34988 32.357 1.22007 32.7814C1.09193 33.2057 0.973768 33.6334 0.865595 34.0645C0.757423 34.4938 0.660899 34.9265 0.574361 35.3625C0.487822 35.7969 0.411269 36.2346 0.346366 36.6723C0.281462 37.1116 0.228207 37.5526 0.183274 37.9936C0.140005 38.4347 0.108385 38.8773 0.0867508 39.3217C0.0651163 39.7643 0.0534668 40.207 0.0534668 40.6514C0.0534668 53.6571 8.25297 65.3747 15.4423 73.1531C9.38462 74.854 5.86318 77.7929 5.86318 81.3177C5.86318 87.6067 16.8386 91 27.1649 91C36.3113 91 45.9487 88.334 48.0373 83.3563C48.1438 83.363 48.2303 83.368 48.3468 83.3746C48.3834 83.3763 48.4217 83.378 48.4583 83.378C48.5831 83.378 48.7063 83.3647 48.8294 83.3414C48.9509 83.3181 49.0707 83.2815 49.1856 83.2349C49.3021 83.1883 49.4119 83.13 49.5168 83.0618C49.6216 82.9935 49.7181 82.9153 49.808 82.8288C49.8962 82.7406 49.9777 82.6457 50.0476 82.5442C50.1192 82.441 50.1791 82.3329 50.229 82.218C50.2806 82.1049 50.3189 81.9867 50.3455 81.8636C50.3738 81.7421 50.3888 81.6189 50.3921 81.4941C50.3955 81.3693 50.3871 81.2461 50.3672 81.123C50.3455 80.9998 50.3139 80.88 50.2706 80.7619C50.2257 80.6454 50.1724 80.5339 50.1059 80.4274C50.041 80.3208 49.9661 80.2227 49.8812 80.1295C49.798 80.0379 49.7048 79.9547 49.605 79.8815C49.5034 79.8066 49.3969 79.7434 49.2838 79.6901C49.1706 79.6369 49.0541 79.5953 48.9326 79.5636C48.8128 79.5337 48.6896 79.5137 48.5648 79.507ZM27.1649 17.4125C27.9255 17.4142 28.6843 17.4524 29.4415 17.5273C30.1987 17.6022 30.951 17.7154 31.6965 17.8635C32.4421 18.0133 33.1793 18.198 33.9082 18.4193C34.6355 18.6407 35.3511 18.897 36.0534 19.1882C36.7557 19.4811 37.443 19.8056 38.1137 20.1651C38.7843 20.5229 39.4367 20.914 40.0691 21.3367C40.7015 21.7611 41.3123 22.2137 41.8997 22.6963C42.4872 23.179 43.0513 23.6882 43.5889 24.2274C44.1264 24.7649 44.6373 25.3274 45.1199 25.9166C45.6026 26.504 46.0552 27.1148 46.4779 27.7472C46.9006 28.3796 47.2917 29.0319 47.6512 29.7026C48.0107 30.3733 48.3352 31.0589 48.6264 31.7629C48.9193 32.4652 49.1756 33.1808 49.3969 33.908C49.6183 34.637 49.803 35.3725 49.9528 36.1198C50.1009 36.8653 50.2141 37.6175 50.2889 38.3747C50.3638 39.132 50.4021 39.8908 50.4038 40.6514C50.4038 58.7196 32.0094 74.9022 27.1649 78.8497C22.3204 74.9022 3.92605 58.7196 3.92605 40.6514C3.92772 39.8908 3.966 39.132 4.04088 38.3747C4.11577 37.6175 4.22894 36.8653 4.37705 36.1198C4.52683 35.3725 4.71156 34.637 4.93289 33.908C5.15423 33.1808 5.41052 32.4652 5.70175 31.7629C5.99465 31.0589 6.31917 30.3733 6.67864 29.7026C7.03644 29.0319 7.42753 28.3796 7.85023 27.7472C8.2746 27.1148 8.72727 26.504 9.20988 25.9166C9.6925 25.3274 10.2034 24.7649 10.7409 24.2274C11.2785 23.6882 11.841 23.179 12.4301 22.6963C13.0176 22.2137 13.6283 21.7611 14.2607 21.3367C14.8931 20.914 15.5455 20.5229 16.2162 20.1651C16.8868 19.8056 17.5725 19.4811 18.2764 19.1882C18.9787 18.897 19.6943 18.6407 20.4216 18.4193C21.1505 18.198 21.8877 18.0133 22.6333 17.8635C23.3789 17.7154 24.1311 17.6022 24.8883 17.5273C25.6455 17.4524 26.4044 17.4142 27.1649 17.4125ZM27.1649 87.1274C16.5257 87.1274 9.73577 83.6875 9.73577 81.3177C9.73577 79.7667 12.8495 77.5882 18.5826 76.3883C20.9225 78.7049 23.3988 80.865 26.01 82.8721C26.1764 82.9952 26.3578 83.0901 26.5558 83.1566C26.7539 83.2215 26.9569 83.2548 27.1649 83.2548C27.3729 83.2548 27.576 83.2215 27.774 83.1566C27.9704 83.0901 28.1534 82.9952 28.3199 82.8721C30.931 80.865 33.4073 78.7049 35.7472 76.3883C41.4803 77.5882 44.5941 79.7667 44.5941 81.3177C44.5941 83.6875 37.8041 87.1274 27.1649 87.1274Z" fill="#FEC269"/>
<path d="M66.2819 48.7842C66.7429 48.0187 67.3619 47.4196 68.1408 46.9836C68.1624 46.9619 68.189 46.9503 68.219 46.9453L68.239 46.9253C68.5235 46.7489 68.7465 46.5143 68.9096 46.2214C69.0711 45.9285 69.1509 45.6139 69.1476 45.2794C69.1443 44.92 69.0544 44.5838 68.878 44.2709C68.8098 44.1661 68.7332 44.0662 68.6467 43.9747C68.5585 43.8832 68.4653 43.8 68.3621 43.7267C68.2606 43.6535 68.1524 43.5903 68.0376 43.537C67.9228 43.4854 67.8046 43.4438 67.6815 43.4122C67.56 43.3822 67.4352 43.3639 67.3103 43.3573C67.1839 43.3506 67.0591 43.3556 66.9342 43.3723C66.8094 43.3906 66.6863 43.4189 66.5681 43.4588C66.4483 43.5004 66.3335 43.552 66.2236 43.6136C64.6942 44.5422 63.5709 45.6472 62.8736 46.9453C62.8337 47.0185 62.7987 47.0934 62.7687 47.1716C62.7388 47.2498 62.7138 47.3281 62.6939 47.4096C62.6756 47.4912 62.6606 47.5727 62.6523 47.6559C62.6423 47.7375 62.6389 47.8207 62.6406 47.9055C62.6423 47.9887 62.6489 48.0703 62.6622 48.1535C62.6739 48.2367 62.6922 48.3166 62.7155 48.3965C62.7388 48.478 62.7671 48.5562 62.7987 48.6328C62.832 48.7093 62.8703 48.7826 62.9135 48.8541C62.9568 48.9257 63.0034 48.9939 63.055 49.0588C63.1066 49.1254 63.1632 49.187 63.2231 49.2452C63.283 49.3035 63.3462 49.3567 63.4128 49.4066C63.4794 49.4566 63.5493 49.5032 63.6208 49.5431C63.694 49.5847 63.7689 49.6197 63.8471 49.6513C63.9237 49.6829 64.0036 49.7079 64.0835 49.7295C64.165 49.7511 64.2466 49.7661 64.3281 49.7761C64.4113 49.7861 64.4945 49.7911 64.5777 49.7911C64.9322 49.7877 65.2617 49.6979 65.5663 49.5165C65.8708 49.3367 66.1088 49.0921 66.2819 48.7842Z" fill="#FEC269"/>
<path d="M59.6983 79.8066H59.5818C58.3803 79.8066 57.1604 79.8066 55.9805 79.7883H55.9405C55.8157 79.7883 55.6909 79.8016 55.5694 79.8266C55.4463 79.8499 55.3265 79.8865 55.21 79.9348C55.0951 79.9814 54.9836 80.0396 54.8788 80.1095C54.7756 80.1778 54.6774 80.256 54.5875 80.3442C54.4993 80.4324 54.4178 80.5272 54.3479 80.6304C54.2763 80.7336 54.2164 80.8434 54.1648 80.9583C54.1149 81.0731 54.0766 81.1912 54.05 81.3144C54.0234 81.4376 54.0084 81.5607 54.0051 81.6855C54.0018 81.812 54.0117 81.9385 54.035 82.0633C54.0567 82.1881 54.0916 82.3096 54.1382 82.4277C54.1831 82.5442 54.2414 82.6574 54.3096 82.7639C54.3795 82.8704 54.4577 82.9686 54.5459 83.0601C54.6341 83.15 54.7307 83.2316 54.8339 83.3031C54.9387 83.3763 55.0485 83.4363 55.165 83.4862C55.2815 83.5361 55.403 83.5744 55.5262 83.601C55.651 83.626 55.7758 83.6409 55.9023 83.6409C57.1221 83.6809 58.342 83.6809 59.5818 83.6809H59.6783C59.8065 83.6809 59.9313 83.6676 60.0561 83.6426C60.1793 83.6176 60.3007 83.5827 60.4172 83.5328C60.5354 83.4845 60.6469 83.4263 60.7517 83.3564C60.8566 83.2848 60.9548 83.2049 61.0446 83.1167C61.1345 83.0269 61.2144 82.9287 61.2859 82.8238C61.3558 82.719 61.4158 82.6075 61.4657 82.491C61.5139 82.3745 61.5506 82.253 61.5772 82.1299C61.6021 82.005 61.6138 81.8802 61.6155 81.7537C61.6155 81.6256 61.6038 81.5008 61.5805 81.376C61.5555 81.2512 61.5206 81.1313 61.4723 81.0132C61.4241 80.8967 61.3658 80.7852 61.2959 80.6787C61.226 80.5722 61.1478 80.474 61.058 80.3841C60.9697 80.2942 60.8716 80.2127 60.7667 80.1428C60.6619 80.0712 60.552 80.0097 60.4355 79.9614C60.319 79.9115 60.1976 79.8732 60.0744 79.8482C59.9496 79.8216 59.8248 79.8083 59.6983 79.8066Z" fill="#FEC269"/>
<path d="M98.1562 66.0387V66.0187C98.0564 65.7858 97.9182 65.5811 97.7385 65.4013C97.5604 65.2216 97.3541 65.0818 97.1228 64.982C96.8898 64.8804 96.6485 64.8272 96.3955 64.8189C96.1425 64.8105 95.8962 64.8488 95.6583 64.9354C95.5401 64.982 95.4253 65.0385 95.3188 65.1068C95.2106 65.175 95.1107 65.2532 95.0175 65.3414C94.926 65.4296 94.8428 65.5261 94.7696 65.631C94.6964 65.7358 94.6348 65.8473 94.5832 65.9638C94.5316 66.0803 94.4917 66.2018 94.465 66.3266C94.4384 66.4514 94.4234 66.5779 94.4201 66.7061C94.4184 66.8325 94.4284 66.959 94.4501 67.0855C94.4734 67.212 94.5083 67.3335 94.5549 67.4516C94.8245 68.1772 94.9543 68.9261 94.9427 69.6983C94.9477 69.8664 94.941 70.0345 94.9227 70.2025C94.9094 70.329 94.9094 70.4555 94.9194 70.582C94.931 70.7085 94.956 70.8333 94.9909 70.9548C95.0275 71.0779 95.0758 71.1944 95.134 71.3076C95.194 71.4207 95.2622 71.5256 95.3437 71.6254C95.4236 71.7236 95.5118 71.8135 95.61 71.895C95.7082 71.9766 95.813 72.0481 95.9245 72.108C96.036 72.1696 96.1525 72.2179 96.274 72.2562C96.3955 72.2944 96.5203 72.3194 96.6468 72.3327H96.8415C97.0812 72.3344 97.3141 72.2911 97.5405 72.2062C97.7651 72.1197 97.9665 71.9965 98.1462 71.8351C98.326 71.6754 98.4691 71.4873 98.5773 71.271C98.6871 71.0563 98.7537 70.8299 98.777 70.5903C98.7969 70.2991 98.8152 69.9895 98.8152 69.6983C98.8236 68.4684 98.6155 67.2736 98.1962 66.1169C98.1762 66.097 98.1762 66.057 98.1562 66.0387Z" fill="#FEC269"/>
<path d="M91.6309 74.6176C90.664 75.2134 89.6505 75.7177 88.5904 76.1271C88.4739 76.1753 88.3608 76.2352 88.2559 76.3051C88.1494 76.375 88.0512 76.4532 87.9614 76.5431C87.8698 76.6313 87.79 76.7278 87.7184 76.8327C87.6452 76.9375 87.5853 77.049 87.5353 77.1655C87.4837 77.282 87.4455 77.4018 87.4188 77.5266C87.3922 77.6498 87.3772 77.7746 87.3756 77.9028C87.3722 78.0292 87.3822 78.1557 87.4039 78.2805C87.4272 78.4053 87.4604 78.5268 87.5054 78.645C87.5786 78.8247 87.6751 78.9911 87.7966 79.1426C87.9181 79.294 88.0579 79.4238 88.2193 79.532C88.3791 79.6418 88.5522 79.7234 88.7385 79.78C88.9233 79.8382 89.113 79.8665 89.3077 79.8648C89.5557 79.8698 89.7953 79.8249 90.025 79.73C91.3081 79.2325 92.5346 78.62 93.7028 77.8911C93.9808 77.713 94.1988 77.4801 94.3569 77.1905C94.515 76.9026 94.5949 76.593 94.5949 76.2635C94.5932 75.8874 94.4967 75.5396 94.3036 75.2167C94.2337 75.1119 94.1538 75.0137 94.0656 74.9238C93.9774 74.834 93.8809 74.7541 93.7761 74.6825C93.6729 74.611 93.5631 74.5494 93.4466 74.4978C93.3301 74.4479 93.2119 74.4096 93.0888 74.3813C92.9639 74.353 92.8391 74.338 92.7143 74.3347C92.5878 74.3297 92.4614 74.338 92.3365 74.3597C92.2117 74.3797 92.0902 74.4113 91.9721 74.4545C91.8539 74.4978 91.7391 74.5527 91.6309 74.6176Z" fill="#FEC269"/>
<path d="M70.7935 79.4389C69.5553 79.5354 68.3155 79.5937 67.1156 79.6519C66.9875 79.6552 66.861 79.6719 66.7378 79.7018C66.613 79.7301 66.4932 79.7717 66.3767 79.8233C66.2602 79.8766 66.1504 79.9415 66.0472 80.0164C65.944 80.0913 65.8491 80.1745 65.7626 80.2693C65.6761 80.3625 65.5995 80.464 65.5329 80.5722C65.4664 80.682 65.4115 80.7969 65.3682 80.9167C65.3249 81.0365 65.2933 81.1597 65.275 81.2862C65.255 81.4126 65.25 81.5391 65.2567 81.6656C65.26 81.7904 65.2767 81.9119 65.3049 82.0334C65.3332 82.1549 65.3715 82.2714 65.4231 82.3845C65.473 82.4977 65.5346 82.6059 65.6062 82.7074C65.6777 82.8089 65.7576 82.9021 65.8475 82.9886C65.9373 83.0752 66.0339 83.1517 66.1387 83.2183C66.2419 83.2849 66.3517 83.3414 66.4682 83.388C66.5831 83.4346 66.7012 83.4679 66.8227 83.4912C66.9458 83.5145 67.069 83.5262 67.1921 83.5245H67.2704C68.6067 83.4679 69.8848 83.3897 71.0647 83.3131C71.3094 83.2932 71.5407 83.2299 71.762 83.1234C71.9817 83.0169 72.1748 82.8738 72.3428 82.6941C72.5093 82.5143 72.6374 82.3113 72.7273 82.0833C72.8171 81.857 72.8637 81.6207 72.8654 81.376V81.2412C72.8571 81.1131 72.8354 80.9883 72.8022 80.8651C72.7672 80.7436 72.7223 80.6238 72.6657 80.5106C72.6091 80.3975 72.5409 80.2893 72.4627 80.1894C72.3844 80.0879 72.2979 79.9964 72.2014 79.9132C72.1049 79.8283 72.0017 79.7551 71.8918 79.6919C71.782 79.6286 71.6655 79.577 71.544 79.5371C71.4242 79.4955 71.3011 79.4672 71.1746 79.4505C71.0481 79.4339 70.9216 79.4306 70.7935 79.4389Z" fill="#FEC269"/>
<path d="M81.7157 78.0642C80.6506 78.2772 79.489 78.4703 78.1144 78.6833C77.8598 78.7133 77.6234 78.7931 77.4038 78.9246C77.1841 79.0578 77.001 79.2292 76.8546 79.4389C76.6981 79.6436 76.5883 79.8699 76.5251 80.1178C76.4602 80.3675 76.4485 80.6188 76.4868 80.8734C76.5217 81.1031 76.5933 81.3194 76.7065 81.5224C76.818 81.7255 76.9628 81.9035 77.1375 82.055C77.3139 82.2064 77.5119 82.3212 77.7299 82.4011C77.948 82.481 78.1726 82.5193 78.4056 82.5176C78.4955 82.521 78.5853 82.5143 78.6752 82.4993C79.9533 82.3246 81.2331 82.1116 82.4712 81.8603C82.6893 81.8153 82.894 81.7354 83.0853 81.6223C83.2751 81.5075 83.4415 81.366 83.5846 81.1946C83.7261 81.0248 83.8376 80.8351 83.9158 80.6271C83.9923 80.4191 84.0339 80.2044 84.0389 79.9814C84.0373 79.8516 84.0239 79.7218 84.0006 79.5936C83.974 79.4705 83.9374 79.349 83.8875 79.2325C83.8376 79.1143 83.7776 79.0028 83.7061 78.898C83.6345 78.7931 83.5546 78.695 83.4648 78.6051C83.3732 78.5152 83.2767 78.4353 83.1702 78.3638C83.0654 78.2939 82.9539 78.234 82.8357 78.1841C82.7175 78.1341 82.5977 78.0975 82.4729 78.0725C82.3481 78.0459 82.2216 78.0326 82.0951 78.0309C81.967 78.0309 81.8422 78.0409 81.7157 78.0642Z" fill="#FEC269"/>
<path d="M69.1859 58.35C69.4139 58.3533 69.6336 58.3167 69.8483 58.2418C70.0613 58.1669 70.2577 58.0588 70.4324 57.9157C70.6088 57.7709 70.7536 57.6028 70.8701 57.4081C70.9866 57.2134 71.0665 57.0037 71.1081 56.7823C71.1514 56.5593 71.1547 56.3363 71.1181 56.1117C71.0831 55.8887 71.0099 55.6773 70.9001 55.4793C70.7902 55.2812 70.6488 55.1065 70.4774 54.9584C70.306 54.8103 70.1146 54.6938 69.9032 54.6139C68.923 54.2661 68.026 53.7685 67.2122 53.1228C67.114 53.0429 67.0092 52.973 66.8977 52.9131C66.7862 52.8532 66.6697 52.8049 66.5499 52.7683C66.43 52.73 66.3069 52.7051 66.1804 52.6901C66.0556 52.6768 65.9291 52.6734 65.8043 52.6834C65.6778 52.6934 65.5547 52.715 65.4332 52.7483C65.3117 52.7816 65.1935 52.8265 65.0804 52.8815C64.9672 52.938 64.8607 53.0046 64.7592 53.0795C64.6593 53.156 64.5661 53.2409 64.4813 53.3341C64.3997 53.4323 64.3265 53.5355 64.2649 53.647C64.2017 53.7568 64.1518 53.8733 64.1118 53.9931C64.0719 54.1146 64.0452 54.2378 64.0303 54.3643C64.0153 54.4907 64.012 54.6172 64.0219 54.7437C64.0319 54.8718 64.0536 54.995 64.0885 55.1181C64.1235 55.2413 64.1684 55.3578 64.2266 55.4726C64.2849 55.5858 64.3531 55.6923 64.4313 55.7921C64.5096 55.892 64.5978 55.9835 64.6943 56.0651C65.8359 57.002 67.1007 57.7176 68.4903 58.2152C68.7133 58.3067 68.9446 58.3517 69.1859 58.35Z" fill="#FEC269"/>
<path d="M79.8184 60.868C79.9349 60.8846 80.0497 60.8896 80.1662 60.888C80.4075 60.8846 80.6389 60.8397 80.8635 60.7515C81.0865 60.6633 81.2862 60.5368 81.4643 60.3737C81.6407 60.2106 81.7822 60.0209 81.887 59.8046C81.9935 59.5882 82.0568 59.3602 82.0767 59.1206C82.0967 58.8809 82.0734 58.6446 82.0068 58.415C81.9403 58.1836 81.8321 57.9723 81.6873 57.7809C81.5409 57.5895 81.3644 57.4314 81.1597 57.3049C80.9551 57.1801 80.7337 57.0953 80.4974 57.0537L79.5854 56.8972C78.6185 56.7241 77.7265 56.5494 76.8162 56.3946C76.6914 56.3713 76.5666 56.3597 76.4401 56.3597C76.3119 56.3613 76.1871 56.3747 76.0623 56.3996C75.9392 56.4262 75.8177 56.4629 75.7012 56.5128C75.5847 56.561 75.4732 56.621 75.3683 56.6925C75.2635 56.7641 75.1653 56.844 75.0771 56.9338C74.9872 57.0237 74.9074 57.1219 74.8375 57.2267C74.7676 57.3332 74.7077 57.4447 74.6594 57.5629C74.6111 57.6794 74.5745 57.8009 74.5512 57.924C74.5346 58.0405 74.5296 58.157 74.5312 58.2735C74.5263 58.4998 74.5595 58.7212 74.6344 58.9359C74.7077 59.1505 74.8158 59.3469 74.9606 59.5233C75.1037 59.6981 75.2751 59.8445 75.4699 59.9593C75.6662 60.0742 75.8759 60.1507 76.1006 60.1907C77.2223 60.4037 78.3656 60.6167 79.4689 60.8097L79.8184 60.868Z" fill="#FEC269"/>
<path d="M89.2295 43.9432C89.356 43.9415 89.4808 43.9282 89.6056 43.9016C89.7288 43.8766 89.8486 43.84 89.9651 43.7917C90.0832 43.7435 90.1931 43.6836 90.2996 43.6137C90.4044 43.5438 90.5026 43.4655 90.5925 43.3773C90.6823 43.2891 90.7639 43.1926 90.8354 43.0878C90.907 42.9846 90.9686 42.8748 91.0202 42.7583C91.0701 42.6434 91.11 42.5236 91.1383 42.4005C91.1666 42.2773 91.1816 42.1525 91.1866 42.026V41.9877C91.1849 41.8629 91.1716 41.7398 91.145 41.6166C91.12 41.4951 91.0834 41.377 91.0352 41.2621C90.9869 41.1473 90.9286 41.0375 90.8587 40.9343C90.7889 40.8311 90.7106 40.7346 90.6241 40.6464C90.5359 40.5565 90.441 40.4783 90.3379 40.4067C90.2347 40.3369 90.1265 40.2769 90.0117 40.2287C89.8968 40.1788 89.7787 40.1405 89.6572 40.1138C89.5357 40.0872 89.4126 40.0722 89.2877 40.0689C88.3575 40.0306 87.4488 40.0306 86.5385 40.0306H85.4734C85.3453 40.0323 85.2204 40.0456 85.0956 40.0722C84.9708 40.0972 84.851 40.1355 84.7328 40.1854C84.6163 40.2353 84.5048 40.2969 84.4 40.3685C84.2952 40.44 84.1986 40.5216 84.1088 40.6114C84.0206 40.703 83.9407 40.8012 83.8708 40.9077C83.8025 41.0142 83.7426 41.1257 83.696 41.2438C83.6478 41.362 83.6128 41.4835 83.5895 41.6083C83.5662 41.7331 83.5546 41.8596 83.5562 41.9861C83.5579 42.1142 83.5712 42.239 83.5962 42.3638C83.6228 42.4887 83.6611 42.6101 83.711 42.7266C83.7609 42.8431 83.8209 42.9546 83.8924 43.0595C83.9656 43.1643 84.0455 43.2608 84.1371 43.3507C84.2269 43.4389 84.3268 43.5188 84.4333 43.5887C84.5398 43.6586 84.6513 43.7168 84.7694 43.7634C84.8876 43.8117 85.0091 43.8466 85.1339 43.8699C85.2587 43.8932 85.3852 43.9049 85.5117 43.9032C86.7515 43.8849 87.9897 43.9032 89.1912 43.9432H89.2295Z" fill="#FEC269"/>
<path d="M78.2109 44.291C78.4505 44.2677 78.6752 44.1995 78.8898 44.0913C79.1029 43.9815 79.2893 43.8367 79.449 43.6586C79.6088 43.4789 79.7303 43.2775 79.8135 43.0528C79.8984 42.8265 79.9383 42.5952 79.935 42.3555V42.1608C79.92 42.0343 79.895 41.9112 79.8567 41.7897C79.8168 41.6699 79.7685 41.5534 79.707 41.4419C79.6454 41.3304 79.5738 41.2255 79.4923 41.129C79.4124 41.0308 79.3209 40.9426 79.2227 40.8628C79.1245 40.7829 79.018 40.713 78.9065 40.6547C78.795 40.5948 78.6768 40.5466 78.5553 40.5099C78.4339 40.4733 78.3107 40.45 78.1842 40.4367C78.0578 40.4251 77.9313 40.4251 77.8048 40.4367C76.4302 40.5932 75.1321 40.7679 73.9322 40.9992C73.6942 41.0425 73.4745 41.129 73.2682 41.2555C73.0635 41.382 72.8888 41.5401 72.7423 41.7331C72.5975 41.9245 72.491 42.1359 72.4261 42.3672C72.3595 42.5985 72.3362 42.8348 72.3579 43.0745C72.3795 43.3141 72.4444 43.5421 72.5509 43.7585C72.6591 43.9748 72.8005 44.1629 72.9786 44.3259C73.1567 44.489 73.3564 44.6139 73.5811 44.7021C73.8057 44.7886 74.0387 44.8335 74.28 44.8335C74.4032 44.8302 74.5263 44.8169 74.6478 44.7952C75.7512 44.6022 76.9527 44.4275 78.2109 44.291Z" fill="#FEC269"/>
<path d="M91.0318 63.7337C91.2515 63.7337 91.4662 63.6971 91.6759 63.6222C91.8839 63.549 92.0736 63.4425 92.245 63.3027C92.4165 63.1629 92.5612 62.9998 92.6761 62.8118C92.7926 62.6237 92.8724 62.4207 92.919 62.2043C92.9656 61.988 92.974 61.77 92.9473 61.552C92.919 61.3323 92.8541 61.1243 92.7543 60.9262C92.6544 60.7299 92.5263 60.5534 92.3665 60.402C92.2068 60.2489 92.0254 60.1257 91.824 60.0359C90.6324 59.5017 89.4059 59.0623 88.1461 58.7178C88.1095 58.6962 88.0712 58.6846 88.0296 58.6796H88.0097C87.8882 58.6479 87.7634 58.6263 87.6385 58.618C87.5121 58.6097 87.3856 58.613 87.2608 58.628C87.136 58.6446 87.0128 58.6712 86.893 58.7112C86.7732 58.7511 86.6567 58.801 86.5468 58.8626C86.437 58.9259 86.3338 58.9974 86.2373 59.079C86.1408 59.1605 86.0542 59.2504 85.9743 59.3502C85.8961 59.4484 85.8279 59.5549 85.7697 59.6664C85.7114 59.7779 85.6631 59.8944 85.6282 60.0159C85.5899 60.189 85.5699 60.3621 85.5699 60.5385C85.5683 60.7498 85.5999 60.9545 85.6648 61.1542C85.7297 61.3539 85.8262 61.537 85.9527 61.7051C86.0775 61.8732 86.2273 62.0163 86.4004 62.1344C86.5751 62.2543 86.7615 62.3408 86.9645 62.3974C88.0846 62.7036 89.1746 63.0913 90.2364 63.559C90.4893 63.6755 90.7539 63.7337 91.0318 63.7337Z" fill="#FEC269"/>
</svg>
