<svg width="92" height="91" viewBox="0 0 92 91" fill="none" xmlns="http://www.w3.org/2000/svg">
<mask id="mask0_1_547" style="mask-type:luminance" maskUnits="userSpaceOnUse" x="0" y="0" width="92" height="91">
<path d="M0.0534668 0H91.0535V91H0.0534668V0Z" fill="white"/>
</mask>
<g mask="url(#mask0_1_547)">
<path d="M84.2582 21.5554C84.262 21.5477 84.2659 21.54 84.2678 21.5342C84.3218 21.3897 84.2485 21.2279 84.104 21.1739C84.0751 21.1624 84.0462 21.1778 84.0154 21.1759C75.9312 8.47725 61.7394 0.0269165 45.6017 0.0269165C35.2517 0.0269165 25.7031 3.50646 18.0466 9.3481C17.958 9.36351 17.8944 9.41938 17.8558 9.49838C7.05691 17.8293 0.0804749 30.8862 0.0804749 45.55C0.0804749 70.6486 20.5011 91.0674 45.6017 91.0674C70.6983 91.0674 91.119 70.6467 91.119 45.55C91.119 36.7452 88.6009 28.528 84.2582 21.5554ZM83.264 67.9494C80.6727 69.5119 77.5341 70.8741 73.9756 72.0108C74.964 67.6392 75.5632 63.4988 75.8348 59.58C79.6072 58.3315 82.8845 56.8326 85.5221 55.1352C85.6203 58.2332 85.5433 61.2138 85.3525 64.0055C84.7225 65.358 84.027 66.6759 83.264 67.9494ZM27.1558 84.9888C26.127 83.9445 25.1714 82.8771 24.2793 81.7867C27.1057 82.5573 30.4292 83.2991 34.1091 83.8674C35.1592 85.5745 36.3807 87.1871 37.8006 88.6783C34.0764 88.0078 30.5159 86.8673 27.1809 85.3182C27.2406 85.2103 27.2445 85.0793 27.1558 84.9888ZM26.3042 84.9001C23.5453 83.5418 20.9558 81.8984 18.561 80.0161C19.8981 80.4842 21.5184 81.0064 23.3699 81.5304C24.2735 82.6787 25.2504 83.8019 26.3042 84.9001ZM23.6955 81.043C21.5955 78.3572 19.9 75.5424 18.6092 72.6003C22.1677 73.7197 26.1443 74.6079 30.3811 75.2514C31.1787 78.0701 32.2769 80.752 33.7296 83.2413C29.9341 82.6382 26.5431 81.8425 23.6955 81.043ZM4.94144 53.6593C4.94336 57.3316 5.41154 61.2022 6.46157 65.2636C4.21509 60.815 2.70266 55.9405 2.08613 50.7925C2.84716 51.7905 3.80664 52.7461 4.94144 53.6593ZM7.45188 66.7587C6.14175 62.3081 5.54834 58.0907 5.5098 54.1006C7.98749 55.9617 11.2127 57.6167 15.0179 59.0078C15.145 63.441 16.012 67.67 17.6092 71.6833C13.5652 70.3211 10.0991 68.6642 7.45188 66.7587ZM7.92198 39.5446C10.4382 41.19 13.596 42.6543 17.2316 43.8873C15.96 48.0451 15.147 52.3145 15.014 56.6168C14.9986 57.1948 14.9986 57.7708 15.0025 58.3431C11.1626 56.9193 7.92969 55.2392 5.5021 53.3588C5.53678 48.3803 6.44038 43.7679 7.92198 39.5446ZM5.84889 27.0946C6.79103 25.586 7.81794 24.1641 8.9065 22.8174C9.87754 24.4512 11.4824 25.9771 13.6114 27.3527C11.259 30.7398 9.17431 34.5276 7.63684 38.6969C5.70054 37.3463 4.19967 35.8801 3.22286 34.3253C3.88756 31.8187 4.76997 29.4027 5.84889 27.0946ZM7.974 23.0794C8.16089 22.7673 8.35741 22.4629 8.55007 22.1565C8.57127 22.2028 8.59246 22.2471 8.61172 22.2933C8.39979 22.5534 8.18208 22.8116 7.974 23.0794ZM22.7496 8.14971C22.8247 8.13623 22.921 8.12852 23.0867 8.12081C23.4701 8.10155 23.1387 8.27687 23.0867 8.41752C23.0347 8.55817 22.6667 9.01286 22.4394 9.22286C22.212 9.43287 22.054 9.57352 21.896 10.0783C21.74 10.585 21.896 10.4636 22.054 10.165C22.212 9.87022 22.5434 9.62554 23.1214 9.18818C23.6975 8.75083 23.5067 8.97818 23.8034 8.83753C24.1001 8.69689 24.3275 8.55817 24.7128 8.34816C25.0982 8.13815 24.9055 8.20944 25.1849 7.89154C25.4642 7.57942 25.6395 7.6141 25.9709 7.35015C26.3042 7.08812 26.4776 7.05344 26.6183 6.91473C26.7589 6.77601 26.8283 6.72013 26.9882 6.49279C27.1443 6.26544 27.3543 6.23269 27.5469 5.95332C27.7396 5.67203 27.8436 5.67203 28.0016 5.46202C28.0228 5.43505 28.0248 5.41578 28.0363 5.39266C28.886 5.01889 29.7453 4.66439 30.62 4.34649C30.8454 4.76843 31.1671 5.17495 31.5756 5.56221C29.9822 6.27122 28.3157 7.07464 26.6144 7.98017C26.5643 7.99173 26.5104 8.00329 26.4449 8.01485C26.2908 8.04182 26.362 8.03219 26.2426 8.17669C25.6106 8.51771 24.9729 8.87607 24.3352 9.24598C24.1984 9.28452 24.0597 9.41746 23.8555 9.48682C23.6455 9.55425 23.6108 9.62554 23.4008 9.76426C23.3854 9.77389 23.3931 9.79701 23.3815 9.80857C22.0271 10.6216 20.6707 11.4925 19.324 12.4404C19.0099 11.9838 18.7749 11.5117 18.6149 11.0359C19.9366 9.99931 21.3142 9.03212 22.7496 8.14971ZM23.4316 10.4251C23.4547 10.533 23.4682 10.637 23.4354 10.7083C23.3295 10.953 23.4354 10.7083 23.1908 10.743C22.9846 10.7719 22.9133 10.8278 22.6513 10.9087C22.9114 10.7449 23.1734 10.5831 23.4316 10.4251ZM65.6543 7.43685C65.9202 7.70466 66.1707 7.94356 66.3557 8.01485C66.7044 8.15549 66.9818 8.3655 67.2978 8.61019C67.6118 8.8568 69.4325 11.059 69.4325 11.059C69.4325 11.059 69.5385 12.5271 70.6906 12.8411C71.4844 13.0588 71.9988 13.2746 72.3322 13.4673C71.7869 14.026 71.1338 14.5636 70.3747 15.0741C69.6464 14.3304 68.92 13.6272 68.2033 12.9741C65.2883 10.3249 62.3193 8.24219 59.5642 6.59683C60.0574 6.29819 60.4967 5.98222 60.8666 5.65276C62.4946 6.20379 64.1169 6.80105 65.6543 7.43685ZM73.4901 13.7158C74.1201 13.5424 74.0854 13.7524 74.8175 14.2071C75.5535 14.6618 75.4495 14.4518 75.7635 15.2572C76.0795 16.0606 76.1469 15.5018 76.1469 16.55C76.1469 17.6 76.881 18.2628 76.777 18.9641C76.6729 19.6634 77.0756 20.1181 76.7885 20.7135C76.4957 21.3069 76.041 21.5169 76.3242 21.8675C76.6036 22.2182 76.4629 22.1469 77.1295 22.2875C77.7923 22.4263 79.087 22.7422 79.4377 23.0216C79.7864 23.301 79.8924 23.7903 79.717 24.035C79.5417 24.2797 79.4011 24.245 78.5283 24.8404C78.3395 24.9656 78.1815 25.0504 78.0331 25.1294C77.1912 23.694 76.3146 22.3434 75.4129 21.0834C75.6094 20.9697 75.7809 20.8194 75.8445 20.621C75.9157 20.411 75.7057 20.5497 75.8445 20.1779C75.9851 19.8041 75.8695 20.1066 75.9851 19.8041C76.1026 19.5016 76.1238 19.3629 76.1238 19.3629C76.1238 19.3629 76.3107 19.1972 76.3569 19.1047C76.4051 19.0103 76.4244 18.966 76.3569 18.6616C76.2876 18.3572 76.3569 18.4496 76.1469 18.2184C75.9369 17.9853 75.8194 17.8928 75.6344 17.8215C75.4495 17.7522 75.3531 17.7059 75.2356 17.6828C75.122 17.6597 75.122 17.7522 74.9119 17.6135C74.7019 17.4728 74.6441 17.4015 74.3937 17.3322C74.1413 17.2628 74.1663 17.2859 73.8619 17.1472C73.5556 17.0066 73.4419 16.9353 73.3244 16.889C73.2088 16.8428 73.5344 17.1222 73.2088 16.8428C72.8832 16.5634 72.9776 16.679 72.8832 16.5634C72.7888 16.4459 72.8581 16.6328 72.65 16.2821C72.4381 15.9334 72.4381 15.9334 72.4381 15.9334L72.1356 15.7697C72.1356 15.7697 72.23 15.6329 71.9969 15.6772C71.9006 15.6945 71.7869 15.7697 71.6463 15.6772C71.5075 15.5847 71.4363 15.3477 71.365 15.444C71.3072 15.525 71.0567 15.5982 71.1222 15.8564C70.995 15.7234 70.8717 15.5885 70.7465 15.4595C71.5268 14.9316 72.2011 14.3748 72.7656 13.7968C72.9236 13.9413 72.9429 13.87 73.4901 13.7158ZM81.1177 23.4763C80.9751 23.1622 80.9751 22.4263 81.6052 22.3916C82.0502 22.3685 82.6398 22.669 82.9577 22.8501C82.5434 23.4801 82.031 24.0928 81.4241 24.6862C81.3759 23.8925 81.2468 23.773 81.1177 23.4763ZM81.7169 34.2945C81.7593 34.6914 81.6745 35.1499 81.6745 35.4389C81.6745 35.7549 81.3258 36.1383 81.1871 36.8049C81.0445 37.4677 80.7651 37.119 80.7651 38.4484C80.7651 39.1092 80.7247 40.1188 80.796 41.1033C79.0735 41.9414 77.17 42.7178 75.1008 43.4172C74.3147 38.7701 73.0778 34.5835 71.5865 30.8496C74.2627 29.9113 76.6093 28.8266 78.5533 27.6167C78.7614 27.898 78.929 28.1716 79.0157 28.5145C79.1236 28.9345 79.2604 29.1792 79.507 29.3199C79.5629 29.3507 79.6111 29.3622 79.6631 29.368C80.4357 30.9922 81.1196 32.6376 81.7169 34.2945ZM60.3175 57.1736C60.2462 57.1485 60.1846 57.1293 60.0959 57.0927C59.5006 56.846 59.3599 57.2661 59.3599 56.9539C59.3599 56.636 59.3599 56.7439 59.1846 56.4973C59.0093 56.2526 58.6953 56.1813 58.2406 56.006C57.7839 55.8307 57.9593 55.9713 57.7839 55.9713C57.6105 55.9713 57.4005 56.0754 57.0152 55.7613C56.6299 55.4473 57.0152 55.7613 56.9805 55.6592C56.9458 55.5533 57.1558 55.3413 57.1558 55.3413C57.1558 55.3413 57.1558 55.3413 56.9458 55.3413C56.7358 55.3413 56.6665 55.2026 56.5258 55.062C56.3871 54.9213 56.1424 54.7113 55.8284 54.7113C55.5124 54.7113 55.6511 54.7807 55.3718 54.8886C55.0924 54.9926 54.079 54.9926 54.079 54.9926C54.079 54.9926 53.7283 54.9926 53.449 54.9926C53.1677 54.9926 53.237 54.9926 52.9923 54.9926C52.7477 54.9926 52.293 54.8886 52.293 54.8886C52.293 54.8886 52.083 54.7479 51.6995 54.6092C51.3142 54.4705 51.5242 54.3992 51.1736 54.3645C50.8248 54.3298 50.8595 54.6092 50.6842 54.8539C50.5089 55.0986 50.6842 54.8539 50.4395 54.9926C50.1948 55.1332 50.2642 55.3779 50.3008 55.482C50.3335 55.5879 50.3008 55.902 50.3008 55.902C50.3008 55.902 49.9501 56.0426 49.7401 55.9367C49.5301 55.8307 49.8442 55.0292 49.8442 54.746C49.8442 54.4705 49.8442 54.746 49.8789 54.5032C49.9155 54.2585 50.1948 54.1545 50.1582 54.0466C50.1255 53.9426 49.5995 54.3279 49.4608 54.3626C49.3201 54.3992 48.9001 54.6786 48.3761 55.062C47.8501 55.4473 48.0601 55.2354 47.7788 55.3066C47.5014 55.376 47.5014 55.376 47.2567 55.7267C47.0101 56.0754 47.116 55.9713 47.0101 56.0407C46.906 56.1101 46.5207 56.952 46.5207 56.952L46.066 56.8133C46.066 56.8133 46.066 56.8133 45.7866 56.5301C45.5073 56.2526 45.7866 55.7613 45.6017 55.5513C45.5593 55.507 45.4668 55.507 45.3493 55.5301C45.3358 53.7403 45.33 51.9408 45.3319 50.1355C45.3917 50.1567 45.4687 50.1798 45.6017 50.2164C46.066 50.3416 45.7866 50.3031 46.066 50.3416C46.3473 50.3763 46.2066 50.6191 46.59 50.3416C46.9754 50.0603 46.9754 50.2357 46.9754 50.0603C46.9754 49.885 46.5207 49.569 46.224 49.7116C45.8579 49.8831 45.436 49.6076 45.3339 49.7116C45.3339 49.1972 45.3358 48.6828 45.3358 48.1684C45.4148 48.1703 45.4938 48.1703 45.5708 48.1703C45.5342 48.2223 45.4957 48.2666 45.5997 48.3475C45.7847 48.4882 45.0256 48.3822 45.6152 48.6963C46.2066 49.0122 46.17 49.0122 46.59 48.9756C47.0101 48.941 47.0101 49.1471 47.3973 48.993C47.7788 48.8369 48.1294 48.625 48.1294 48.625C48.1294 48.625 48.5822 48.5576 47.9541 48.3822C47.4994 48.2531 47.1931 48.2531 46.9253 48.1741C51.6629 48.1452 56.2542 47.8235 60.5757 47.2436C60.6354 50.3628 60.5583 53.6767 60.3175 57.1736ZM40.3997 51.3917C40.1203 51.3204 38.5462 51.3204 38.1975 51.3204C37.8469 51.3204 38.2669 50.4784 38.3016 50.305C38.3382 50.1316 38.4422 49.8157 38.5135 49.6076C38.5848 49.3976 38.6869 49.2222 38.7909 48.9776C38.8969 48.7348 38.8603 48.7676 38.9682 48.5229C39.0722 48.2782 39.1435 48.2088 39.1763 48.0335C39.184 48.0007 39.1897 47.9738 39.1975 47.9487C41.0278 48.0663 42.8928 48.1414 44.7809 48.1645C44.7694 50.6904 44.7751 53.2162 44.7944 55.7189C44.4418 55.8654 44.07 56.0426 43.9004 56.0773C43.5517 56.1467 43.3398 56.112 43.0951 56.0773C42.8504 56.0426 42.361 55.7633 42.2204 55.6226C42.0817 55.482 41.8717 55.3066 41.8717 55.3066C41.8717 55.3066 41.6597 54.9926 41.5576 54.8519C41.4497 54.7113 41.4883 54.6439 41.417 54.5379C41.3476 54.4319 41.4497 53.6979 41.4497 53.4551C41.4497 53.2085 41.6963 52.9985 41.6617 52.8598C41.625 52.7191 40.681 51.4591 40.3997 51.3917ZM36.6234 49.1856C36.4462 49.3263 36.2381 49.361 35.7834 49.361C35.3287 49.361 35.0474 49.361 34.7681 49.3282C34.4906 49.2916 34.3847 49.2569 34.2093 49.1856C34.034 49.1182 33.4387 49.0469 33.0533 48.7329C32.6699 48.4169 33.0533 48.7329 32.9146 48.3822C32.774 48.0335 32.6699 47.8909 32.3886 47.6135C32.2653 47.4883 32.1594 47.363 32.0765 47.2455C33.9068 47.4921 35.7873 47.6906 37.7062 47.8408C37.4769 47.9507 37.6041 47.995 37.3922 48.1009C37.1109 48.2397 37.1822 48.3803 36.7968 49.045C36.4115 49.7116 36.7968 49.0469 36.6234 49.1856ZM75.3763 20.9716C75.3763 20.9716 75.3647 20.987 75.3551 21.0005C74.9659 20.463 74.5729 19.937 74.1779 19.4322C74.1451 19.2839 74.1278 19.2242 73.9602 19.1529C73.4438 18.4978 72.9198 17.8659 72.3957 17.2628C72.7001 17.3476 72.7213 17.3033 72.8601 17.4015C73.0238 17.5191 73.072 17.7753 73.2358 17.8697C73.3976 17.9622 73.677 17.9622 73.9101 18.0084C74.1451 18.0547 74.1451 18.1221 74.2376 18.2184C74.332 18.3128 74.3879 18.5209 74.3956 18.5922C74.3995 18.6616 74.4476 18.8812 74.517 18.9583C74.5863 19.0334 74.5189 19.1047 74.7039 19.2685C74.8888 19.4322 74.8426 19.4476 75.1008 19.5093C75.3589 19.5729 75.3589 19.5729 75.3589 19.5729C75.3589 19.5729 75.4052 19.6403 75.3589 19.9216C75.3088 20.2029 75.3763 20.9716 75.3763 20.9716ZM72.65 18.4207C72.5248 18.6192 72.3842 18.8157 72.4882 18.9583C72.6289 19.1509 72.5113 19.2916 72.7676 19.4785C73.0238 19.6634 72.9795 19.6634 73.0932 19.806C73.2107 19.9447 73.0026 20.1779 73.2338 20.411C73.4669 20.6441 73.4438 20.9023 73.7675 20.7616C74.095 20.6229 73.912 20.9023 74.1085 20.4803C74.1336 20.4245 74.1644 20.3821 74.1895 20.3493C75.4283 21.9851 76.5477 23.6632 77.5495 25.3721C77.3183 25.4897 77.2143 25.586 77.2644 25.821C77.3492 26.1794 77.8366 26.7478 78.1796 27.1466C76.2779 28.3141 73.9756 29.3661 71.3592 30.2793C69.7369 26.3355 67.843 22.906 65.9144 19.989C65.5387 19.4187 65.1573 18.8677 64.7739 18.3263C66.9028 17.5923 68.7486 16.7311 70.2706 15.7754C71.1049 16.6405 71.9006 17.5229 72.65 18.4207ZM39.026 47.3784C39.0241 47.3784 39.0202 47.3784 39.0183 47.3784C36.5791 47.2166 34.1997 46.9758 31.9012 46.6636C31.9012 46.6502 31.9012 46.6405 31.9012 46.5981C31.9012 46.4922 31.9012 46.1068 31.9012 45.76C31.9012 45.4094 31.9706 45.1975 31.9012 44.8487C31.8318 44.5 32.0399 44.5347 32.1112 44.3594C32.1786 44.184 32.2865 44.2553 32.6699 43.974C33.0533 43.6947 32.6699 43.4481 32.5986 43.3459C32.5312 43.24 32.5659 43.1359 32.5659 42.9606C32.5659 42.7834 32.7412 42.82 32.7412 42.7159C32.7412 42.61 33.93 41.9799 34.56 41.7699C35.1881 41.5618 34.8047 41.6312 35.1881 41.5965C35.5734 41.5618 35.6447 41.7372 36.4211 42.1206C37.1957 42.5059 36.7968 42.1553 37.0781 42.1206C37.3575 42.084 37.5675 42.1206 37.8122 42.1206C38.0569 42.1206 38.1609 41.9799 38.1956 41.8759C38.2322 41.7699 37.9856 41.6312 37.9856 41.5272C37.9856 41.4212 38.4422 41.4925 38.6503 41.4925C38.8584 41.4925 39.1416 41.4925 39.525 41.4925C39.9084 41.4925 40.0856 41.5272 40.259 41.7006C40.4344 41.8778 40.575 41.9799 40.9931 42.1919C41.4131 42.4019 41.2725 42.2265 41.5172 42.2265C41.7638 42.2265 41.7638 42.2265 42.0084 42.2265C42.2531 42.2265 42.1472 42.5059 42.1838 42.82C42.2185 43.1359 42.3225 43.3459 42.3225 43.3459C42.3225 43.3459 42.3225 43.3459 42.3225 43.764C42.3225 44.184 42.4265 44.08 42.5344 44.1494C42.6385 44.2187 43.1625 45.236 43.5825 45.1647C44.0025 45.0953 43.7925 45.0241 43.9332 44.8141C44.0719 44.604 44.1066 44.0087 44.1066 44.0087C44.1066 44.0087 43.8619 43.6947 43.7925 43.554C43.7232 43.4153 43.5825 42.9606 43.5498 42.7487C43.5132 42.5387 43.4785 42.2246 43.4091 42.1206C43.3378 42.0146 43.4091 41.5252 43.3745 41.1418C43.3378 40.7565 43.5132 40.7199 43.5498 40.5812C43.5845 40.4425 43.8638 40.2325 43.9351 40.1265C44.0045 40.0205 44.3185 39.8124 44.4572 39.6005C44.5497 39.4676 44.7038 39.3828 44.8715 39.2999C44.8291 41.9086 44.8002 44.5559 44.7867 47.2166C44.4707 47.076 44.0045 46.8332 44.0045 46.8332C44.0045 46.8332 43.6538 46.5288 43.3764 46.4594C43.0951 46.3881 42.7117 46.4594 42.361 46.4594C42.0123 46.4594 41.2416 46.5827 41.1376 46.8332C41.0336 47.0875 40.891 47.4035 40.891 47.4035C40.891 47.4035 41.0316 47.4035 41.2416 47.4035C41.4497 47.4035 41.4497 47.2975 41.6597 47.2282C41.8717 47.1569 41.837 46.812 42.1163 46.9141C42.3957 47.0162 42.781 46.7754 43.0257 46.9141C43.2685 47.0509 43.6538 47.4035 43.6538 47.4035C43.6538 47.4035 43.7232 47.2282 43.8311 47.4035C43.8677 47.4651 43.9736 47.5306 44.0989 47.5942C42.3822 47.5634 40.6925 47.4883 39.026 47.3784ZM35.6659 12.9818C36.2381 12.9124 36.1687 12.7024 36.7255 12.5271C37.2881 12.3537 37.3209 12.1071 37.5675 12.2477C37.8122 12.3864 37.4962 12.6677 37.8469 12.739C38.1956 12.8084 38.2669 13.1109 38.6503 13.0126C39.0375 12.9124 38.7196 13.1571 39.0375 12.9124C39.3516 12.6677 39.4556 13.0165 39.3516 12.6677C39.2456 12.319 38.8584 12.1071 38.7909 11.793C38.7196 11.479 38.5828 11.7834 38.6503 11.3518C38.7196 10.9203 38.6869 10.849 38.7562 10.639C38.8256 10.429 38.8256 10.3596 38.8256 10.1496C38.8256 9.93958 38.9296 10.0109 38.3709 9.93958C38.3343 9.93573 38.2977 9.93765 38.263 9.93765C38.5096 9.65444 38.7505 9.38663 38.9913 9.11882C39.5096 8.97432 39.0587 9.09378 39.5597 8.96084C39.6907 8.92616 39.762 8.9146 39.8082 8.91267C39.8275 8.91652 39.8487 8.92231 39.8699 8.92616C39.8795 8.93194 39.8872 8.93386 39.8988 8.93001C40.2147 8.98588 40.5423 9.0302 40.8679 9.07836C40.8505 9.15158 40.943 9.1246 41.0509 9.23057C41.1704 9.34424 40.8891 9.30956 41.1704 9.34424C41.4478 9.37892 41.1357 9.34424 41.4478 9.37892C41.7638 9.41553 41.6944 9.55425 41.9044 9.37892C41.9275 9.35966 41.9429 9.3481 41.9622 9.33268C41.5441 10.2671 41.0991 11.2882 40.6424 12.3556C40.4825 12.5329 40.5114 12.5078 40.5615 12.5464C40.2918 13.1725 40.024 13.8218 39.7466 14.4884C39.6232 14.4961 39.7003 14.3459 39.7003 14.3459C39.7003 14.3459 39.7003 13.9971 39.4903 13.8912C39.2822 13.7871 39.4903 13.8912 39.1763 13.9605C38.8603 14.0318 38.9682 13.9952 38.7909 13.9258C38.6175 13.8546 38.3382 13.7871 38.0203 13.6118C37.7062 13.4365 37.8122 13.5424 37.6041 13.4365C37.3941 13.3305 37.3575 13.2592 37.1822 13.0165C37.0088 12.7718 36.7641 13.2611 36.6581 13.3305C36.5541 13.4018 35.7834 13.6118 35.7834 13.6118C35.7834 13.6118 35.7834 13.6118 35.7834 13.4711C35.7834 13.3324 35.5407 13.3324 35.5407 13.3324C35.5407 13.3324 35.4655 13.3498 35.3518 13.3652C35.4559 13.238 35.5618 13.1089 35.6659 12.9818ZM43.6904 7.21143C43.6519 7.5274 43.8638 7.63144 43.9679 7.64878C44.0738 7.66612 44.0738 8.01677 44.0738 8.01677C44.0738 8.01677 43.3378 8.43486 43.2666 8.33082C43.2415 8.29036 43.1702 8.24219 43.0893 8.19403C43.2781 7.77787 43.4631 7.37712 43.6423 6.99565C43.6712 7.07079 43.6962 7.14014 43.6904 7.21143ZM46.8713 6.33673C46.9773 6.26544 47.2201 5.63735 47.2567 5.46202C47.2914 5.2867 47.2567 5.00926 47.2567 4.79733C47.2567 4.58732 46.9407 4.51796 46.6941 4.4486C46.6517 4.43704 46.6151 4.44089 46.5785 4.44282C46.6286 3.41206 46.669 2.61635 46.6941 2.10193C47.0891 2.57011 47.721 3.36582 48.5032 4.48713C48.4127 4.54493 48.3125 4.61815 48.2585 4.67017C48.1872 4.73953 47.7692 4.85705 47.7441 4.94953C47.721 5.04201 47.6497 5.25202 47.6497 5.25202C47.6497 5.25202 47.8366 5.4389 47.6497 5.55643C47.4647 5.67203 47.3954 6.18645 47.4859 6.27893C47.5803 6.37141 47.6516 6.41765 47.6035 6.53517C47.5572 6.6527 47.2779 6.90702 47.2085 6.95519C47.1372 7.00143 46.881 7.21143 46.8579 7.39832C46.8347 7.5852 46.9523 7.86457 47.0235 8.02833C47.091 8.19017 47.2528 7.98017 47.2316 8.37706C47.2201 8.56973 47.247 8.75469 47.3222 8.87414C47.0043 8.88184 46.6864 8.89148 46.3666 8.89148C46.4051 8.07265 46.4378 7.3174 46.4706 6.61802C46.5727 6.51591 46.7866 6.3926 46.8713 6.33673ZM46.224 23.3376C46.2837 23.5977 46.0564 23.7268 45.7963 23.8404C45.8175 23.1584 45.8406 22.4841 45.8618 21.8232C46.0833 21.9427 46.0448 22.0082 46.224 22.4976C46.4166 23.0216 46.1354 22.9522 46.224 23.3376ZM42.8485 8.71808C42.8677 8.72771 42.8812 8.73157 42.8966 8.73927C42.8774 8.73735 42.862 8.73542 42.8446 8.73157C42.8446 8.72771 42.8465 8.72193 42.8485 8.71808ZM45.7808 9.4425C45.7674 9.7604 45.7558 10.0841 45.7385 10.4174C45.6922 10.3866 45.6498 10.3557 45.6017 10.323C45.3801 10.1843 44.8406 10.1477 44.4226 10.1477C44.0045 10.1477 43.4438 10.5677 43.1644 10.743C42.8832 10.9183 43.1644 10.743 42.7791 11.6177C42.3938 12.4924 42.8832 11.8971 42.9544 12.2458C43.0238 12.5964 42.9544 12.2458 43.0238 12.4211C43.0951 12.5964 43.3745 12.7024 43.5498 13.0511C43.7232 13.4018 43.5845 13.2958 43.5498 13.6118C43.5151 13.9258 43.4091 13.9952 43.1991 14.3092C42.9891 14.6252 43.0604 14.5559 42.781 14.6599C42.4997 14.7639 42.6057 14.6252 42.6057 14.6252C42.6057 14.6252 42.6751 13.8546 42.6404 13.7505C42.6057 13.6465 42.6404 13.4018 42.4997 13.4711C42.361 13.5405 42.1857 13.6812 42.0817 13.5058C41.9757 13.3305 42.0123 13.2592 42.0123 13.2592C42.0123 13.2592 41.6617 13.0492 41.5904 12.9471C41.521 12.8411 41.6617 12.6311 41.6617 12.6311C41.6617 12.6311 41.8736 12.3171 41.8736 12.2111C41.8736 12.1071 41.8736 11.8624 41.8736 11.8624L41.8023 11.4077V11.0821C41.8273 11.0224 41.8543 10.9588 41.8794 10.901L42.1163 10.743L42.6423 10.533L42.7483 10.0783L42.9564 9.76426C42.9564 9.76426 43.8311 9.79701 43.9698 9.79701C44.1085 9.79701 44.9139 9.83362 45.0564 9.83362C45.1874 9.83362 45.2529 9.48104 45.2607 9.43094C45.4321 9.43672 45.6074 9.44058 45.7808 9.4425ZM46.224 12.949C46.38 13.0165 46.4513 13.2611 46.59 13.6484C46.7326 14.0318 46.6613 13.9624 46.7654 13.9624C46.8713 13.9624 47.0813 14.2071 47.0813 14.2071C47.0813 14.2071 47.6054 14.6618 47.6054 14.9412C47.6054 15.2206 47.5014 15.2206 47.326 15.3612C47.1507 15.4999 47.0813 15.7099 47.0467 15.9199C47.012 16.1299 47.1873 16.4806 46.9773 16.5153C46.7654 16.55 46.7654 16.55 46.2259 16.55C46.1546 16.55 46.0968 16.5538 46.0525 16.5615C46.0968 15.2899 46.1469 14.0761 46.1951 12.9317C46.2009 12.9355 46.2182 12.9452 46.224 12.949ZM38.658 20.1181C38.6561 20.0854 38.6503 20.0623 38.6503 20.0141C38.6503 19.6634 38.8275 19.4534 38.9296 19.07C39.0375 18.6866 39.1416 18.8253 39.8776 18.2628C40.6097 17.7059 40.2956 18.0894 40.575 18.02C40.8544 17.9506 40.785 17.9853 40.9603 17.6C41.1357 17.2166 41.415 17.39 41.835 17.18C42.2531 16.9719 41.835 17.18 42.2531 16.9719C42.6731 16.7619 42.2531 16.9719 42.2185 16.5866C42.1838 16.2012 41.9391 16.3072 42.3938 16.3072C42.8485 16.3072 42.7444 16.1319 42.7444 16.1319C42.7444 16.1319 42.7444 16.1319 42.8832 15.8872C43.0238 15.6406 43.1278 15.9565 43.2338 15.9565C43.3378 15.9565 43.5498 15.9565 43.8638 15.7812C44.1759 15.6059 44.3879 15.5018 44.5613 15.3612C44.7385 15.2225 44.7732 15.1859 44.8406 14.8372C44.9119 14.4884 44.7019 14.5212 44.6672 14.2784C44.6306 14.0318 44.7713 13.9971 44.7366 13.7871C44.7019 13.5771 44.7019 13.4711 44.7019 13.4711C44.7019 13.4711 44.7019 13.2958 44.806 13.0511C44.91 12.8084 44.9813 13.0165 45.1913 12.9124C45.3994 12.8084 45.5053 12.8777 45.5997 12.739C45.6074 12.7255 45.6286 12.7313 45.6402 12.7255C45.5439 15.0626 45.4437 17.6867 45.3454 20.5266C43.0334 20.4958 40.7947 20.357 38.658 20.1181ZM43.1259 9.33076C43.1221 9.58122 43.0527 9.55425 42.8485 9.55425C42.6828 9.55425 42.5672 9.61205 42.4111 9.69875C42.4708 9.55618 42.5364 9.42131 42.598 9.28066C42.7753 9.29608 42.9467 9.31727 43.1259 9.33076ZM40.8409 13.3151C40.8968 13.3652 40.9469 13.4133 40.9603 13.5078C40.995 13.7524 40.9603 13.5078 40.8563 13.6831C40.7523 13.8565 40.7137 13.9258 40.5153 14.0973C40.6232 13.8334 40.7311 13.5713 40.8409 13.3151ZM45.3281 21.0853C45.2953 22.0737 45.2626 23.0852 45.2279 24.1179C45.068 24.2315 45.0352 24.351 44.9832 24.665C44.9119 25.0831 45.1585 24.9097 45.1239 25.5397C45.0873 26.1678 45.0873 25.8538 44.8079 26.2044C44.5266 26.5532 44.3879 26.3778 44.1759 26.3432C43.9679 26.3085 43.7598 25.6419 43.6885 25.1872C43.6191 24.7344 43.7579 24.7344 43.7212 24.2797C43.6885 23.825 43.5479 23.8597 43.1972 23.615C42.8485 23.3684 42.7444 23.4763 42.3919 23.3684C42.0431 23.2663 42.0084 23.299 41.5538 23.091C41.0991 22.881 41.4844 22.8097 41.2378 22.5303C40.9931 22.2509 40.7484 22.1797 40.4324 22.0063C40.1184 21.8309 39.8756 21.6903 39.6637 21.6209C39.4537 21.5516 39.419 21.3416 39.3824 20.9909C39.3728 20.8811 39.3362 20.8059 39.2899 20.7424C41.2339 20.9408 43.2531 21.0583 45.3281 21.0853ZM39.5943 28.8632C39.7369 28.8632 40.155 28.5492 40.7157 28.1851C40.7157 28.1851 40.7157 28.1851 40.9257 28.3026C41.1357 28.422 40.9257 28.3026 40.891 28.4085C40.8563 28.5126 41.0663 28.5126 41.2397 28.7919C41.417 29.0732 42.3244 29.6667 42.2531 29.842C42.1838 30.0173 42.2531 29.842 41.0644 30.0173C39.8776 30.1926 41.0644 30.0173 40.7157 29.9826C40.365 29.9479 40.365 29.7033 40.155 29.6339C39.945 29.5626 39.9797 29.3873 39.5597 29.3526C39.1416 29.3179 39.5597 29.3526 39.1763 29.3873C38.7909 29.4239 39.0009 29.4586 38.6869 29.3873C38.3728 29.3179 38.3728 29.2139 38.3728 29.2139C38.3728 29.2139 39.4556 28.8632 39.5943 28.8632ZM51.5261 20.3358C51.4125 20.1432 51.3084 19.9736 51.1716 19.8388C50.9636 19.6288 51.1716 19.8388 50.9289 20.1894C50.6842 20.5381 50.9289 20.1894 50.9828 20.3281C50.9886 20.3397 50.9828 20.357 50.9771 20.3705C50.4858 20.4052 49.9848 20.4302 49.4839 20.4534C49.3394 20.3744 49.1891 20.2665 49.0408 20.1181C48.7595 19.8368 49.0061 19.7675 48.9348 19.4187C48.8674 19.07 48.9001 19.2434 48.6535 19.1394C48.4107 19.0334 48.3414 19.0334 48.2373 18.8581C48.1314 18.6847 47.8501 18.6134 47.642 18.544C47.4301 18.4747 47.1873 18.4747 46.6613 18.4053C46.1373 18.334 46.382 18.5094 46.2259 18.7194C46.1392 18.835 46.0371 19.0161 45.9504 19.2935C45.9716 18.7367 45.9889 18.1915 46.0101 17.6559C46.0795 17.6501 46.1527 17.6327 46.224 17.6C46.4513 17.494 46.7326 17.18 46.7326 17.18C46.7326 17.18 47.0813 17.3553 47.4647 17.7059C47.8482 18.0547 48.0967 18.2628 48.3395 18.5787C48.5822 18.8947 48.7961 19.0353 49.4935 18.7194C50.1929 18.4053 49.7055 18.6847 50.1929 18.5787C50.6842 18.4747 50.3316 18.2628 50.1929 18.0894C50.0542 17.914 49.8095 17.8793 49.4588 17.7406C49.1082 17.6 49.1448 17.494 49.4588 17.5287C49.7729 17.5653 50.1582 17.5653 50.6129 17.4247C51.0695 17.2859 50.7882 17.0413 50.7882 17.0413C50.7882 17.0413 50.2295 16.8293 49.6708 16.3766C49.1082 15.9219 49.3182 15.9912 49.2508 15.7812C49.1795 15.5712 49.7055 15.6772 49.8442 15.6772C49.9829 15.6772 50.1582 15.9219 50.5089 16.2378C50.8576 16.5519 50.717 16.1685 50.717 16.0606C50.717 15.9565 50.5782 15.3631 50.4395 14.9759C50.3008 14.5925 49.8095 14.8025 49.6342 14.6984C49.4588 14.5925 48.7595 13.9624 48.6901 13.8565C48.6207 13.7524 48.5841 12.4577 48.3414 12.2843C48.0967 12.1071 47.7788 12.0377 47.5707 11.8643C47.3588 11.689 47.0813 11.5137 46.8713 11.3403C46.6825 11.1804 46.4648 10.9472 46.2837 10.7989C46.303 10.3365 46.3222 9.88564 46.3415 9.45406C47.5669 9.45214 48.7575 9.38856 49.9097 9.28066C50.1679 9.53306 50.428 9.80472 50.6129 9.96463C50.9154 10.2209 51.268 10.2652 51.3123 10.9434C51.3605 11.6196 51.5705 11.5503 51.8941 11.5503C52.2217 11.5503 52.4779 11.689 52.5492 11.7352C52.6166 11.7834 52.3874 11.9934 52.3161 12.1552C52.2467 12.319 51.9885 12.5059 52.2217 12.8777C52.4548 13.2515 52.0367 13.4846 52.5608 13.4133C52.9365 13.3633 53.16 13.0877 53.3006 12.9432C53.3603 13.0723 53.4201 13.2053 53.4798 13.3363C53.4663 13.4673 53.4509 13.606 53.4335 13.7409C53.3873 14.1378 53.0039 14.7909 53.4991 15.2109C53.9942 15.6309 54.0867 15.8178 54.4816 16.0028C54.5568 16.0375 54.6127 16.0741 54.6705 16.1087C55.1425 17.2782 55.6049 18.5209 56.0519 19.833C54.5953 20.0507 53.0829 20.2183 51.5261 20.3358ZM47.9329 8.85295C48.2855 8.65643 48.6593 8.38862 48.9348 8.44835C49.2142 8.50615 49.1371 8.57551 49.3394 8.76625C48.8751 8.80478 48.4069 8.8356 47.9329 8.85295ZM55.7436 17.311C56.0056 17.5383 56.0403 17.6366 56.4218 17.7753C56.863 17.9391 56.6992 18.0778 56.9555 18.2878C57.2117 18.4997 57.4005 18.4747 57.7955 18.4747C58.1924 18.4747 58.3562 18.8485 58.5662 18.8928C58.7742 18.9409 58.8475 19.0103 59.0093 18.8928C59.1731 18.7772 59.1731 19.0585 59.1731 18.6134C59.1731 18.1703 59.2675 18.4284 59.1731 17.914C59.0787 17.4015 58.7299 16.0953 58.4024 15.5134C58.0749 14.9316 58.2386 14.9547 58.5199 14.6984C58.7993 14.4403 59.1018 14.5115 59.1018 14.0684C59.1018 13.6234 58.8436 13.5328 59.1018 12.949C59.2039 12.714 59.3137 12.6292 59.3985 12.5541C60.8974 14.1994 62.4176 16.0182 63.8895 18.0489C61.7066 18.7502 59.2598 19.3243 56.6183 19.7424C56.3312 18.9024 56.0403 18.0932 55.7436 17.311ZM45.8078 8.88185C45.0217 8.87414 44.2492 8.84331 43.4939 8.78744C43.3629 8.58899 44.0835 8.67377 44.2472 8.57551C44.4226 8.46954 45.016 8.67955 45.016 8.67955C45.016 8.67955 45.3339 8.74891 45.6017 8.71423C45.723 8.69689 45.7597 8.7123 45.7712 8.73157C45.7828 8.69689 45.802 8.64101 45.8213 8.58129C45.8175 8.6834 45.8117 8.77973 45.8078 8.88185ZM43.0566 6.92821C42.8215 6.79913 42.6886 6.69123 42.5267 6.68931C42.3244 6.68738 42.5691 6.75674 42.3244 6.68738C42.0797 6.61802 41.8004 6.68931 41.8004 6.68931C41.6597 6.86271 41.7291 6.6527 41.6597 6.86271C41.5884 7.07271 41.5884 7.44841 41.7291 7.43685C41.8697 7.42144 41.6597 7.3174 41.8697 7.42144C42.0797 7.5274 41.9025 7.5274 42.0797 7.5274C42.2531 7.5274 42.2319 7.41566 42.3668 7.43685C42.4978 7.45612 42.2204 7.28272 42.4978 7.45612C42.6211 7.53126 42.6905 7.56786 42.7502 7.59098C42.5961 7.92429 42.4342 8.28651 42.2743 8.63909C42.2685 8.63716 42.2608 8.62945 42.2608 8.62945C42.2608 8.62945 42.2454 8.64872 42.23 8.67184C42.1568 8.66221 42.0836 8.65643 42.0104 8.64872C42.0104 8.64101 42.0084 8.63716 42.0104 8.62945C42.0451 8.22485 42.0451 8.22485 42.0451 8.22485L41.9044 8.04567C41.9044 8.04567 41.8061 8.00907 41.6116 8.04567C41.417 8.08613 41.1376 8.33082 41.1549 8.43486C41.1684 8.52349 41.2782 8.43293 41.2108 8.54468C40.9815 8.51193 40.7465 8.47917 40.5191 8.44449C40.5288 8.40981 40.5365 8.37899 40.5423 8.32504C40.5769 8.01677 40.5423 7.6719 40.5423 7.6719C40.5423 7.6719 40.5924 7.47924 40.7234 7.21721C42.5556 5.24431 44.0719 3.73381 45.0391 2.79938C44.5632 3.75115 43.8735 5.16532 43.0566 6.92821ZM48.2701 34.0055C48.482 33.7242 48.7614 34.1461 49.4935 33.6202C50.2295 33.0942 49.7748 33.4102 49.8442 33.2368C49.9155 33.0614 49.8442 33.0248 49.8442 32.8514C49.8442 32.6761 49.9829 32.3967 49.9829 32.2908C49.9829 32.1848 50.1948 32.0461 50.4029 31.8727C50.6129 31.6974 50.6842 31.734 51.0002 31.5914C51.3123 31.4527 51.4529 31.312 51.557 31.2446C51.6649 31.1733 51.7689 30.9286 52.4336 30.5086C53.0964 30.0886 52.4664 30.7533 52.397 30.9286C52.3276 31.1039 51.7342 31.5914 51.8363 32.0827C51.9423 32.5721 52.0117 32.2214 52.397 32.152C52.7804 32.0827 53.3757 31.4873 53.4817 31.312C53.5857 31.1367 54.4624 30.4739 54.4258 30.3352C54.3911 30.1926 54.3911 30.0192 54.3911 30.0192C54.3911 30.0192 54.077 29.9133 53.657 29.7033C53.237 29.4933 53.657 29.7033 53.0289 29.5279C52.397 29.3526 53.0289 29.5279 52.7477 29.2139C52.4683 28.8998 52.7477 29.2139 52.3642 29.0752C51.9789 28.9345 52.3642 29.0752 52.3642 28.8305C52.3642 28.5839 52.7149 28.6532 52.9923 28.1851C53.2736 27.7149 53.1677 27.8479 52.9923 27.6398C52.8189 27.4298 52.7804 27.6051 52.397 27.6051C52.0136 27.6051 51.9789 27.6398 51.3855 27.8151C50.7882 27.9905 51.3855 27.8151 51.1408 28.187C50.8942 28.5569 50.9655 28.4451 50.7882 28.5858C50.6148 28.7245 50.4395 28.8305 49.7748 28.9018C49.1101 28.9692 49.7748 28.9018 49.8789 28.6898C49.9848 28.4798 49.8789 28.6898 50.2295 28.187C50.5782 27.6822 50.5455 27.8864 50.7189 27.6398C50.8961 27.3951 51.2449 27.3258 51.4895 27.1504C51.7362 26.9751 51.9096 27.0464 52.2583 26.9751C52.6109 26.9057 53.3468 26.9751 54.0443 26.9404C54.7417 26.9057 54.6377 26.8364 54.813 26.6264C54.9884 26.4164 55.1984 25.9964 55.2696 25.7517C55.3409 25.5051 55.5143 25.5417 55.5837 25.4376C55.6531 25.3317 56.0384 24.981 56.0037 24.771C55.9671 24.5629 55.9343 24.3529 55.759 24.247C55.5837 24.1429 55.4103 24.1429 55.0577 24.0023C54.709 23.8636 54.7803 23.9329 54.7803 23.5129C54.7803 23.0929 54.7803 23.5129 54.6743 23.4782C54.5703 23.4416 54.0443 23.1969 53.6243 23.0216C53.2062 22.8463 53.4162 22.9869 52.9615 22.8829C52.5068 22.7788 52.5415 22.0429 52.3662 21.8695C52.2159 21.7192 52.0386 21.2452 51.8402 20.8676C53.3488 20.7462 54.8227 20.5786 56.2388 20.3628C56.4989 21.1431 56.7551 21.9446 57.0017 22.7731C57.4333 24.2238 57.8475 25.7921 58.2348 27.4645C58.1038 27.3296 58.0845 27.3373 57.9612 27.2044C57.8051 27.0291 58.2425 27.0464 57.7358 26.9424C57.2291 26.8364 57.0537 26.8017 56.915 26.8364C56.7744 26.873 56.6857 26.8557 56.6857 26.8557C56.6857 26.8557 56.6337 26.8364 56.5644 26.767C56.4931 26.6977 56.4064 26.5204 56.4064 26.3817C56.4064 26.243 56.4064 26.0676 56.4064 25.9636C56.4064 25.8596 56.4757 25.7363 56.389 25.7536C56.3023 25.7729 56.2137 25.7536 56.2137 25.7536C55.9343 26.1563 55.6203 26.3297 55.6357 26.453C55.6531 26.5763 55.5991 26.767 55.6357 26.8557C55.6723 26.9424 55.6453 27.0464 55.6222 27.187C55.601 27.3277 55.5297 27.3103 55.4816 27.5724C55.4257 27.8344 55.3217 28.029 55.3217 28.0964C55.3217 28.1677 55.2504 28.2024 55.3217 28.3931C55.391 28.5858 54.8496 28.4991 55.391 28.5858C55.9343 28.6744 55.759 28.5511 56.3178 28.5858C56.8784 28.6205 56.7224 28.5338 57.2098 28.4644C57.7011 28.3931 57.8398 28.2717 57.9458 28.2872C58.0498 28.3064 57.8225 28.474 57.7358 28.6185C57.6471 28.7611 57.9612 28.7611 58.1905 28.7611C58.3542 28.7611 58.4371 28.8305 58.5353 28.8189C58.8301 30.1868 59.1018 31.6241 59.3445 33.1308C55.8399 33.6452 52.1099 33.9592 48.2508 34.0402C48.2566 34.0248 48.2605 34.019 48.2701 34.0055ZM59.0074 28.3507C59.0189 28.3084 59.0093 28.264 58.9746 28.2062C58.5315 26.1929 58.044 24.326 57.5373 22.6131C57.2984 21.8059 57.048 21.0314 56.7975 20.2703C59.489 19.8349 61.9821 19.2357 64.2094 18.5074C64.6313 19.0989 65.0532 19.6943 65.4636 20.3185C67.3594 23.195 69.2302 26.5763 70.8294 30.4624C67.5926 31.5509 63.8972 32.4295 59.8956 33.046C59.6258 31.3987 59.3291 29.8343 59.0074 28.3507ZM64.4502 17.8736C62.8588 15.6675 61.2153 13.685 59.5931 11.9279C59.5911 11.8855 59.5931 11.8528 59.5911 11.8046C59.543 10.8952 59.7549 11.2227 59.8936 10.9665C60.0343 10.7083 59.6644 10.3345 59.2887 10.1033C58.9149 9.87022 58.098 9.30956 57.8437 8.96084C57.6972 8.76239 57.283 8.25953 56.89 7.82989C57.6645 7.55438 58.3696 7.24418 59.0016 6.90702C61.8049 8.56009 64.8432 10.6775 67.8257 13.3883C68.5443 14.0414 69.2264 14.71 69.8911 15.3862C68.3941 16.3207 66.5657 17.1588 64.4502 17.8736ZM56.4526 7.38483C56.3255 7.26923 56.2156 7.17482 56.1405 7.14014C55.7918 6.97831 56.0249 7.39832 55.4411 6.72013C54.8593 6.0458 54.5799 6.11516 54.3198 6.02268C54.0655 5.9302 53.8574 5.81268 53.5511 5.55643C53.2486 5.30018 53.4605 5.44083 53.133 5.25394C52.8055 5.06706 52.738 4.95146 52.1542 4.55457C51.8094 4.31951 51.5088 4.32529 51.3142 4.36383C49.981 3.34848 48.8539 2.57396 48.035 2.04413C48.1872 2.07881 48.3722 2.12312 48.5437 2.16551C50.4453 2.76085 54.1098 4.0941 58.4332 6.57563C57.836 6.86656 57.177 7.14014 56.4526 7.38483ZM50.5725 4.5064C50.5224 4.49677 50.4068 4.43897 50.1486 4.27327C49.4935 3.85326 49.1005 3.6895 48.9367 3.76078C48.8693 3.78776 48.8019 3.82629 48.7402 3.85712C48.3761 3.34655 48.0427 2.89571 47.7615 2.5335C48.482 3.00168 49.4357 3.65482 50.5725 4.5064ZM46.0063 4.63163C45.725 4.68173 45.2934 5.01119 45.0872 5.1133C44.9196 5.19614 44.6769 5.37725 44.2357 5.72405C45.1951 3.70491 45.8868 2.35239 46.1469 1.84376C46.1219 2.36396 46.0718 3.3138 46.0063 4.63163ZM39.0838 8.18054C38.895 8.14201 38.7119 8.09769 38.527 8.05338C38.5482 8.03604 38.5559 8.03411 38.5828 8.01485C38.9682 7.7008 38.8275 7.92429 39.1416 7.6719C39.4556 7.42144 38.9682 7.63144 39.4556 7.42144C39.9469 7.21143 39.9469 7.21143 39.9469 7.21143V6.8261L39.392 6.86078C39.3516 6.93014 39.5963 6.44269 39.0029 6.86078C38.4075 7.28079 38.1628 7.21143 38.0915 7.31547C38.0222 7.42144 37.7775 7.6719 37.7775 7.6719C37.7775 7.6719 37.3941 7.43492 37.4288 7.6719C37.4346 7.72007 37.4365 7.74897 37.4384 7.78172C36.9471 7.64686 36.4828 7.50043 36.0339 7.34437C39.7119 4.99577 42.7849 3.36967 44.542 2.49882C43.3494 3.65482 41.4131 5.60267 39.0838 8.18054ZM38.5347 8.66606C38.4846 8.71808 38.4576 8.76817 38.3728 8.88955C38.1956 9.13424 37.7428 9.06488 38.1956 9.13424C38.2071 9.13616 38.2149 9.13809 38.2264 9.14002C37.9682 9.43094 37.7159 9.71416 37.4519 10.0166C37.4153 9.98582 37.3922 9.9338 37.3922 9.83554C37.3922 9.38085 37.1822 9.76618 37.3922 9.38085C37.6041 8.99552 37.7775 8.68147 37.6369 8.64487C37.4981 8.61019 37.0781 8.64487 37.0781 8.64487C36.7641 8.71615 36.1341 8.71615 35.7507 9.0302C35.3634 9.34617 35.294 9.30956 35.0494 9.62554C34.8047 9.93958 34.664 9.93958 34.5947 10.0436C34.5234 10.1496 34.1053 10.35 34.3134 10.4251C34.5234 10.4983 34.5947 10.3134 34.8393 10.4251C35.086 10.533 35.296 10.7777 35.296 10.7777C35.296 10.7777 35.296 10.9183 35.3306 11.059C35.3634 11.1977 34.9087 11.5483 34.9453 11.6524C34.98 11.7583 34.8413 12.0377 34.9453 12.2477C35.0455 12.45 34.8991 12.4019 35.1996 12.6754C34.9993 12.9201 34.8008 13.161 34.5947 13.4095C34.5137 13.4114 34.4829 13.4076 34.4213 13.3671C34.3153 13.2977 34.3153 13.0511 34.3153 13.0511C34.3153 13.0511 34.6313 12.8411 34.6313 12.739C34.6313 12.6331 34.5947 12.4924 34.5947 12.4924L34.35 12.1784C34.35 12.1784 33.9666 11.793 33.9126 11.689C33.8548 11.583 33.5812 11.5117 33.5812 11.5117C33.5812 11.5117 33.51 11.0937 33.51 10.743C33.51 10.3923 33.1612 10.4617 33.1612 10.4617C33.1612 10.4617 32.8819 10.4617 32.6372 10.4617C32.3906 10.4617 32.2518 10.5677 32.0765 10.6024C31.9128 10.6351 31.7066 10.6062 31.2519 10.6043C32.6834 9.56196 34.0802 8.60826 35.4019 7.74704C36.3518 8.10155 37.3941 8.41559 38.5347 8.66606ZM30.8088 10.9318C30.8165 10.9241 30.8242 10.9183 30.8319 10.9125C30.8242 10.9183 30.8203 10.9241 30.8088 10.9318ZM45.6017 60.0655C45.5015 60.1021 45.461 60.1695 45.4071 60.2312C45.3917 59.2929 45.3782 58.3508 45.3666 57.4067C45.3878 57.4664 45.4013 57.5107 45.4013 57.5107L45.7519 57.6841C45.7519 57.6841 45.7866 59.9942 45.6017 60.0655ZM46.2721 47.6193C46.2066 47.6193 46.145 47.6193 46.0795 47.6173C46.0641 47.6039 46.0506 47.5904 46.0313 47.5769C45.8232 47.4035 45.9658 47.2282 45.4745 47.2628C45.4129 47.2686 45.3859 47.2705 45.3416 47.2763C45.357 44.4827 45.3878 41.6948 45.4321 38.9532C45.5631 38.8587 45.6884 38.7643 45.856 38.6564C46.1354 38.483 45.856 38.6564 46.224 38.2384C46.59 37.8183 46.2066 37.8877 46.224 37.6083C46.2394 37.3309 46.4166 36.1036 46.6267 36.2096C46.8367 36.3136 46.6267 36.2096 47.0813 36.2443C47.538 36.2789 47.0813 36.2443 47.2586 35.8589C47.432 35.4736 47.642 35.4389 47.7114 35.2655C47.7807 35.0921 47.8501 34.9168 47.956 34.6066C51.9712 34.5372 55.8245 34.2251 59.4332 33.7069C60.0362 37.5852 60.4524 41.9125 60.5641 46.6868C56.0538 47.2937 51.2429 47.6193 46.2721 47.6193ZM59.9861 33.6259C64.0494 33.0113 67.7833 32.1289 71.0548 31.0307C72.546 34.7588 73.781 38.9454 74.5613 43.5945C70.5847 44.895 66.0416 45.92 61.1209 46.6097C61.0072 41.8374 60.5911 37.5101 59.9861 33.6259ZM59.0247 6.26929C56.9343 5.05357 54.998 4.10758 53.3102 3.3716C55.4219 3.94382 57.8205 4.64127 60.2481 5.44661C59.8917 5.73368 59.4871 6.01112 59.0247 6.26929ZM44.8483 1.72623C43.1664 2.53928 39.6444 4.34841 35.3653 7.10739C34.296 6.69316 33.3809 6.21727 32.6545 5.70093C37.8758 3.45252 42.1973 2.2368 44.1644 1.74357C44.3917 1.73779 44.6191 1.73008 44.8483 1.72623ZM34.7642 7.50428C33.3828 8.40789 31.9359 9.40204 30.4466 10.5002C30.4446 10.4405 30.4523 10.3846 30.4311 10.323C30.3618 10.113 30.2924 9.86829 30.1865 9.6949C30.0824 9.51764 30.0477 9.27488 29.9765 9.0302C29.9052 8.78551 29.9418 8.78551 29.8011 8.54083C29.6605 8.29421 29.4158 8.04953 29.3445 7.83952C29.2752 7.62952 29.2058 7.62952 28.9958 7.6642C28.7877 7.7008 28.7858 7.62952 28.6105 7.7008C28.5218 7.73548 28.4756 7.70851 28.385 7.68539C29.6354 7.05537 30.8608 6.48508 32.0438 5.96488C32.7643 6.53517 33.6814 7.05152 34.7642 7.50428ZM25.2542 9.38085C25.1502 9.51957 25.0789 9.51957 24.9402 9.59086C24.9055 9.6082 24.8785 9.60242 24.8592 9.58122C24.996 9.50223 25.1309 9.43094 25.2696 9.35388C25.2638 9.36158 25.2619 9.36929 25.2542 9.38085ZM21.9327 13.9258C22.0367 13.9258 21.792 14.1012 21.6167 14.1821C21.4992 14.238 21.4606 14.4229 21.4375 14.5809C21.3103 14.4846 21.187 14.3902 21.0676 14.2919C21.3065 14.1802 21.8498 13.9258 21.9327 13.9258ZM22.1061 14.7659C22.212 14.7659 22.5261 14.5905 22.5261 14.5905C22.5261 14.5905 22.9461 14.4171 22.9808 14.2071C23.0174 13.9971 23.1214 15.1859 23.1214 15.1859C23.1214 15.1859 23.1811 15.4941 23.2139 15.7542C22.684 15.4518 22.1928 15.1377 21.7438 14.814C21.898 14.7948 22.0579 14.7659 22.1061 14.7659ZM23.6146 16.8409C23.684 17.0509 23.7842 17.3572 23.7514 17.4959C23.7148 17.6347 23.6821 17.81 23.5742 17.9506C23.4701 18.0913 23.4701 18.9294 23.3295 19.0719C23.1908 19.2107 23.3295 19.4207 23.2254 19.8407C23.1214 20.2588 23.3295 20.3667 23.3295 20.3667L23.2254 20.8907C23.2254 20.8907 23.0501 21.4861 22.9461 21.6961C22.842 21.9061 22.7708 22.1508 22.7708 22.1508C22.7708 22.1508 22.8748 22.8501 22.632 23.0601C22.3854 23.2701 22.632 23.0601 22.5261 23.1642C22.422 23.2701 22.3873 23.5823 22.3161 23.8289C22.2467 24.0736 22.632 24.5976 22.6667 24.7729C22.7014 24.9483 22.7014 25.1217 22.6667 25.2623C22.632 25.403 22.8054 25.7883 22.7014 26.033C22.5954 26.2796 22.2814 27.503 22.1061 27.8517C21.9307 28.2024 21.5473 28.7264 21.3007 29.0771C21.0714 29.4066 21.0175 29.5934 20.69 30.1695C18.2797 29.3044 16.1585 28.3161 14.384 27.2256C16.7769 23.8443 19.428 20.8695 22.0425 18.3244C22.5646 17.8158 23.0886 17.3225 23.6146 16.8409ZM20.9231 35.8185C21.056 35.911 21.0946 35.9745 21.3373 36.2443C21.6514 36.5949 21.6514 38.5158 21.7207 38.8684C21.792 39.2171 22.2467 39.4271 22.2467 39.4271C22.2467 39.4271 22.2814 39.6718 22.2467 39.8471C22.212 40.0205 22.2467 40.3365 22.1118 40.4752C21.975 40.6159 22.1407 40.6871 22.1407 40.6871C22.1407 40.6871 22.0714 40.8625 22.1407 41.0012C22.212 41.1418 22.1407 41.3152 22.1407 41.3152C22.1407 41.3152 22.4895 41.5618 22.7014 41.6659C22.9114 41.7699 23.0848 41.8759 23.0501 41.9799C23.0154 42.084 23.1195 42.8893 23.1542 43.1687C23.1888 43.448 23.2948 43.448 23.2948 43.5887C23.2948 43.7293 23.6801 44.2881 23.6801 44.394C23.6801 44.4981 23.9923 44.6734 23.9923 44.6734H24.1676C24.1676 44.6734 24.2389 44.2168 24.2389 44.1127C24.2389 44.0087 24.2389 43.8006 24.2389 43.8006C24.2389 43.8006 24.1676 43.6234 23.9923 43.4847C23.8189 43.3459 23.7495 42.924 23.7495 42.924C23.7495 42.924 23.7495 42.4346 23.6801 42.3306C23.6088 42.2246 23.4335 41.4559 23.4335 41.4559L23.3276 40.8605C23.3276 40.8605 23.1542 40.2652 23.1195 40.1612C23.0848 40.0552 23.0848 39.9165 23.0154 39.7778C22.9441 39.6371 22.9788 39.2518 22.9788 39.2518L22.6995 38.3058C22.6995 38.3058 23.1888 38.169 23.474 38.3058C23.7572 38.4464 23.7822 39.1477 23.5048 39.5678C23.2235 39.9858 24.9363 41.8065 24.9363 41.8065C24.9363 41.8065 24.9729 42.1919 24.9382 42.4366C24.9036 42.6812 25.287 42.7506 25.287 42.9953C25.287 43.24 26.4757 45.1647 26.653 45.6888C26.6645 45.7254 26.6626 45.7658 26.6722 45.8005C23.5376 45.1878 20.5994 44.4326 17.9233 43.554C18.7575 40.9164 19.7748 38.3328 20.9231 35.8185ZM26.7108 46.3669C26.6915 46.6964 26.6337 47.0586 26.653 47.5056C26.6876 48.2782 27.4583 48.7329 27.4583 48.7329L28.2983 49.3263L28.9977 49.569C28.9977 49.569 29.1865 49.675 29.4794 49.8272C28.9149 53.7961 28.5912 57.8498 28.6239 61.8438C23.8208 61.0404 19.4049 59.921 15.565 58.5434C15.5535 57.9115 15.5554 57.2757 15.5766 56.6341C15.7076 52.3897 16.511 48.1741 17.7672 44.0684C20.505 44.972 23.5106 45.7427 26.7108 46.3669ZM30.0034 50.0989C30.8743 50.5382 32.0881 51.1084 32.7412 51.2144C33.824 51.3917 34.2787 50.9697 34.7681 51.2144C35.2594 51.4591 36.0628 52.3338 36.5175 52.8232C36.9741 53.3125 36.9375 52.9985 37.2188 53.1719C37.4962 53.3453 37.6022 53.2085 38.2322 53.3838C38.8584 53.5572 39.4903 54.7807 39.4903 55.062C39.4903 55.3413 39.6984 55.5879 39.945 56.006C40.1897 56.426 40.3631 56.006 40.7503 56.006C41.1357 56.006 41.3804 56.952 41.5557 56.9154C41.7291 56.8826 42.2897 56.8826 42.2897 56.8826C42.2897 56.8826 42.8832 57.2314 43.1644 57.5107L43.6191 57.0927L44.1085 56.7054L44.5285 56.532C44.5285 56.532 44.6595 56.5859 44.8021 56.6476C44.8156 57.95 44.8329 59.2447 44.8561 60.5279C44.6249 60.6974 44.3705 60.9306 44.2145 61.0442C43.9679 61.2215 43.7925 62.1289 43.5151 62.7243C43.438 62.8823 43.3879 63.0557 43.3513 63.2271C38.4094 63.0981 33.6352 62.6588 29.1846 61.9382C29.1441 58.0059 29.4543 54.0139 30.0034 50.0989ZM43.2781 63.7859C43.2666 63.9862 43.2666 64.1519 43.2666 64.1905C43.2666 64.2964 43.5498 64.5758 43.5498 64.859C43.5498 65.1345 43.5498 64.859 43.4091 64.8918C43.2685 64.9265 43.0585 65.4524 42.9198 65.6258C42.7791 65.8012 42.9198 66.4292 42.9198 66.6393C42.9198 66.8493 43.1991 67.1306 43.5132 67.2346C43.7424 67.3117 44.5574 67.7432 45.0564 68.0823C45.1566 70.7854 45.2838 73.3883 45.4475 75.8525C40.3708 75.814 35.4385 75.4364 30.8223 74.7543C29.7626 70.876 29.2674 66.7491 29.1865 62.5432C33.6005 63.2348 38.342 63.6606 43.2781 63.7859ZM45.6344 68.6892C45.8386 69.009 46.0756 69.4252 46.2047 69.5793C46.3762 69.7893 46.3473 70.2074 46.224 70.4194C46.1007 70.6274 46.5573 70.6987 46.6613 70.9781C46.7654 71.2575 46.9407 71.2228 47.0101 71.3981C47.0813 71.5734 47.3588 71.8181 47.536 72.0975C47.7114 72.3768 48.5841 72.7256 49.0408 72.7622C49.4935 72.7969 50.8229 73.1128 50.9636 73.5348C51.0137 73.6889 50.9597 74.6214 50.8537 75.7639C49.3413 75.8256 47.8154 75.8622 46.2721 75.8622C46.1835 75.8622 46.0968 75.8602 46.0063 75.8602C45.856 73.5791 45.7346 71.1765 45.6344 68.6892ZM46.2721 76.4248C47.7961 76.4248 49.3028 76.3824 50.7979 76.3246C50.6014 78.1703 50.2931 80.2954 50.0542 80.596C49.6573 81.0931 49.5417 80.9697 48.7864 84.2239C48.1179 84.2412 47.4474 84.2643 46.7827 84.2663C46.486 81.8926 46.2413 79.2531 46.0467 76.419C46.1219 76.4209 46.197 76.4248 46.2721 76.4248ZM55.1618 83.5707C55.2311 83.4648 55.7918 83.4301 55.9324 83.3973C55.9324 83.3973 55.9382 83.3954 55.9401 83.3935C55.9151 83.484 55.89 83.5765 55.8669 83.6671C55.6107 83.7018 55.3583 83.721 55.102 83.7518C55.1251 83.6632 55.1463 83.5919 55.1618 83.5707ZM67.2034 61.2812C66.7814 61.1541 66.768 61.183 66.531 61.1502C66.2844 61.1136 65.901 61.0789 65.3056 60.8342C64.7103 60.5895 64.1516 60.9036 64.1516 60.9036L64.7796 60.3429C64.7796 60.3429 64.8162 59.8882 64.4675 59.2601C64.0109 57.1254 61.2808 57.2988 61.0728 57.2988C61.0092 57.2988 60.9417 57.3007 60.8704 57.2969C61.1171 53.7306 61.1961 50.3474 61.1344 47.1684C66.0744 46.4748 70.6444 45.4441 74.6538 44.1359C75.3782 48.7078 75.6537 53.7249 75.3011 59.1792C72.8023 59.9903 70.0895 60.6974 67.2034 61.2812ZM75.1932 43.9586C77.2451 43.2689 79.139 42.504 80.8576 41.6755C80.9597 42.4539 81.1543 43.1725 81.5358 43.6234C82.4818 44.7447 82.4818 44.6734 82.4433 45.55C82.4105 46.4228 82.4105 46.9469 82.6205 47.0875C82.8305 47.2282 83.2852 48.0682 83.4933 48.3456C83.7033 48.625 83.6705 48.941 83.9846 49.359C84.2871 49.7636 84.0578 49.9428 85.2099 50.2665C85.3487 51.6922 85.445 53.1025 85.5028 54.4936C82.9134 56.2102 79.6515 57.7227 75.8772 58.9904C76.2105 53.5418 75.9254 48.5306 75.1932 43.9586ZM85.1387 27.0098C85.1387 27.0098 84.3333 26.5185 84.1927 26.6957C84.0539 26.8711 83.2852 27.8132 83.2852 27.8132C83.2852 27.8132 82.9692 28.8632 82.8999 28.9692C82.8305 29.0732 81.3605 30.2639 81.2892 30.368C81.2295 30.4643 81.11 30.7648 81.0618 31.1328C80.7979 30.5163 80.5262 29.9113 80.2469 29.3218C80.2912 29.3199 80.3297 29.3141 80.3817 29.3199C80.8384 29.3545 81.4684 29.289 81.5724 29.3757C81.6765 29.4605 81.9924 29.3199 82.3065 28.9345C82.6224 28.5511 82.4837 28.3045 82.3065 27.7111C82.1292 27.1158 81.7824 26.8017 81.7111 26.3451C81.6591 26.0079 81.5531 25.8615 81.4838 25.4261C82.2255 24.7383 82.8498 24.0215 83.3469 23.2836C84.0617 24.4936 84.7225 25.7401 85.3178 27.0194L85.1387 27.0098ZM64.6525 6.43306C63.5581 6.00534 62.4368 5.59882 61.3078 5.21156C61.4407 5.06706 61.5525 4.91678 61.6604 4.7665C62.5582 5.12101 63.4464 5.50056 64.3172 5.91286C64.3982 6.08241 64.5195 6.26544 64.6525 6.43306ZM60.7202 5.01504C56.6857 3.66252 52.6725 2.59515 49.9444 1.92275C53.842 2.31001 57.5893 3.21169 61.1209 4.55649C61.0053 4.71255 60.8704 4.86476 60.7202 5.01504ZM41.4613 1.90926C39.1185 2.60286 35.8566 3.70106 32.1574 5.30789C31.7297 4.94375 31.3926 4.56035 31.1614 4.16153C34.4386 3.01517 37.8873 2.2445 41.4613 1.90926ZM19.8326 12.766C19.8095 12.8546 19.7883 12.9394 19.7748 13.0242C19.7343 12.9779 19.6919 12.9336 19.6553 12.8874C19.7131 12.8431 19.7748 12.8065 19.8326 12.766ZM19.6091 13.6253C19.5725 13.8083 19.6438 13.8912 19.5879 14.1725C19.5185 14.5212 19.5879 14.1725 19.3779 14.2784C19.3278 14.3015 19.3028 14.3131 19.2893 14.3208C19.2893 14.3208 19.2835 14.3247 19.2816 14.3247C19.2758 14.3285 19.2681 14.3324 19.2373 14.3459C19.0985 14.4171 19.0292 14.5559 18.8905 14.5559C18.7498 14.5559 18.3972 14.7659 18.3972 14.7659C18.3972 14.7659 18.0832 14.9431 17.8732 14.9431C17.6632 14.9431 17.6979 15.1165 17.4551 15.1531C17.2104 15.1859 17.1391 15.1859 16.9291 15.1859C16.7191 15.1859 16.9291 15.5385 16.9291 15.5385C16.9291 15.5385 17.6632 15.6059 17.9425 15.5712C18.2238 15.5385 18.3279 15.5018 18.5379 15.4325C18.7479 15.3631 19.1679 15.3631 19.3451 15.2572C19.5166 15.1531 19.9366 14.9084 19.9366 14.9084C19.9366 14.9084 20.4626 14.8025 20.6013 14.7678C20.6553 14.7543 20.6957 14.7138 20.7285 14.6695C21.4625 15.2706 22.3218 15.8409 23.2929 16.3746C22.7457 16.8756 22.2043 17.3842 21.6629 17.9082C19.0195 20.4861 16.3338 23.4975 13.912 26.9212C11.7714 25.5397 10.1916 24.0042 9.2822 22.3569C12.2647 18.7598 15.6941 15.7273 19.2353 13.1918C19.3529 13.3363 19.4781 13.4827 19.6091 13.6253ZM14.0873 27.6514C15.8849 28.7553 18.0158 29.7591 20.4337 30.6377C20.2834 30.9382 20.3181 30.9614 20.3181 30.9614C20.3181 30.9614 20.4279 32.362 20.3586 32.9227C20.2892 33.4814 20.322 34.7742 20.3586 35.1962C20.374 35.3773 20.4048 35.4582 20.4549 35.516C19.2816 38.0707 18.2412 40.6968 17.3934 43.3768C13.7463 42.1398 10.602 40.6737 8.1185 39.0225C9.64634 34.8397 11.7291 31.0442 14.0873 27.6514ZM15.5882 59.2158C19.428 60.5741 23.8304 61.6704 28.6278 62.4526C28.7049 66.6489 29.1885 70.7758 30.225 74.6619C25.9131 73.9972 21.8941 73.0724 18.3105 71.9183C16.6459 67.9051 15.7404 63.6606 15.5882 59.2158ZM30.9937 75.3439C35.5773 76.0086 40.4633 76.3766 45.4861 76.4113C45.6826 79.2473 45.9234 81.8907 46.2201 84.274C42.0296 84.2586 38.0704 83.8983 34.4502 83.355C32.9512 80.8676 31.8164 78.178 30.9937 75.3439ZM48.6574 84.7845C48.6554 84.7884 48.6554 84.7922 48.6535 84.7961C47.7788 88.6436 48.6535 89.237 48.6535 89.237C48.6535 89.237 49.2161 89.1658 49.3182 89.0617C49.4242 88.9577 50.0908 88.9577 50.2642 88.8498C50.4395 88.7477 50.4395 88.7111 50.5455 88.5377C50.6457 88.3623 50.7882 88.2236 50.7882 88.2236C50.7882 88.2236 51.2102 87.8036 51.3489 87.5936C51.4876 87.3855 51.6976 87.2449 51.7689 87.033C51.8363 86.8229 51.7689 86.7883 51.7689 86.7883C51.7689 86.7883 51.9076 86.4049 51.9442 86.2642C51.9789 86.1236 52.1889 86.1949 52.3623 86.1236C52.5376 86.0542 52.7477 85.9482 52.8189 85.8076C52.8883 85.6689 52.9923 85.3221 52.9923 85.1121C52.9923 84.9001 53.2736 84.7961 53.4817 84.6901C53.6917 84.5861 53.9383 84.8655 54.4277 84.8288C54.6416 84.8154 54.7938 84.5919 54.9036 84.3356C55.1733 84.3048 55.4411 84.2817 55.7109 84.2489C55.3429 85.6361 54.9498 87.0445 54.5317 88.4702C52.2775 88.9384 49.9559 89.2313 47.59 89.3372C47.3145 87.9847 47.0736 86.4723 46.8559 84.825C47.4532 84.8231 48.0543 84.8038 48.6574 84.7845ZM56.3081 84.1853C61.2153 83.5476 66.2343 82.4263 71.3149 80.8638C71.3168 80.8638 71.3187 80.8657 71.3226 80.8657C71.3804 80.8657 71.4382 80.8464 71.4844 80.8118C71.5615 80.7886 71.6347 80.7636 71.7118 80.7424C66.8624 84.3491 61.2442 86.9694 55.154 88.3277C55.5606 86.9289 55.9478 85.5456 56.3081 84.1853ZM56.4661 83.5939C56.4911 83.4898 56.5162 83.3858 56.5412 83.2817C56.6915 83.2567 56.8399 83.2336 56.9458 83.222C57.2252 83.1873 57.3293 83.0101 57.7146 82.8714C58.098 82.7326 57.9959 82.7326 58.4852 82.3126C58.9765 81.8926 57.2965 81.1239 57.7146 80.7713C58.1365 80.4226 57.7839 80.9466 58.2059 81.2279C58.624 81.5073 58.4852 81.2973 58.8359 81.2973C59.1846 81.2973 59.2193 81.2626 59.6393 81.1566C60.0593 81.0545 60.0593 81.1566 60.41 80.9466C60.7587 80.7385 60.41 80.9466 60.9013 80.5613C61.3887 80.1779 61.1113 80.3898 61.5294 79.9679C61.9494 79.5479 61.8434 79.6519 62.2634 79.0585C62.6834 78.4632 62.5775 78.5691 63.9782 77.731C65.3769 76.891 64.1882 77.1704 64.1169 76.6097C64.0475 76.051 64.2228 76.2263 64.4675 75.7369C64.6236 75.419 66.0628 74.8353 67.3228 74.3324C69.3844 73.8951 71.3515 73.3941 73.2184 72.8296C72.6423 75.2649 71.941 77.7676 71.1049 80.3436C66.1476 81.8637 61.2539 82.9581 56.4661 83.5939ZM69.3824 73.2901C69.3555 73.2226 69.3632 73.0993 69.5385 72.8335C70.0625 72.0281 70.3785 71.8547 70.4826 71.61C70.5885 71.3615 70.9719 70.9087 71.076 70.5234C71.1819 70.1381 71.2166 70.2787 71.1819 70.034C71.1473 69.7874 70.9372 68.248 71.3207 67.5159C71.7041 66.7818 72.23 66.5371 72.6867 65.8358C73.1394 65.1345 73.1394 65.2752 73.4901 64.8918C73.8388 64.5084 74.0141 64.0518 74.0854 63.6317C74.1528 63.2117 74.0854 62.8283 73.806 62.549C73.5267 62.2657 73.3514 62.549 72.966 62.2002C72.5826 61.8496 72.4034 61.8149 71.496 61.6357C70.5885 61.4642 70.9006 61.8496 69.9238 61.7764C68.9451 61.7051 69.4691 61.917 68.8025 61.8477C68.1956 61.786 68.6908 61.8342 68.5944 61.5509C70.945 61.0365 73.1741 60.4393 75.2587 59.7726C74.9736 63.6895 74.3667 67.8299 73.361 72.2034C72.0836 72.5946 70.7561 72.9587 69.3824 73.2901ZM86.0789 54.7672C87.127 54.0543 88.0633 53.3068 88.8783 52.5303C88.3157 56.0272 87.3428 59.3912 86.0018 62.5624C86.1502 59.8459 86.1656 57.2526 86.0789 54.7672ZM86.05 54.116C85.996 52.8713 85.919 51.6556 85.8111 50.4727C86.5066 50.8079 86.1559 51.1624 86.9921 50.6557C87.9708 50.0603 88.5296 49.3282 89.0228 48.6943C89.1461 48.5325 89.254 48.3764 89.3523 48.23C89.2829 49.3667 89.1673 50.4919 89.0112 51.6055C88.177 52.4802 87.1848 53.3164 86.05 54.116ZM18.1564 11.3961C18.3356 11.8566 18.588 12.3074 18.9001 12.7467C15.3878 15.2629 11.9815 18.2628 9.00669 21.8097C8.97201 21.7384 8.94311 21.6652 8.91228 21.592C11.4439 17.7291 14.567 14.2861 18.1564 11.3961ZM3.03982 35.0478C4.07251 36.5294 5.56182 37.9262 7.44417 39.219C5.95679 43.4076 5.03006 47.9776 4.94336 52.9099C3.69489 51.8676 2.68917 50.7694 1.95897 49.6268C1.83181 48.284 1.76052 46.9237 1.76052 45.55C1.76052 41.9298 2.20943 38.4137 3.03982 35.0478ZM7.75821 67.6411C10.4613 69.4657 13.9023 71.059 17.8924 72.3634C19.1274 75.29 20.7574 78.1029 22.7823 80.7829C20.8267 80.2126 19.164 79.6481 17.8462 79.1683C17.746 79.1356 17.6535 79.1722 17.5803 79.2338C13.6711 75.9778 10.3438 72.0512 7.75821 67.6411ZM38.764 88.8498C37.2515 87.3489 35.9414 85.7209 34.8297 83.9773C38.369 84.4898 42.2242 84.8231 46.2933 84.8327C46.5072 86.4819 46.75 87.9924 47.0197 89.3526C46.5477 89.3661 46.0756 89.3873 45.6017 89.3873C43.2762 89.3873 40.9912 89.2024 38.764 88.8498ZM72.9583 79.7656C72.5556 79.8985 72.1549 80.0161 71.7522 80.1432C72.573 77.5711 73.2685 75.0665 73.8369 72.635C77.1392 71.6023 80.1081 70.3808 82.6224 68.9821C80.0137 73.0897 76.7442 76.735 72.9583 79.7656Z" fill="#FEC269"/>
</g>
</svg>
