<svg width="130" height="91" viewBox="0 0 130 91" fill="none" xmlns="http://www.w3.org/2000/svg">
<mask id="mask0_1_558" style="mask-type:luminance" maskUnits="userSpaceOnUse" x="0" y="0" width="130" height="91">
<path d="M0.0537109 0H129.591V91H0.0537109V0Z" fill="white"/>
</mask>
<g mask="url(#mask0_1_558)">
<path d="M6.7482 10.0729C6.7482 12.5894 8.79415 14.6404 11.3073 14.6404C13.8205 14.6404 15.8664 12.5894 15.8664 10.0729C15.8664 7.55466 13.8205 5.50534 11.3073 5.50534C8.79415 5.4463 6.7482 7.49563 6.7482 10.0729ZM12.9434 10.0729C12.9434 11.009 12.1844 11.7123 11.3073 11.7123C10.4302 11.7123 9.67122 10.95 9.67122 10.0729C9.67122 9.13508 10.4302 8.43174 11.3073 8.43174C12.1844 8.43174 12.9434 9.13508 12.9434 10.0729ZM6.7482 81.5714C6.7482 84.0897 8.79415 86.139 11.3073 86.139C13.8205 86.139 15.8664 84.0897 15.8664 81.5714C15.8664 79.0532 13.8205 77.0039 11.3073 77.0039C8.79415 76.9465 6.7482 78.9959 6.7482 81.5714ZM12.9434 81.5714C12.9434 82.5092 12.1844 83.2109 11.3073 83.2109C10.4302 83.2109 9.67122 82.4502 9.67122 81.5714C9.67122 80.6353 10.4302 79.932 11.3073 79.932C12.1844 79.932 12.9434 80.6353 12.9434 81.5714ZM103.608 37.0092C103.608 34.2566 102.613 31.5629 100.801 29.63C99.047 27.7561 96.7682 26.7019 94.3124 26.7019C91.9156 26.7019 89.5779 27.7561 87.8238 29.63C85.9532 31.622 84.9598 34.3156 85.0188 37.0683C83.2056 38.1798 81.9204 40.1718 81.9204 42.4555V47.3739C81.9204 48.31 82.0367 49.1888 82.2122 50.0675C82.681 52.1169 83.6155 54.0498 84.9598 55.5729C87.0057 57.914 89.8123 59.2617 92.7927 59.2617H95.8321C101.854 59.2617 106.704 53.9317 106.704 47.3739V42.4555C106.764 40.1127 105.478 38.0634 103.608 37.0092ZM89.9287 31.5629C91.1566 30.2743 92.6763 29.5726 94.2534 29.5726C95.8321 29.5726 97.4109 30.2743 98.5797 31.5629C99.7486 32.7925 100.391 34.432 100.567 36.1305C100.509 36.1305 100.45 36.1305 100.391 36.1305H88.1746C88.0582 36.1305 87.9992 36.1305 87.8828 36.1305C88.1172 34.432 88.8172 32.8516 89.9287 31.5629ZM103.841 47.3739C103.841 52.3513 100.275 56.3336 95.8912 56.3336H92.8518C90.6877 56.3336 88.7008 55.3958 87.1811 53.6399C86.1286 52.4677 85.427 51.0053 85.0761 49.4232C84.9007 48.7216 84.8434 48.0182 84.8434 47.3149V42.3965C84.8434 40.5226 86.3631 38.9995 88.2336 38.9995H100.45C102.321 38.9995 103.841 40.5226 103.841 42.3965V47.3739ZM94.4288 39.9947H94.2534H94.196C92.6173 40.0537 91.214 40.8734 90.3386 42.2211C89.4615 43.6261 89.3435 45.3246 90.0451 46.8477L90.8058 48.4871L90.7468 50.4774C90.6877 52.2923 91.9747 53.8744 93.6698 54.1088C93.9043 54.1662 94.0797 54.1662 94.3124 54.1662C94.4288 54.1662 94.4878 54.1662 94.6042 54.1662C94.7223 54.1662 94.8977 54.1662 95.0141 54.1088C96.7092 53.8154 97.9371 52.2349 97.8781 50.4774L97.8207 48.4281L98.5797 46.7886C99.2814 45.2655 99.165 43.5671 98.2879 42.1621C97.4699 40.8734 96.0075 39.9947 94.4288 39.9947ZM96.0075 45.6164L95.0731 47.5493C94.9551 47.7247 94.9551 47.9592 94.9551 48.1936L95.0141 50.5364C95.0141 50.8873 94.8387 51.1808 94.5469 51.2381C94.4878 51.2381 94.4878 51.2381 94.4288 51.2381C94.3715 51.2381 94.2534 51.2381 94.196 51.2381C93.9043 51.1808 93.7288 50.8873 93.7288 50.5364L93.7862 48.1936C93.7862 47.9592 93.7288 47.7247 93.6698 47.5493L92.7337 45.6164C92.4419 45.0311 92.5009 44.3294 92.8518 43.8015C93.1436 43.2753 93.6698 42.9818 94.2534 42.9818L94.196 41.5177L94.3124 42.9818H94.4288C95.0141 42.9818 95.5403 43.2753 95.8912 43.8015C96.242 44.3294 96.242 45.0311 96.0075 45.6164ZM127.925 20.8474C127.105 20.8474 126.462 21.4917 126.462 22.3115V24.3608C126.403 37.829 126.171 69.3328 100.391 86.0226C98.2879 87.3686 95.9502 88.0719 93.5534 88.0719H3.18255V73.843H61.2855C62.1035 73.843 62.7478 73.1987 62.7478 72.379C62.7478 71.5593 62.1035 70.915 61.2855 70.915H55.2657V46.6132V46.5542L56.8427 44.9147C57.428 44.3294 57.428 43.3916 56.8427 42.8654C56.2591 42.2801 55.323 42.2801 54.7968 42.8654L27.1486 70.915H19.7255V61.4274L55.9673 25.8822C56.5509 25.2969 56.5509 24.4181 55.9673 23.8329C55.3821 23.2476 54.505 23.2476 53.9214 23.8329L37.4948 39.9373V20.085H53.8033C54.6214 20.085 55.2657 19.4407 55.2657 18.621C55.2657 17.8013 54.6214 17.157 53.8033 17.157H3.18255V2.92808H79.2891C67.3069 7.96452 60.5264 18.0357 59.0067 20.5539L57.9543 22.2524C57.8379 22.4869 57.7198 22.7787 57.7198 23.0131V25.0051C57.8379 35.0763 58.0133 58.7337 72.2169 76.7121C72.5087 77.0629 72.9185 77.2974 73.3857 77.2974C73.6775 77.2974 74.0284 77.181 74.2628 77.0039C74.9054 76.4776 75.0235 75.5989 74.4973 74.9546C60.9346 57.7386 60.7592 34.8418 60.6428 25.0624V23.482L61.4609 22.1934C63.3904 18.9735 73.912 3.45433 92.8518 2.92808C93.1436 2.92808 93.4353 2.92808 93.7288 2.92808C102.145 2.92808 110.095 5.97255 117.169 12.0632C117.811 12.5894 118.688 12.5321 119.215 11.8878C119.741 11.2434 119.682 10.3647 119.039 9.83843C111.557 3.39698 102.788 0 93.7288 0C93.4353 0 93.1436 0 92.9091 0C92.8518 0 92.8518 0 92.7927 0H1.72019C0.902148 0 0.259521 0.644314 0.259521 1.46404V89.536C0.259521 90.3557 0.902148 91 1.72019 91H93.6108C96.5928 91 99.4568 90.1212 102.029 88.4818C129.151 70.915 129.326 38.2979 129.385 24.3608V22.3115C129.385 21.5491 128.743 20.8474 127.925 20.8474ZM52.3427 49.4823V70.915H31.2405L52.3427 49.4823ZM34.5717 42.8064L19.7255 57.3287V20.085H34.5717V42.8064ZM16.8025 20.085V70.915H3.18255V20.085H16.8025ZM92.9091 6.55783C75.1399 7.02673 65.2019 22.4278 64.0921 24.1263C63.974 24.3608 63.8577 24.6526 63.8577 24.887C63.974 36.4813 64.2675 67.2245 88.2926 82.801C89.9287 83.8552 91.7402 84.3831 93.5534 84.3831C95.3649 84.3831 97.1764 83.8552 98.8142 82.801C122.956 67.1671 123.131 37.1256 123.247 24.3018L121.787 24.2427H123.247C123.247 23.9509 123.188 23.6574 123.013 23.423C121.903 21.7835 111.323 6.09062 92.9091 6.55783ZM97.2355 80.4009C94.9551 81.8649 92.2091 81.8649 89.9287 80.4009C67.4233 65.8195 66.9561 37.7699 66.7807 25.3559C68.5348 22.6623 77.594 9.89578 92.9681 9.48591C108.869 9.07605 118.454 22.018 120.267 24.7706C120.267 38.2979 119.857 65.7605 97.2355 80.4009Z" fill="#FEC269"/>
</g>
</svg>
