<svg width="95" height="91" viewBox="0 0 95 91" fill="none" xmlns="http://www.w3.org/2000/svg">
<mask id="mask0_1_563" style="mask-type:luminance" maskUnits="userSpaceOnUse" x="0" y="0" width="95" height="91">
<path d="M0.0537109 0H94.1106V91H0.0537109V0Z" fill="white"/>
</mask>
<g mask="url(#mask0_1_563)">
<path fill-rule="evenodd" clip-rule="evenodd" d="M58.2416 66.1434C58.2416 66.9272 57.6047 67.5629 56.8221 67.5629H37.9361C37.1523 67.5629 36.5154 66.9272 36.5154 66.1434C36.5154 65.3596 37.1523 64.724 37.9361 64.724H56.8221C57.6047 64.724 58.2416 65.3596 58.2416 66.1434ZM92.9997 68.2818C93.7382 68.0172 94.1216 67.2028 93.857 66.468C93.5913 65.7283 92.7793 65.3437 92.042 65.607L86.9314 67.4392C90.6275 60.745 92.565 53.2376 92.565 45.4999C92.565 20.3715 72.2203 0.0280762 47.0931 0.0280762C37.9789 0.0280762 29.1844 2.71384 21.6623 7.79634C21.0132 8.23601 20.8417 9.12024 21.2826 9.76933C21.7186 10.4172 22.6028 10.5887 23.2519 10.1502C30.3037 5.38613 38.546 2.86815 47.0931 2.86815C70.5988 2.86815 89.7249 21.9918 89.7249 45.4999C89.7249 53.0808 87.7421 60.4229 83.9688 66.9076L81.7656 60.7535C81.4998 60.015 80.6866 59.6317 79.9506 59.8975C79.2121 60.1608 78.8275 60.974 79.0933 61.7112L82.2763 70.5989C82.5433 71.3558 83.3565 71.7391 84.1121 71.466L92.9997 68.2818ZM72.9037 81.2305C72.464 80.5814 71.5822 80.4112 70.9331 80.8496C63.8825 85.6137 55.6366 88.1317 47.0931 88.1317C23.5838 88.1317 4.45893 69.0068 4.45893 45.4999C4.45893 37.919 6.44049 30.577 10.215 24.0922L12.4195 30.2451C12.6852 30.9848 13.4972 31.3681 14.2357 31.1024C14.973 30.8378 15.3575 30.0258 15.093 29.2886L11.9063 20.4009C11.6467 19.6453 10.8163 19.2571 10.0705 19.5339L1.18654 22.7181C0.448044 22.9826 0.0634883 23.7946 0.328023 24.5331C0.591333 25.2703 1.40576 25.6561 2.14425 25.3904L7.25247 23.5607C3.5551 30.2549 1.61886 37.761 1.61886 45.4999C1.61886 70.6258 21.966 90.9717 47.0931 90.9717C56.2073 90.9717 64.9995 88.2848 72.5216 83.2023C73.1719 82.7614 73.3421 81.8796 72.9037 81.2305ZM59.7614 45.2366C59.7614 52.4831 53.8645 58.3801 46.618 58.3801C39.3714 58.3801 33.4757 52.4831 33.4757 45.2366C33.4757 37.9888 39.3714 32.0931 46.618 32.0931C50.6276 32.0931 54.2221 33.9008 56.636 36.7421L46.8751 47.3492L41.4938 41.6899C40.9537 41.1216 40.0548 41.0996 39.4865 41.6384C38.9195 42.1785 38.8975 43.0762 39.4351 43.6445L45.8623 50.4061C46.4269 51.0025 47.3797 50.9927 47.9345 50.3889L58.2673 39.1633C59.2201 40.9795 59.7614 43.0444 59.7614 45.2366ZM64.5133 28.1863C65.0423 27.6083 65.94 27.5703 66.5169 28.1031C67.0949 28.6321 67.1317 29.5323 66.6001 30.1079L60.2893 36.965C61.754 39.3813 62.6015 42.2116 62.6015 45.2366C62.6015 54.0483 55.4309 61.2177 46.618 61.2177C37.8063 61.2177 30.6356 54.0483 30.6356 45.2366C30.6356 36.4237 37.8063 29.2531 46.618 29.2531C51.3686 29.2531 55.6403 31.3399 58.5686 34.6405L64.5133 28.1863ZM69.4096 57.2925C72.5779 47.2525 72.3697 35.2822 72.0782 24.5637C63.3032 23.1112 54.3458 20.058 47.0931 15.7973C39.8344 20.058 30.8806 23.11 22.1056 24.5637C21.8129 35.2822 21.6072 47.2525 24.7767 57.2938C28.2658 68.354 35.57 75.6128 47.0931 79.4743C58.6163 75.6128 65.9168 68.354 69.4096 57.2925ZM73.674 21.9392C64.6198 20.592 55.2129 17.4212 47.8304 12.9291C47.376 12.6535 46.8066 12.6535 46.3546 12.9291C39.0187 17.4041 29.5273 20.6018 20.5098 21.9392C19.8301 22.0396 19.3194 22.6152 19.3011 23.3047C18.99 34.5425 18.6385 47.2806 22.0689 58.1474C25.901 70.2866 33.9423 78.192 46.6535 82.3193C46.9437 82.4123 47.2389 82.4123 47.5304 82.3193C60.2427 78.192 68.2853 70.2866 72.1162 58.1474C75.5453 47.2806 75.1938 34.5425 74.8828 23.3047C74.8644 22.6152 74.3549 22.0396 73.674 21.9392Z" fill="#FEC269"/>
</g>
</svg>
