<svg width="25" height="24" viewBox="0 0 25 24" fill="none" xmlns="http://www.w3.org/2000/svg">
<mask id="mask0_1_468" style="mask-type:luminance" maskUnits="userSpaceOnUse" x="0" y="0" width="25" height="24">
<path d="M0 0H24.0198V24H0V0Z" fill="white"/>
</mask>
<g mask="url(#mask0_1_468)">
<path d="M23.5884 19.5713L19.8898 15.874C19.3337 15.3181 18.4303 15.3181 17.8742 15.874L16.1104 17.6371C13.4341 16.0498 7.94811 10.5705 6.36035 7.89027L8.12392 6.12719C8.68023 5.57121 8.68023 4.66832 8.12392 4.11218L4.43024 0.419795C3.87409 -0.136351 2.96601 -0.136351 2.40986 0.419795C-0.452033 3.28526 -0.789519 7.82372 1.63977 11.0742C1.64447 11.0789 5.86589 17.0905 11.6514 21.4056C12.4262 21.8571 14.285 23.9813 17.8123 23.9813C19.9801 23.9813 22.0576 23.1211 23.5884 21.591C24.1445 21.0302 24.1445 20.132 23.5884 19.5713Z" fill="#1B1B1B"/>
</g>
<path d="M17.9074 12.3194C18.1689 12.3194 18.3829 12.1056 18.3829 11.8443C18.3829 8.43693 15.6112 5.66626 12.2028 5.66626C11.9412 5.66626 11.7273 5.88021 11.7273 6.14157C11.7273 6.40292 11.9412 6.61671 12.2028 6.61671C15.0884 6.61671 17.4321 8.95963 17.4321 11.8443C17.4321 12.1056 17.6412 12.3194 17.9074 12.3194Z" fill="#1B1B1B"/>
<path d="M11.5752 8.00903C11.3138 8.00903 11.0999 8.22282 11.0999 8.48418C11.0999 8.74553 11.3138 8.95948 11.5752 8.95948C13.51 8.95948 15.0836 10.5325 15.0836 12.4666C15.0836 12.728 15.2976 12.9418 15.5589 12.9418C15.8204 12.9418 16.0344 12.728 16.0344 12.4666C16.0344 10.0098 14.033 8.00903 11.5752 8.00903Z" fill="#1B1B1B"/>
<path d="M11.3994 3.7129C16.3291 3.7129 20.3367 7.71907 20.3367 12.6471C20.3367 12.9085 20.5507 13.1224 20.812 13.1224C21.0735 13.1224 21.2875 12.9085 21.2875 12.6471C21.2875 7.19636 16.8521 2.76245 11.3994 2.76245C11.1379 2.76245 10.924 2.9764 10.924 3.23776C10.924 3.49911 11.1379 3.7129 11.3994 3.7129Z" fill="#1B1B1B"/>
</svg>
