<svg width="38" height="38" viewBox="0 0 38 38" fill="none" xmlns="http://www.w3.org/2000/svg">
<path d="M24.2088 29.6396L24.9452 28.5132L25.2571 28.801C25.9469 29.4377 28.0504 30.9255 33.2668 31.773L33.5003 31.8109C32.7546 33.1529 31.8557 34.4037 30.7686 35.4939C30.3408 35.8789 29.9252 36.2527 29.4712 36.6251H29.4711H29.4698H29.4686H29.4674H29.4662H29.465H29.4637H29.4625H29.4613H29.4601H29.4589H29.4577H29.4565H29.4552H29.454H29.4528H29.4516H29.4504H29.4492H29.448H29.4468H29.4456H29.4444H29.4432H29.442H29.4408H29.4396H29.4384H29.4372H29.436H29.4348H29.4335H29.4324H29.4312H29.43H29.4288H29.4276H29.4264H29.4252H29.424H29.4228H29.4216H29.4204H29.4192H29.418H29.4168H29.4156H29.4144H29.4132H29.412H29.4109H29.4097H29.4085H29.4073H29.4061H29.4049H29.4037H29.4025H29.4014H29.4002H29.399H29.3978H29.3966H29.3954H29.3943H29.3931H29.3919H29.3907H29.3895H29.3883H29.3872H29.386H29.3848H29.3836H29.3824H29.3813H29.3801H29.3789H29.3777H29.3766H29.3754H29.3742H29.373H29.3719H29.3707H29.3695H29.3683H29.3672H29.366H29.3648H29.3636H29.3625H29.3613H29.3601H29.359H29.3578H29.3566H29.3555H29.3543H29.3531H29.3519H29.3508H29.3496H29.3484H29.3473H29.3461H29.3449H29.3438H29.3426H29.3414H29.3403H29.3391H29.3379H29.3368H29.3356H29.3345H29.3333H29.3321H29.331H29.3298H29.3286H29.3275H29.3263H29.3252H29.324H29.3228H29.3217H29.3205H29.3193H29.3182H29.317H29.3159H29.3147H29.3135H29.3124H29.3112H29.3101H29.3089H29.3077H29.3066H29.3054H29.3043H29.3031H29.302H29.3008H29.2996H29.2985H29.2973H29.2962H29.295H29.2938H29.2927H29.2915H29.2904H29.2892H29.2881H29.2869H29.2857H29.2846H29.2834H29.2823H29.2811H29.28H29.2788H29.2777H29.2765H29.2753H29.2742H29.273H29.2719H29.2707H29.2696H29.2684H29.2673H29.2661H29.2649H29.2638H29.2626H29.2615H29.2603H29.2592H29.258H29.2569H29.2557H29.2545H29.2534H29.2522H29.2511H29.2499H29.2488H29.2476H29.2465H29.2453H29.2442H29.243H29.2418H29.2407H29.2395H29.2384H29.2372H29.2361H29.2349H29.2338H29.2326H29.2314H29.2303H29.2291H29.228H29.2268H29.2257H29.2245H29.2233H29.2222H29.221H29.2199H29.2187H29.2176H29.2164H29.2152H29.2141H29.2129H29.2118H29.2106H29.2095H29.2083H29.2071H29.206H29.2048H29.2037H29.2025H29.2013H29.2002H29.199H29.1979H29.1967H29.1955H29.1944H29.1932H29.1921H29.1909H29.1897H29.1886H29.1874H29.1863H29.1851H29.1839H29.1828H29.1816H29.1804H29.1793H29.1781H29.1769H29.1758H29.1746H29.1735H29.1723H29.1711H29.17H29.1688H29.1676H29.1665H29.1653H29.1641H29.163H29.1618H29.1606H29.1595H29.1583H29.1571H29.1559H29.1548H29.1536H29.1524H29.1513H29.1501H29.1489H29.1478H29.1466H29.1454H29.1442H29.1431H29.1419H29.1407H29.1395H29.1384H29.1372H29.136H29.1348H29.1337H29.1325H29.1313H29.1301H29.1289H29.1278H29.1266H29.1254H29.1242H29.1231H29.1219H29.1207H29.1195H29.1183H29.1171H29.116H29.1148H29.1136H29.1124H29.1112H29.11H29.1089H29.1077H29.1065H29.1053H29.1041H29.1029H29.1017H29.1005H29.0993H29.0982H29.097H29.0958H29.0946H29.0934H29.0922H29.091H29.0898H29.0886H29.0874H29.0862H29.085H29.0838H29.0826H29.0814H29.0802H29.079H29.0778H29.0766H29.0754H29.0742H29.073H29.0718H29.0706H29.0694H29.0682H29.067H29.0658H29.0646H29.0634H29.0622H29.061H29.0598H29.0585H29.0573H29.0561H29.0549H29.0537H29.0525H29.0513H29.0501H29.0488H29.0476H29.0464H29.0452H29.044H29.0428H29.0415H29.0403H29.0391H29.0379H29.0367H29.0354H29.0342H29.033H29.0318H29.0305H29.0293H29.0281H29.0268H29.0256H29.0244H29.0232H29.0219H29.0207H29.0195H29.0182H29.017H29.0158H29.0145H29.0133H29.0121H29.0108H29.0096H29.0083H29.0071H29.0059H29.0046H29.0034H29.0021H29.0009H28.9996H28.9984H28.9971H28.9959H28.9946H28.9934H28.9921H28.9909H28.9896H28.9884H28.9871H28.9859H28.9846H28.9834H28.9821H28.9808H28.9796H28.9783H28.9771H28.9758H28.9745H28.9733H28.972H28.9707H28.9695H28.9682H28.9669H28.9657H28.9644H28.9631H28.9618H28.9606H28.9593H28.958H28.9567H28.9555H28.9542H28.9529H28.9516H28.9503C23.6425 36.6251 16.4031 32.8641 10.6868 26.8867L10.6809 26.8804L10.6748 26.8743C7.72147 23.942 5.34633 20.6708 3.75012 17.4722C2.16222 14.2903 1.36558 11.2222 1.49483 8.65059L1.50313 8.63917C1.82641 8.19432 2.19511 7.78316 2.61773 7.36054L2.61781 7.36046C3.70914 6.26878 4.94949 5.37258 6.28337 4.6726L6.30023 4.84958C6.57468 7.73038 7.62645 10.4748 9.36378 12.8071L9.57678 13.0931L8.42048 13.8493C8.00522 14.0775 7.85753 14.4844 7.79932 14.7748L7.79287 14.807L7.78961 14.8397C7.72989 15.4389 7.90424 16.0859 8.26702 16.5722C9.00515 17.5851 12.362 21.292 14.5422 23.56L14.5515 23.5696L14.5611 23.5788C15.6608 24.6348 17.1441 26.0196 18.4744 27.2183C19.7487 28.3666 20.9407 29.3978 21.4997 29.7669C22.0267 30.204 22.6944 30.299 23.2352 30.245L23.2838 30.2402L23.3312 30.2283C23.6101 30.1584 23.9367 30.0049 24.1842 29.6747L24.1971 29.6576L24.2088 29.6396Z" fill="#FEC269" stroke="#FEC269" stroke-width="1.33333"/>
<mask id="mask0_1_595" style="mask-type:luminance" maskUnits="userSpaceOnUse" x="16" y="0" width="22" height="22">
<path d="M17.3507 1.37419H36.8903V20.8783H17.3507V1.37419Z" fill="white" stroke="white" stroke-width="1.33333"/>
</mask>
<g mask="url(#mask0_1_595)">
<path d="M36.8692 20.9953C36.8692 20.9944 36.8692 20.9936 36.8692 20.9927V20.9953ZM37.1515 20.9938C37.1515 20.9943 37.1515 20.9948 37.1515 20.9953C37.1515 20.9948 37.1515 20.9943 37.1515 20.9938Z" fill="#FEC269" stroke="#FEC269" stroke-width="1.33333"/>
</g>
<mask id="path-4-inside-1_1_595" fill="white">
<path d="M26.7603 11.5776C29.3004 14.0745 30.702 17.4915 30.702 21.0839C30.702 21.3905 30.9647 21.6095 31.2276 21.6095C31.4903 21.6095 31.7533 21.3466 31.7533 21.0839C31.7533 13.0669 25.2273 6.53955 17.2125 6.53955C16.9059 6.53955 16.6869 6.80249 16.6869 7.06519C16.6869 7.37203 16.9059 7.59106 17.1686 7.63472H17.2125C20.8037 7.63472 24.22 9.03674 26.7603 11.5776Z"/>
</mask>
<path d="M26.7603 11.5776C29.3004 14.0745 30.702 17.4915 30.702 21.0839C30.702 21.3905 30.9647 21.6095 31.2276 21.6095C31.4903 21.6095 31.7533 21.3466 31.7533 21.0839C31.7533 13.0669 25.2273 6.53955 17.2125 6.53955C16.9059 6.53955 16.6869 6.80249 16.6869 7.06519C16.6869 7.37203 16.9059 7.59106 17.1686 7.63472H17.2125C20.8037 7.63472 24.22 9.03674 26.7603 11.5776Z" fill="#FEC269"/>
<path d="M26.7603 11.5776L25.8174 12.5203L25.8256 12.5284L26.7603 11.5776ZM17.1686 7.63472L16.95 8.95001L17.0586 8.96806H17.1686V7.63472ZM25.8256 12.5284C28.104 14.7681 29.3686 17.8395 29.3686 21.0839H32.0353C32.0353 17.1435 30.4969 13.381 27.695 10.6267L25.8256 12.5284ZM29.3686 21.0839C29.3686 22.1974 30.3009 22.9429 31.2276 22.9429V20.2762C31.4585 20.2762 31.6491 20.3671 31.7818 20.4924C31.9253 20.628 32.0353 20.8379 32.0353 21.0839H29.3686ZM31.2276 22.9429C31.7929 22.9429 32.2463 22.6735 32.5318 22.388C32.8172 22.1026 33.0866 21.6492 33.0866 21.0839H30.4199C30.4199 20.7813 30.5578 20.5907 30.6461 20.5024C30.7345 20.4141 30.925 20.2762 31.2276 20.2762V22.9429ZM33.0866 21.0839C33.0866 12.3309 25.964 5.20622 17.2125 5.20622V7.87288C24.4906 7.87288 30.4199 13.803 30.4199 21.0839H33.0866ZM17.2125 5.20622C16.0986 5.20622 15.3536 6.1391 15.3536 7.06519H18.0202C18.0202 7.29634 17.9292 7.4869 17.8041 7.61929C17.6688 7.7626 17.4589 7.87288 17.2125 7.87288V5.20622ZM15.3536 7.06519C15.3536 8.07795 16.0988 8.80854 16.95 8.95001L17.3872 6.31944C17.713 6.37359 18.0202 6.6661 18.0202 7.06519H15.3536ZM17.1686 8.96806H17.2125V6.30139H17.1686V8.96806ZM17.2125 8.96806C20.4533 8.96806 23.5294 10.2319 25.8174 12.5203L27.7032 10.6349C24.9105 7.84162 21.1541 6.30139 17.2125 6.30139V8.96806Z" fill="#FEC269" mask="url(#path-4-inside-1_1_595)"/>
<mask id="path-6-inside-2_1_595" fill="white">
<path d="M17.2562 13.7675C21.2857 13.7675 24.5705 17.0531 24.5705 21.0835C24.5705 21.3901 24.8331 21.6091 25.0958 21.6091C25.3588 21.6091 25.6215 21.3462 25.6215 21.0835C25.6215 16.4399 21.855 12.6724 17.2125 12.6724C16.9059 12.6724 16.6869 12.9351 16.6869 13.198C16.6869 13.4609 16.9496 13.7675 17.2562 13.7675Z"/>
</mask>
<path d="M17.2562 13.7675C21.2857 13.7675 24.5705 17.0531 24.5705 21.0835C24.5705 21.3901 24.8331 21.6091 25.0958 21.6091C25.3588 21.6091 25.6215 21.3462 25.6215 21.0835C25.6215 16.4399 21.855 12.6724 17.2125 12.6724C16.9059 12.6724 16.6869 12.9351 16.6869 13.198C16.6869 13.4609 16.9496 13.7675 17.2562 13.7675Z" fill="#FEC269"/>
<path d="M17.2562 15.1009C20.549 15.1009 23.2371 17.7892 23.2371 21.0835H25.9038C25.9038 16.317 22.0223 12.4342 17.2562 12.4342V15.1009ZM23.2371 21.0835C23.2371 22.1967 24.169 22.9425 25.0958 22.9425V20.2758C25.3271 20.2758 25.5179 20.3669 25.6504 20.4922C25.7938 20.6277 25.9038 20.8375 25.9038 21.0835H23.2371ZM25.0958 22.9425C25.6611 22.9425 26.1146 22.6732 26.4002 22.3875C26.6858 22.1018 26.9548 21.6484 26.9548 21.0835H24.2881C24.2881 20.7813 24.4258 20.5907 24.5143 20.5022C24.6029 20.4135 24.7936 20.2758 25.0958 20.2758V22.9425ZM26.9548 21.0835C26.9548 15.7038 22.5917 11.339 17.2125 11.339V14.0057C21.1182 14.0057 24.2881 17.1759 24.2881 21.0835H26.9548ZM17.2125 11.339C16.099 11.339 15.3536 12.2713 15.3536 13.198H18.0202C18.0202 13.4288 17.9293 13.6195 17.804 13.7522C17.6684 13.8957 17.4585 14.0057 17.2125 14.0057V11.339ZM15.3536 13.198C15.3536 13.7458 15.6074 14.2022 15.8897 14.4995C16.181 14.8063 16.6533 15.1009 17.2562 15.1009V12.4342C17.5525 12.4342 17.7401 12.5755 17.8234 12.6632C17.8978 12.7415 18.0202 12.9132 18.0202 13.198H15.3536Z" fill="#FEC269" mask="url(#path-6-inside-2_1_595)"/>
</svg>
