<svg width="34" height="25" viewBox="0 0 34 25" fill="none" xmlns="http://www.w3.org/2000/svg">
<mask id="mask0_1_458" style="mask-type:luminance" maskUnits="userSpaceOnUse" x="0" y="0" width="34" height="25">
<path d="M0 0H34V24.8614H0V0Z" fill="white"/>
</mask>
<g mask="url(#mask0_1_458)">
<path fill-rule="evenodd" clip-rule="evenodd" d="M33.9825 5.6302C33.9825 2.52584 31.466 0.00927734 28.3616 0.00927734C22.3371 0.00927734 11.7017 0.00927734 5.67727 0.00927734C2.57292 0.00927734 0.0559082 2.52584 0.0559082 5.6302C0.0559082 9.58464 0.0559082 15.3131 0.0559082 19.2671C0.0559082 22.3719 2.57292 24.8885 5.67727 24.8885C11.7017 24.8885 22.3371 24.8885 28.3616 24.8885C31.466 24.8885 33.9825 22.3719 33.9825 19.2671V5.6302ZM21.611 13.1065L17.7905 16.6685C17.3563 17.0736 16.6825 17.0736 16.2484 16.6685L12.6913 13.3524L4.32675 22.3444C4.73982 22.5255 5.19702 22.6266 5.67727 22.6266H28.3616C28.8512 22.6266 29.3159 22.5218 29.7354 22.334L21.611 13.1065ZM2.71238 4.04886L11.0368 11.8096L2.68267 20.7908C2.44919 20.3336 2.31793 19.8159 2.31793 19.2675C2.31793 19.2671 2.31793 5.6302 2.31793 5.6302C2.31793 5.05859 2.4605 4.52002 2.71238 4.04886ZM31.3265 4.04886C31.5784 4.52002 31.7212 5.05859 31.7212 5.6302V19.2671C31.7212 19.8061 31.5941 20.3147 31.3688 20.7664L23.2659 11.5637L31.3265 4.04886ZM29.6447 2.52473L17.0191 14.2954L4.39415 2.52473C4.78993 2.36132 5.22296 2.27064 5.67727 2.27064H28.3616C28.8159 2.27064 29.2496 2.36132 29.6447 2.52473Z" fill="#1B1B1B"/>
</g>
</svg>
