<svg width="19" height="28" viewBox="0 0 19 28" fill="none" xmlns="http://www.w3.org/2000/svg">
<mask id="mask0_1_463" style="mask-type:luminance" maskUnits="userSpaceOnUse" x="0" y="0" width="19" height="29">
<path d="M0 0H18.6351V28.0057H0V0Z" fill="white"/>
</mask>
<g mask="url(#mask0_1_463)">
<path d="M9.31722 0.0214844C4.1691 0.0214844 -0.00585938 4.19258 -0.00585938 9.3383C-0.00585938 14.4818 9.31722 27.9657 9.31722 27.9657C9.31722 27.9657 18.6403 14.4818 18.6403 9.3383C18.6403 4.19258 14.4653 0.0214844 9.31722 0.0214844ZM9.31722 13.7484C6.60697 13.7484 4.41036 11.5557 4.41036 8.84546C4.41036 6.13981 6.60697 3.94505 9.31722 3.94505C12.0273 3.94505 14.222 6.13981 14.222 8.84546C14.222 11.5557 12.0273 13.7484 9.31722 13.7484Z" fill="#1B1B1B"/>
</g>
</svg>
