<svg width="167" height="50" viewBox="0 0 167 50" fill="none" xmlns="http://www.w3.org/2000/svg">
<path d="M60.5221 13.8996L57.8766 13.9404L57.9046 23.4179L55.6118 23.4532L55.5838 13.9758L52.9383 14.0166L52.9326 12.104L60.5164 11.987L60.5221 13.8996Z" fill="white"/>
<path d="M69.3213 23.2417L68.2736 20.867L63.5293 20.9402L62.4958 23.347L60.009 23.3854L65.0371 11.9173L66.8361 11.8895L71.7904 23.2036L69.3213 23.2417ZM64.2471 19.119L67.5981 19.0673L65.9105 14.9948L64.2471 19.119Z" fill="white"/>
<path d="M73.1302 11.7924L76.5341 11.7398C77.8275 11.7199 78.8278 11.9891 79.5349 12.5474C80.3128 13.1729 80.7034 14.0208 80.7065 15.0909C80.71 16.2749 80.2541 17.1756 79.3388 17.7931C78.9867 18.0376 78.5581 18.2093 78.0528 18.3082L81.7354 23.0501L78.8782 23.0942L75.7253 18.5661L75.4432 18.5705L75.4567 23.147L73.1639 23.1824L73.1302 11.7924ZM75.4284 13.5671L75.4385 16.9995L76.0911 16.9894C76.2792 16.9865 76.4614 16.9723 76.6377 16.9468C76.8257 16.9097 77.0666 16.8434 77.3603 16.7478C77.6539 16.6408 77.8886 16.4607 78.0642 16.2075C78.2515 15.9428 78.3446 15.6169 78.3435 15.2298C78.3424 14.8428 78.2532 14.5254 78.0761 14.2776C77.899 14.0185 77.6633 13.8457 77.3691 13.7591C77.0748 13.6612 76.8395 13.6022 76.6631 13.5822C76.4866 13.5621 76.3043 13.5536 76.1162 13.5565L75.4284 13.5671Z" fill="white"/>
<path d="M89.2402 18.7504L89.2345 16.8378L94.6314 16.7545L94.6318 16.8911C94.6378 18.9289 94.0663 20.5088 92.9173 21.6309C91.8856 22.6487 90.4938 23.1711 88.7418 23.1981C86.9546 23.2257 85.5304 22.7354 84.4692 21.7271C83.3018 20.618 82.7155 19.1641 82.7102 17.3654C82.7051 15.6578 83.2771 14.2372 84.4261 13.1038C85.5984 11.9244 87.1429 11.32 89.0594 11.2904C90.0941 11.2744 91 11.4597 91.7772 11.8462C92.6839 12.2762 93.4208 12.9593 93.988 13.8955L91.9981 14.9679C91.6789 14.3808 91.219 13.9382 90.6185 13.6401C90.1239 13.4086 89.5709 13.2976 88.9595 13.307C87.8543 13.3241 86.9499 13.6739 86.2464 14.3565C85.4608 15.1086 85.0699 16.1165 85.0737 17.3802C85.0772 18.5755 85.468 19.5315 86.2462 20.2481C86.9418 20.8863 87.8129 21.1974 88.8593 21.1812C89.7765 21.1671 90.5459 20.9275 91.1678 20.4625C91.7309 20.0326 92.0995 19.4462 92.2737 18.7035L89.2402 18.7504Z" fill="white"/>
<path d="M103.252 11.3275L103.258 13.2401L99.0248 13.3054L99.0324 15.8498L103.089 15.7872L103.094 17.6998L99.038 17.7624L99.0472 20.8703L103.28 20.805L103.286 22.7175L96.7601 22.8182L96.7264 11.4282L103.252 11.3275Z" fill="white"/>
<path d="M112.21 13.1019L109.564 13.1428L109.592 22.6202L107.299 22.6556L107.271 13.1782L104.626 13.219L104.62 11.3064L112.204 11.1894L112.21 13.1019Z" fill="white"/>
<path d="M120.061 17.677L120.059 16.994L124.997 16.9178C125.002 18.4205 124.606 19.6733 123.809 20.676C122.778 21.967 121.305 22.6273 119.388 22.6569C117.648 22.6838 116.194 22.154 115.027 21.0677C113.871 19.9812 113.291 18.5898 113.286 16.8936C113.281 15.2201 113.865 13.8164 115.037 12.6826C116.222 11.5372 117.678 10.9512 119.406 10.9245C120.758 10.9037 121.988 11.2946 123.096 12.0972C123.638 12.4987 124.11 12.9695 124.511 13.5098L123.895 13.9975C123.612 13.5351 123.234 13.1197 122.763 12.7512C121.773 11.9696 120.649 11.5885 119.391 11.6079C117.886 11.6311 116.623 12.1572 115.603 13.1862C114.595 14.215 114.093 15.458 114.097 16.9152C114.102 18.3496 114.605 19.56 115.607 20.5464C116.61 21.5214 117.863 21.9973 119.368 21.9741C120.297 21.9598 121.12 21.7592 121.836 21.3725C122.564 20.9742 123.103 20.5105 123.454 19.9813C123.923 19.2682 124.179 18.4787 124.223 17.6128L120.061 17.677Z" fill="white"/>
<path d="M133.382 22.2531L132.5 22.2667L128.674 16.9464L128.322 16.9519L128.337 22.3309L127.561 22.3429L127.528 10.9529L129.221 10.9268C130.291 10.9103 131.12 11.091 131.709 11.469C132.522 12.0029 132.93 12.8107 132.934 13.8922C132.935 14.5183 132.778 15.0843 132.462 15.5901C132.146 16.0845 131.648 16.4508 130.966 16.689C130.52 16.8439 130.038 16.9254 129.521 16.9334L133.382 22.2531ZM128.306 11.624L128.32 16.2688L129.448 16.2514C130.283 16.2385 130.935 16.0235 131.404 15.6064C131.885 15.1891 132.124 14.6162 132.122 13.8876C132.119 12.9313 131.771 12.2764 131.076 11.9228C130.664 11.7015 130.064 11.5969 129.276 11.609L128.306 11.624Z" fill="white"/>
<path d="M136.722 12.3651C137.894 11.2085 139.339 10.617 141.055 10.5905C142.772 10.564 144.22 11.1109 145.399 12.2312C146.578 13.3514 147.17 14.7313 147.175 16.3706C147.18 18.0099 146.596 19.4079 145.424 20.5645C144.251 21.7097 142.807 22.2955 141.09 22.322C139.362 22.3487 137.908 21.8076 136.729 20.6987C135.561 19.5782 134.975 18.1983 134.97 16.5589C134.965 14.9196 135.549 13.5216 136.722 12.3651ZM137.309 20.2115C138.323 21.1864 139.583 21.6622 141.088 21.6389C142.593 21.6157 143.85 21.1011 144.858 20.095C145.866 19.0776 146.368 17.8403 146.364 16.3831C146.359 14.9145 145.85 13.6928 144.836 12.718C143.822 11.7318 142.562 11.2503 141.057 11.2735C139.552 11.2967 138.296 11.8171 137.287 12.8345C136.279 13.8405 135.777 15.0778 135.782 16.5464C135.786 18.0036 136.295 19.2253 137.309 20.2115Z" fill="white"/>
<path d="M149.694 10.6108L150.47 10.5989L150.491 17.7198C150.493 18.3231 150.524 18.8065 150.584 19.1699C150.656 19.5217 150.792 19.8555 150.993 20.1712C151.3 20.6446 151.706 20.9798 152.213 21.177C152.73 21.3625 153.236 21.4515 153.73 21.4439C154.224 21.4362 154.723 21.3318 155.228 21.1304C155.745 20.9175 156.156 20.5696 156.46 20.0868C156.659 19.7649 156.787 19.4271 156.845 19.0733C156.914 18.7079 156.948 18.2235 156.947 17.6201L156.925 10.4993L157.702 10.4873L157.723 17.6082C157.725 18.314 157.685 18.8782 157.604 19.3006C157.523 19.7231 157.342 20.1358 157.061 20.5386C156.335 21.5744 155.225 22.1039 153.732 22.1269C152.239 22.15 151.126 21.6548 150.394 20.6415C150.111 20.2474 149.927 19.8404 149.844 19.4204C149.76 19.0005 149.718 18.4376 149.715 17.7317L149.694 10.6108Z" fill="white"/>
<path d="M163.183 16.3797L161.666 16.4031L161.682 21.8164L160.906 21.8284L160.872 10.4383L163.148 10.4032C164.147 10.3878 164.971 10.637 165.619 11.1507C166.267 11.653 166.593 12.3766 166.596 13.3215C166.598 14.255 166.289 14.9941 165.667 15.5388C165.046 16.0834 164.218 16.3638 163.183 16.3797ZM161.65 11.1094L161.664 15.7201L163.216 15.6961C163.992 15.6842 164.615 15.4696 165.084 15.0525C165.553 14.624 165.786 14.0569 165.784 13.3511C165.782 12.6339 165.539 12.0741 165.056 11.6717C164.585 11.2691 163.926 11.0743 163.079 11.0874L161.65 11.1094Z" fill="white"/>
<path d="M60.0153 33.3939L59.9955 26.6999L60.701 26.689L60.7378 39.1378L60.0323 39.1486L60.0286 37.9021C59.3848 38.8683 58.4573 39.3608 57.2462 39.3795C56.2703 39.3945 55.4346 39.083 54.7389 38.4448C54.055 37.795 53.7113 36.8895 53.7079 35.7283C53.7044 34.5444 54.0486 33.6453 54.7406 33.0313C55.4325 32.4058 56.2605 32.0856 57.2246 32.0707C58.4239 32.0522 59.3542 32.4933 60.0153 33.3939ZM57.2266 32.7197C56.4388 32.7318 55.7752 32.9982 55.2359 33.5188C54.7083 34.0393 54.4459 34.7663 54.4486 35.6998C54.4515 36.6675 54.73 37.4203 55.2843 37.9582C55.8385 38.4847 56.5036 38.742 57.2796 38.73C58.0439 38.7182 58.6956 38.4406 59.2349 37.8972C59.7859 37.3423 60.06 36.5809 60.0571 35.6133C60.0546 34.7708 59.7998 34.0746 59.2925 33.5246C58.7853 32.9745 58.0966 32.7062 57.2266 32.7197Z" fill="white"/>
<path d="M63.2503 32.1315L63.9558 32.1206L63.9763 39.0878L63.2709 39.0987L63.2503 32.1315ZM64.0384 30.2579C63.9212 30.3735 63.7744 30.4327 63.598 30.4354C63.4217 30.4382 63.2686 30.3836 63.139 30.2718C63.021 30.1483 62.9618 29.9956 62.9612 29.8134C62.9607 29.6313 63.019 29.4824 63.1363 29.3667C63.2652 29.2395 63.4179 29.1745 63.5943 29.1718C63.7707 29.1691 63.9178 29.2294 64.0358 29.3528C64.1654 29.4647 64.2305 29.6117 64.2311 29.7938C64.2316 29.976 64.1674 30.1307 64.0384 30.2579Z" fill="white"/>
<path d="M72.4143 31.99L73.1197 31.9792L73.1397 38.7414C73.1436 40.0506 72.8233 41.0688 72.1787 41.796C71.5459 42.5344 70.6651 42.9123 69.5364 42.9297C68.5605 42.9448 67.7366 42.69 67.0649 42.1653C66.4049 41.6517 66.05 40.9286 66.0002 39.9958L66.7409 39.9844C66.8018 40.7007 67.0857 41.2655 67.5926 41.6789C68.1111 42.0922 68.7585 42.2928 69.5345 42.2808C70.0636 42.2727 70.5218 42.1631 70.9092 41.9522C71.3084 41.7411 71.6017 41.5032 71.789 41.2385C71.9764 40.9737 72.1224 40.6527 72.2271 40.2754C72.3318 39.8981 72.3897 39.6069 72.4009 39.4018C72.4238 39.1965 72.4349 38.98 72.4343 38.7523L72.4313 37.7619C71.7521 38.6945 70.807 39.1702 69.5959 39.1889C68.6435 39.2036 67.8136 38.8919 67.1062 38.2539C66.3988 37.6159 66.0434 36.722 66.04 35.5722C66.037 34.5362 66.3636 33.6659 67.02 32.9613C67.6764 32.2567 68.5572 31.8959 69.6625 31.8788C70.8383 31.8607 71.7567 32.3019 72.4179 33.2025L72.4143 31.99ZM71.6599 33.3508C71.1408 32.7896 70.4522 32.5156 69.5938 32.5288C68.7355 32.5421 68.0486 32.8487 67.533 33.4486C67.0291 34.037 66.7784 34.7525 66.7809 35.5949C66.7834 36.4487 67.0383 37.1563 67.5456 37.7177C68.0646 38.279 68.7415 38.5532 69.5763 38.5403C70.4464 38.5268 71.1452 38.2257 71.6725 37.637C72.1999 37.0482 72.4623 36.3155 72.4597 35.4389C72.4573 34.6079 72.1907 33.9118 71.6599 33.3508Z" fill="white"/>
<path d="M75.6512 31.9401L76.3567 31.9292L76.3772 38.8964L75.6718 38.9073L75.6512 31.9401ZM76.4393 30.0665C76.3221 30.1822 76.1753 30.2414 75.9989 30.2441C75.8226 30.2468 75.6695 30.1922 75.5399 30.0804C75.4219 29.957 75.3627 29.8042 75.3621 29.622C75.3616 29.4399 75.4199 29.291 75.5372 29.1753C75.6662 29.0481 75.8188 28.9831 75.9952 28.9804C76.1716 28.9777 76.3187 29.038 76.4367 29.1615C76.5663 29.2733 76.6314 29.4203 76.632 29.6024C76.6325 29.7846 76.5683 29.9393 76.4393 30.0665Z" fill="white"/>
<path d="M80.9017 32.508L79.6495 32.5273L79.6682 38.8456L78.9627 38.8565L78.944 32.5382L78.1504 32.5505L78.1485 31.9015L78.9421 31.8893L78.9347 29.3961L79.6402 29.3853L79.6476 31.8784L80.8998 31.8591L80.9017 32.508Z" fill="white"/>
<path d="M88.1757 32.9593L88.1721 31.7469L88.8776 31.736L88.8982 38.7032L88.1927 38.7141L88.189 37.4675C87.5452 38.4338 86.6118 38.9263 85.389 38.9452C84.4131 38.9602 83.5832 38.6372 82.8992 37.9761C82.2153 37.3149 81.8717 36.4322 81.8684 35.3279C81.8652 34.2464 82.186 33.3648 82.8307 32.6832C83.4754 32.0015 84.3209 31.6526 85.3674 31.6365C86.5667 31.6179 87.5028 32.0589 88.1757 32.9593ZM85.4046 32.2848C84.6403 32.2966 83.9827 32.5743 83.4316 33.1179C82.8806 33.6501 82.6063 34.3659 82.609 35.2652C82.6115 36.0963 82.8664 36.8153 83.3738 37.4223C83.8812 38.0178 84.5699 38.3089 85.44 38.2955C86.2983 38.2822 86.9735 37.9758 87.4656 37.3762C87.9694 36.765 88.22 36.0325 88.2175 35.1787C88.2147 34.2338 87.9245 33.5153 87.3469 33.0233C86.7693 32.5199 86.1218 32.2738 85.4046 32.2848Z" fill="white"/>
<path d="M91.3945 26.2153L92.0999 26.2045L92.1367 38.6532L91.4313 38.6641L91.3945 26.2153Z" fill="white"/>
<path d="M104.624 32.7055L104.621 31.493L105.326 31.4822L105.347 38.4494L104.641 38.4602L104.637 37.2137C103.994 38.1799 103.06 38.6725 101.837 38.6914C100.862 38.7064 100.032 38.3834 99.3476 37.7222C98.6637 37.0611 98.3201 36.1784 98.3168 35.0741C98.3136 33.9926 98.6344 33.111 99.2791 32.4293C99.9238 31.7477 100.769 31.3988 101.816 31.3826C103.015 31.3641 103.951 31.8051 104.624 32.7055ZM101.853 32.031C101.089 32.0428 100.431 32.3205 99.8801 32.8641C99.329 33.3963 99.0548 34.1121 99.0574 35.0114C99.0599 35.8425 99.3148 36.5615 99.8222 37.1684C100.33 37.764 101.018 38.0551 101.888 38.0416C102.747 38.0284 103.422 37.722 103.914 37.1224C104.418 36.5112 104.668 35.7787 104.666 34.9249C104.663 33.98 104.373 33.2615 103.795 32.7695C103.218 32.2661 102.57 32.0199 101.853 32.031Z" fill="white"/>
<path d="M113.785 31.3516L114.491 31.3407L114.511 38.103C114.514 39.4122 114.194 40.4304 113.549 41.1576C112.917 41.896 112.036 42.2739 110.907 42.2913C109.931 42.3064 109.107 42.0515 108.436 41.5268C107.776 41.0133 107.421 40.2902 107.371 39.3574L108.112 39.3459C108.173 40.0622 108.457 40.6271 108.963 41.0405C109.482 41.4538 110.129 41.6544 110.905 41.6424C111.434 41.6342 111.893 41.5247 112.28 41.3138C112.679 41.1027 112.972 40.8648 113.16 40.6001C113.347 40.3353 113.493 40.0143 113.598 39.637C113.703 39.2597 113.761 38.9685 113.772 38.7634C113.795 38.5581 113.806 38.3416 113.805 38.1139L113.802 37.1235C113.123 38.0561 112.178 38.5318 110.967 38.5505C110.014 38.5652 109.184 38.2535 108.477 37.6155C107.77 36.9775 107.414 36.0836 107.411 34.9337C107.408 33.8978 107.734 33.0275 108.391 32.3229C109.047 31.6183 109.928 31.2574 111.033 31.2404C112.209 31.2222 113.128 31.6635 113.789 32.564L113.785 31.3516ZM113.031 32.7124C112.512 32.1511 111.823 31.8771 110.965 31.8904C110.106 31.9036 109.419 32.2102 108.904 32.8102C108.4 33.3986 108.149 34.114 108.152 34.9565C108.154 35.8103 108.409 36.5179 108.916 37.0793C109.435 37.6406 110.112 37.9147 110.947 37.9018C111.817 37.8884 112.516 37.5873 113.043 36.9986C113.571 36.4098 113.833 35.6771 113.831 34.8005C113.828 33.9695 113.561 33.2734 113.031 32.7124Z" fill="white"/>
<path d="M123.47 34.7713L117.315 34.8663C117.317 35.7315 117.596 36.4331 118.15 36.971C118.716 37.5087 119.393 37.7715 120.181 37.7594C120.745 37.7506 121.244 37.6006 121.678 37.3093C122.113 37.0066 122.447 36.6144 122.68 36.1326L123.281 36.4649C123.012 36.97 122.619 37.42 122.103 37.8151C121.587 38.1987 120.929 38.3967 120.13 38.4091C119.036 38.426 118.171 38.0978 117.534 37.4245C116.897 36.7399 116.577 35.8739 116.574 34.8265C116.57 33.6767 116.909 32.7721 117.589 32.1126C118.281 31.453 119.103 31.1159 120.055 31.1012C121.031 31.0861 121.843 31.4208 122.492 32.1053C123.141 32.7897 123.467 33.6784 123.47 34.7713ZM117.366 34.2166L122.727 34.1338C122.631 33.4295 122.336 32.8534 121.84 32.4056C121.357 31.9577 120.762 31.7392 120.057 31.7501C119.34 31.7611 118.735 32.0039 118.242 32.4782C117.75 32.9412 117.458 33.5207 117.366 34.2166Z" fill="white"/>
<path d="M125.568 38.1373L125.548 31.1701L126.253 31.1592L126.256 32.2521C126.736 31.4136 127.47 30.9867 128.457 30.9715C129.351 30.9577 130.016 31.2719 130.453 31.9141C130.689 32.2748 130.809 32.8593 130.811 33.6675L130.824 38.0562L130.119 38.0671L130.106 33.6784C130.104 33.0295 130.008 32.5642 129.819 32.2825C129.536 31.8315 129.065 31.6111 128.406 31.6212C127.607 31.6336 127.02 31.9671 126.645 32.6218C126.388 33.0698 126.261 33.6979 126.263 34.5062L126.274 38.1264L125.568 38.1373Z" fill="white"/>
<path d="M139.119 31.695L139.122 32.6C138.438 31.8478 137.608 31.4792 136.632 31.4943C135.762 31.5077 135.045 31.8091 134.483 32.3984C133.92 32.9763 133.64 33.6979 133.642 34.5631C133.645 35.4966 133.947 36.2263 134.548 36.7521C135.15 37.2665 135.838 37.5177 136.614 37.5058C137.567 37.4911 138.435 37.0621 139.221 36.2189L139.224 37.141C138.473 37.8015 137.598 38.1395 136.599 38.1549C135.517 38.1716 134.628 37.8438 133.932 37.1714C133.248 36.4875 132.905 35.6276 132.902 34.5916C132.899 33.5329 133.237 32.651 133.917 31.946C134.597 31.2297 135.501 30.8628 136.63 30.8454C137.559 30.8311 138.389 31.1143 139.119 31.695Z" fill="white"/>
<path d="M141.784 41.8148L143.466 37.9807L140.023 30.9467L140.835 30.9342L143.869 37.0864L146.478 30.8471L147.29 30.8346L142.595 41.8023L141.784 41.8148Z" fill="white"/>
<rect width="46.3619" height="44.9616" rx="22.4808" transform="matrix(0.99971 -0.0306916 0.00082599 1.00002 1.06616 4.26465)" fill="black"/>
<rect x="1.00054" y="0.969333" width="41.6347" height="40.3168" rx="20.1584" transform="matrix(0.99971 -0.0306916 0.00082599 1.00002 2.43064 5.57439)" fill="black" stroke="#FFB800" stroke-width="2"/>
<path d="M15.5186 22.5318L11.122 22.665L11.1203 20.6705L22.1783 20.3357L22.18 22.3301L17.7834 22.4633L17.7922 32.7075L15.5273 32.7761L15.5186 22.5318Z" fill="#FFB800"/>
<path d="M24.7494 30.9193C23.4795 29.749 22.8438 28.2573 22.8422 26.4441C22.8407 24.631 23.4865 23.0944 24.7796 21.8344C26.0601 20.5868 27.6774 19.9335 29.6314 19.8743C30.9637 19.834 32.163 20.0998 33.2293 20.6719C34.3084 21.2437 35.1211 22.041 35.6676 23.064L33.4605 23.9105C33.0793 23.2693 32.5523 22.7776 31.8795 22.4353C31.2067 22.0931 30.4579 21.9344 29.6332 21.9594C28.3897 21.9971 27.3369 22.4399 26.4748 23.288C25.6254 24.1236 25.2012 25.1458 25.2022 26.3545C25.2033 27.5875 25.6102 28.5966 26.423 29.3819C27.2357 30.1671 28.2448 30.5415 29.4502 30.505C30.3891 30.4766 31.2454 30.1847 32.0189 29.6294C32.7671 29.087 33.2677 28.3828 33.5207 27.5169L29.2193 27.6472L29.2176 25.6709L36.0884 25.4628C36.114 25.7763 36.1269 25.9754 36.127 26.06C36.1032 27.8739 35.4637 29.3982 34.2086 30.6329C32.9534 31.8797 31.3869 32.5315 29.5091 32.5884C27.6058 32.646 26.0192 32.0897 24.7494 30.9193Z" fill="#FFB800"/>
</svg>
